SplineFontDB: 3.0
FontName: Klaudia-BoldOblique
FullName: Klaudia Bold Oblique
FamilyName: Klaudia
Weight: Bold
Copyright: Copyright (c) 2011, wmk69 (wmk69@o2.pl)\nwith Reserved Font Names 'Klaudia' and 'Klaudia Bold Oblique'.\n\nThis Font Software is licensed under the SIL Open Font License, Version 1.1.\nThis license is available with a FAQ at:\nhttp://scripts.sil.org/OFL
Version: 2.000
ItalicAngle: -13
UnderlinePosition: -81
UnderlineWidth: 122
Ascent: 1638
Descent: 410
LayerCount: 2
Layer: 0 1 "Warstwa t+AUIA-a"  1
Layer: 1 1 "Plan pierwszy"  0
XUID: [1021 783 23647091 10727182]
FSType: 0
OS2Version: 3
OS2_WeightWidthSlopeOnly: 0
OS2_UseTypoMetrics: 1
CreationTime: 1260698820
ModificationTime: 1314628837
PfmFamily: 33
TTFWeight: 700
TTFWidth: 5
LineGap: 0
VLineGap: 0
Panose: 2 13 8 3 2 4 4 13 2 4
OS2TypoAscent: 1991
OS2TypoAOffset: 0
OS2TypoDescent: -471
OS2TypoDOffset: 0
OS2TypoLinegap: 0
OS2WinAscent: 1991
OS2WinAOffset: 0
OS2WinDescent: 471
OS2WinDOffset: 0
HheadAscent: 1991
HheadAOffset: 0
HheadDescent: -471
HheadDOffset: 0
OS2SubXSize: 1434
OS2SubYSize: 1331
OS2SubXOff: 0
OS2SubYOff: 287
OS2SupXSize: 1434
OS2SupYSize: 1331
OS2SupXOff: 0
OS2SupYOff: 977
OS2StrikeYSize: 102
OS2StrikeYPos: 512
OS2Vendor: '    '
OS2CodePages: 20000093.00000000
OS2UnicodeRanges: 8000002f.4000204b.00000000.00000000
Lookup: 258 0 0 "'kern' Kerning poziomy w tablicy 0"  {"Podtablica 'kern' Kerning poziomy w tablicy 0"  } ['kern' ('DFLT' <'dflt' > 'grek' <'dflt' > 'latn' <'dflt' > ) ]
DEI: 91125
KernClass2: 21 16 "Podtablica 'kern' Kerning poziomy w tablicy 0" 
 90 A Agrave Aacute Acircumflex Atilde Adieresis Aring Amacron Abreve Aogonek Aringacute Delta
 9 F uni0191
 43 K R Kcommaaccent Racute Rcommaaccent Rcaron
 40 L Lacute Lcommaaccent Lcaron Ldot Lslash
 42 T Tcommaaccent Tcaron Tbar uni021A uni1E6A
 1 V
 37 Y Yacute Ycircumflex Ydieresis Ygrave

StartChar: .notdef
Encoding: 65536 -1 0
Width: 1044
Flags: W
HStem: 0 268<480 688> 1243 268<705 913>
VStem: 150 744<0 744> 499 744<767 1511>
DStem2: 150 0 418.127 0 0.224951 0.97437<335.365 1335.99> 626.127 0 894 0 0.224951 0.97437<275.049 1275.67>
LayerCount: 2
Fore
SplineSet
150 0 m 1,0,-1
 499 1511 l 1,1,-1
 1243 1511 l 1,2,-1
 894 0 l 1,3,-1
 150 0 l 1,0,-1
913 1243 m 1,4,-1
 705 1243 l 1,5,-1
 480 268 l 1,6,-1
 688 268 l 1,7,-1
 913 1243 l 1,4,-1
EndSplineSet
Validated: 1
EndChar

StartChar: exclam
Encoding: 33 33 4
Width: 862
GlyphClass: 2
Flags: W
HStem: -20 405<382.666 563.937> 1491 20G<599.034 957>
LayerCount: 2
Fore
SplineSet
672 177 m 0,0,1
 654 100 654 100 584 40 c 128,-1,2
 514 -20 514 -20 425 -20 c 0,3,4
 340 -20 340 -20 295 41 c 0,5,6
 265 82 265 82 265 134 c 0,7,8
 265 157 265 157 271 182 c 0,9,10
 291 266 291 266 361 324 c 0,11,12
 434 385 434 385 519 385 c 0,13,14
 606 385 606 385 648 327 c 0,15,16
 678 286 678 286 678 233 c 0,17,18
 678 206 678 206 672 177 c 0,0,1
394 457 m 1,19,-1
 603 1511 l 1,20,-1
 957 1511 l 1,21,-1
 681 457 l 1,22,-1
 394 457 l 1,19,-1
EndSplineSet
Validated: 1
EndChar

StartChar: quotedbl
Encoding: 34 34 5
Width: 1164
GlyphClass: 2
Flags: W
HStem: 844 667<549 695 1013 1159>
VStem: 395 300<844 1144> 549 300<1211 1511> 859 300<844 1144> 1013 300<1211 1511>
DStem2: 395 844 695 844 0.224951 0.97437<67.4853 684.547> 859 844 1159 844 0.224951 0.97437<67.4853 684.547>
LayerCount: 2
Fore
SplineSet
1013 1511 m 1,0,-1
 1313 1511 l 1,1,-1
 1159 844 l 1,2,-1
 859 844 l 1,3,-1
 1013 1511 l 1,0,-1
549 1511 m 1,4,-1
 849 1511 l 1,5,-1
 695 844 l 1,6,-1
 395 844 l 1,7,-1
 549 1511 l 1,4,-1
EndSplineSet
Validated: 1
EndChar

StartChar: numbersign
Encoding: 35 35 6
Width: 1693
GlyphClass: 2
Flags: W
HStem: 411 300<314 585 954 999 1368 1638> 825 300<410 680 1050 1094 1464 1733>
VStem: 506 300<71 371> 828 300<1165 1465> 920 300<71 371> 1242 300<1165 1465>
DStem2: 506 71 806 71 0.224951 0.97437<67.4853 349.057 724.375 773.817 1149.36 1430.71> 920 71 1220 71 0.224951 0.97437<67.4853 349.057 724.375 773.817 1149.36 1430.71>
LayerCount: 2
Fore
SplineSet
245 411 m 1,0,-1
 314 711 l 1,1,-1
 654 711 l 1,2,-1
 680 825 l 1,3,-1
 340 825 l 1,4,-1
 410 1125 l 1,5,-1
 750 1125 l 1,6,-1
 828 1465 l 1,7,-1
 1128 1465 l 1,8,-1
 1050 1125 l 1,9,-1
 1164 1125 l 1,10,-1
 1242 1465 l 1,11,-1
 1542 1465 l 1,12,-1
 1464 1125 l 1,13,-1
 1803 1125 l 1,14,-1
 1733 825 l 1,15,-1
 1394 825 l 1,16,-1
 1368 711 l 1,17,-1
 1707 711 l 1,18,-1
 1638 411 l 1,19,-1
 1299 411 l 1,20,-1
 1220 71 l 1,21,-1
 920 71 l 1,22,-1
 999 411 l 1,23,-1
 885 411 l 1,24,-1
 806 71 l 1,25,-1
 506 71 l 1,26,-1
 585 411 l 1,27,-1
 245 411 l 1,0,-1
980 825 m 1,28,-1
 954 711 l 1,29,-1
 1068 711 l 1,30,-1
 1094 825 l 1,31,-1
 980 825 l 1,28,-1
EndSplineSet
Validated: 1
EndChar

StartChar: dollar
Encoding: 36 36 7
Width: 1698
GlyphClass: 2
Flags: W
HStem: 1114 21G<1404.5 1447.54>
VStem: 573 361<948 1160.99> 1374 376<516.616 800.5>
DStem2: 720 -186 990 -186 0.224951 0.97437<60.7368 170.294 589.307 915.478 1278.2 1437.98 1817.94 1930.42>
LayerCount: 2
Fore
SplineSet
164 362 m 1,0,-1
 496 525 l 1,1,2
 578 253 578 253 821 253 c 1,3,-1
 926 706 l 1,4,-1
 845 722 l 2,5,6
 685 754 685 754 618 846 c 0,7,8
 573 908 573 908 573 988 c 0,9,10
 573 1024 573 1024 582 1063 c 0,11,12
 626 1253 626 1253 830 1387 c 0,13,14
 964 1475 964 1475 1111 1509 c 1,15,-1
 1154 1695 l 1,16,-1
 1425 1695 l 1,17,-1
 1386 1526 l 1,18,19
 1624 1500 1624 1500 1733 1315 c 1,20,-1
 1416 1114 l 1,21,22
 1393 1205 1393 1205 1320 1238 c 1,23,-1
 1265 1000 l 1,24,-1
 1470 959 l 2,25,26
 1750 904 1750 904 1750 697 c 0,27,28
 1750 657 1750 657 1739 611 c 0,29,30
 1678 357 1678 357 1345 150 c 0,31,32
 1197 58 1197 58 1036 15 c 1,33,-1
 990 -186 l 1,34,-1
 720 -186 l 1,35,-1
 758 -20 l 1,36,37
 291 -20 291 -20 164 362 c 1,0,-1
1006 1051 m 1,38,-1
 1044 1215 l 1,39,40
 943 1169 943 1169 935 1114 c 0,41,42
 934 1107 934 1107 934 1101 c 0,43,44
 934 1066 934 1066 982 1056 c 2,45,-1
 1006 1051 l 1,38,-1
1184 654 m 1,46,-1
 1109 329 l 1,47,48
 1150 351 1150 351 1194 382 c 0,49,50
 1349 491 1349 491 1372 572 c 0,51,52
 1374 579 1374 579 1374 586 c 0,53,54
 1374 619 1374 619 1330 625 c 1,55,-1
 1184 654 l 1,46,-1
EndSplineSet
Validated: 1
EndChar

StartChar: percent
Encoding: 37 37 8
Width: 2221
GlyphClass: 2
Flags: W
HStem: 0 266<1589.75 1792.25> 554 266<1661.92 1865.65> 691 266<705.753 908.246> 1245 266<777.919 981.655>
VStem: 387 309<977.001 1162.62> 473 348<0 348> 991 310<1039.64 1229.29> 1271 309<286.001 471.62> 1750 348<1163 1511> 1875 310<348.635 538.292>
DStem2: 473 0 821 0 0.645489 0.76377<224.63 1978.35>
LayerCount: 2
Fore
SplineSet
1595 0 m 0,0,1
 1397 0 1397 0 1323 121 c 0,2,3
 1271 206 1271 206 1271 299 c 0,4,5
 1271 337 1271 337 1280 378 c 0,6,7
 1321 566 1321 566 1516 708 c 0,8,9
 1670 820 1670 820 1860 820 c 0,10,11
 2051 820 2051 820 2132 702 c 0,12,13
 2185 625 2185 625 2185 531 c 0,14,15
 2185 488 2185 488 2174 444 c 0,16,17
 2129 248 2129 248 1933 109 c 0,18,19
 1778 0 1778 0 1595 0 c 0,0,1
1664 266 m 0,20,21
 1729 266 1729 266 1782 302 c 0,22,23
 1851 349 1851 349 1870 430 c 0,24,25
 1875 451 1875 451 1875 470 c 0,26,27
 1875 493 1875 493 1866 512 c 8,28,29
 1846 554 1846 554 1795 554 c 0,30,31
 1729 554 1729 554 1676 520 c 0,32,33
 1604 473 1604 473 1585 391 c 0,34,35
 1580 369 1580 369 1580 350 c 0,36,37
 1580 324 1580 324 1590 305 c 0,38,39
 1611 266 1611 266 1664 266 c 0,20,21
711 691 m 0,40,41
 513 691 513 691 439 812 c 0,42,43
 387 897 387 897 387 990 c 0,44,45
 387 1028 387 1028 396 1069 c 0,46,47
 437 1257 437 1257 632 1399 c 0,48,49
 786 1511 786 1511 976 1511 c 0,50,51
 1167 1511 1167 1511 1248 1393 c 0,52,53
 1301 1316 1301 1316 1301 1222 c 0,54,55
 1301 1179 1301 1179 1290 1135 c 0,56,57
 1245 939 1245 939 1049 800 c 0,58,59
 894 691 894 691 711 691 c 0,40,41
780 957 m 0,60,61
 845 957 845 957 898 993 c 0,62,63
 967 1040 967 1040 986 1121 c 0,64,65
 991 1142 991 1142 991 1161 c 0,66,67
 991 1184 991 1184 982 1203 c 8,68,69
 962 1245 962 1245 911 1245 c 0,70,71
 845 1245 845 1245 792 1211 c 0,72,73
 720 1164 720 1164 701 1082 c 0,74,75
 696 1060 696 1060 696 1041 c 0,76,77
 696 1015 696 1015 706 996 c 0,78,79
 727 957 727 957 780 957 c 0,60,61
473 0 m 1,80,-1
 1750 1511 l 1,81,-1
 2098 1511 l 1,82,-1
 821 0 l 1,83,-1
 473 0 l 1,80,-1
EndSplineSet
Validated: 1
EndChar

StartChar: ampersand
Encoding: 38 38 9
Width: 1966
GlyphClass: 2
Flags: W
HStem: -20 263<657.876 1039.06> 0 21G<1448.77 1866> 1100 20G<1478 1569.5> 1266 265<1024.37 1334.47>
VStem: 243 358<300.891 558.195> 628 352<1100.57 1220.87> 1576 345<643.46 1005.01>
DStem2: 1149 1084 924 814 0.551678 -0.834057<88.4222 623.048 916.42 1076.79>
LayerCount: 2
Fore
SplineSet
1211 378 m 1,0,-1
 924 814 l 1,1,2
 821 787 821 787 747 720 c 0,3,4
 639 622 639 622 609 491 c 0,5,6
 601 456 601 456 601 425 c 0,7,8
 601 364 601 364 632 317 c 0,9,10
 681 243 681 243 797 243 c 0,11,12
 931 243 931 243 1059 295 c 0,13,14
 1110 316 1110 316 1211 378 c 1,0,-1
1866 0 m 1,15,-1
 1462 0 l 1,16,-1
 1376 130 l 1,17,18
 1094 -20 1094 -20 717 -20 c 0,19,20
 434 -20 434 -20 319 125 c 0,21,22
 243 221 243 221 243 349 c 0,23,24
 243 407 243 407 258 469 c 0,25,26
 305 663 305 663 489 824 c 0,27,28
 569 894 569 894 664 943 c 1,29,30
 628 994 628 994 628 1059 c 0,31,32
 628 1089 628 1089 636 1123 c 0,33,34
 677 1314 677 1314 914 1454 c 0,35,36
 1045 1531 1045 1531 1238 1531 c 0,37,38
 1397 1531 1397 1531 1494 1440 c 16,39,40
 1544 1393 1544 1393 1560 1332 c 1,41,-1
 1219 1197 l 1,42,43
 1227 1234 1227 1234 1204 1252 c 0,44,45
 1186 1266 1186 1266 1148 1266 c 0,46,47
 1085 1266 1085 1266 1042 1236 c 0,48,49
 991 1201 991 1201 980 1150 c 0,50,51
 973 1118 973 1118 994 1100 c 0,52,53
 1013 1084 1013 1084 1056 1084 c 1,54,-1
 1149 1084 l 1,55,-1
 1494 564 l 1,56,57
 1540 628 1540 628 1564 731 c 0,58,59
 1576 782 1576 782 1576 830 c 0,60,61
 1576 877 1576 877 1565 920 c 0,62,63
 1533 1047 1533 1047 1423 1120 c 1,64,65
 1716 1120 1716 1120 1822 1058 c 0,66,67
 1921 1000 1921 1000 1921 860 c 0,68,69
 1921 804 1921 804 1905 734 c 0,70,71
 1855 516 1855 516 1652 325 c 1,72,-1
 1866 0 l 1,15,-1
EndSplineSet
Validated: 1
EndChar

StartChar: quotesingle
Encoding: 39 39 10
Width: 700
GlyphClass: 2
Flags: W
HStem: 844 667<549 695>
VStem: 395 300<844 1144> 549 300<1211 1511>
DStem2: 395 844 695 844 0.224951 0.97437<67.4853 684.547>
LayerCount: 2
Fore
SplineSet
549 1511 m 1,0,-1
 849 1511 l 1,1,-1
 695 844 l 1,2,-1
 395 844 l 1,3,-1
 549 1511 l 1,0,-1
EndSplineSet
Validated: 1
EndChar

StartChar: parenleft
Encoding: 40 40 11
Width: 1049
GlyphClass: 2
Flags: W
VStem: 337 343<68.0078 759.607>
LayerCount: 2
Fore
SplineSet
992 1797 m 1,0,-1
 1314 1797 l 1,1,2
 1066 1529 1066 1529 936 1300 c 0,3,4
 790 1043 790 1043 731 788 c 0,5,6
 680 567 680 567 680 381 c 0,7,8
 680 303 680 303 689 229 c 0,9,10
 721 -34 721 -34 836 -267 c 1,11,-1
 517 -267 l 1,12,13
 408 -76 408 -76 362 153 c 0,14,15
 337 279 337 279 337 413 c 0,16,17
 337 588 337 588 381 783 c 0,18,19
 455 1104 455 1104 646 1376 c 0,20,21
 813 1613 813 1613 992 1797 c 1,0,-1
EndSplineSet
Validated: 1
EndChar

StartChar: parenright
Encoding: 41 41 12
Width: 1049
GlyphClass: 2
Flags: W
VStem: 722 348<770.598 1428.71>
LayerCount: 2
Fore
SplineSet
565 1797 m 1,0,-1
 887 1797 l 1,1,2
 980 1622 980 1622 1040 1376 c 0,3,4
 1070 1252 1070 1252 1070 1115 c 0,5,6
 1070 958 1070 958 1030 783 c 0,7,8
 954 451 954 451 757 153 c 0,9,10
 603 -80 603 -80 408 -267 c 1,11,-1
 89 -267 l 1,12,13
 311 -36 311 -36 466 229 c 0,14,15
 611 476 611 476 682 788 c 0,16,17
 722 963 722 963 722 1135 c 0,18,19
 722 1216 722 1216 713 1301 c 0,20,21
 685 1538 685 1538 565 1797 c 1,0,-1
EndSplineSet
Validated: 1
EndChar

StartChar: asterisk
Encoding: 42 42 13
Width: 1345
GlyphClass: 2
Flags: W
HStem: 1491 20G<866.379 1171>
DStem2: 632 478 932 478 0.224951 0.97437<67.4853 283.323 843.476 1060.29>
LayerCount: 2
Fore
SplineSet
871 1511 m 1,0,-1
 1171 1511 l 1,1,-1
 1107 1234 l 1,2,-1
 1364 1383 l 1,3,-1
 1454 1123 l 1,4,-1
 1182 994 l 1,5,-1
 1395 866 l 1,6,-1
 1185 606 l 1,7,-1
 996 754 l 1,8,-1
 932 478 l 1,9,-1
 632 478 l 1,10,-1
 696 754 l 1,11,-1
 440 606 l 1,12,-1
 350 866 l 1,13,-1
 621 994 l 1,14,-1
 409 1123 l 1,15,-1
 619 1383 l 1,16,-1
 807 1234 l 1,17,-1
 871 1511 l 1,0,-1
EndSplineSet
Validated: 1
EndChar

StartChar: plus
Encoding: 43 43 14
Width: 1333
GlyphClass: 2
Flags: W
HStem: 621 300<363 659 1029 1326>
VStem: 575 300<254 554> 813 300<988 1288>
DStem2: 575 254 875 254 0.224951 0.97437<67.4853 376.49 752.033 1061.04>
LayerCount: 2
Fore
SplineSet
813 1288 m 1,0,-1
 1113 1288 l 1,1,-1
 1029 921 l 1,2,-1
 1396 921 l 1,3,-1
 1326 621 l 1,4,-1
 959 621 l 1,5,-1
 875 254 l 1,6,-1
 575 254 l 1,7,-1
 659 621 l 1,8,-1
 293 621 l 1,9,-1
 363 921 l 1,10,-1
 729 921 l 1,11,-1
 813 1288 l 1,0,-1
EndSplineSet
Validated: 1
EndChar

StartChar: comma
Encoding: 44 44 15
Width: 756
GlyphClass: 2
Flags: W
HStem: -410 21G<242.211 400.5>
VStem: 268 349<-103.028 116.915>
LayerCount: 2
Fore
SplineSet
184 147 m 1,0,-1
 521 366 l 1,1,2
 617 251 617 251 617 105 c 0,3,4
 617 49 617 49 603 -12 c 0,5,6
 545 -266 545 -266 256 -410 c 1,7,-1
 125 -220 l 1,8,9
 233 -169 233 -169 262 -40 c 0,10,11
 268 -13 268 -13 268 12 c 0,12,13
 268 99 268 99 184 147 c 1,0,-1
EndSplineSet
Validated: 1
EndChar

StartChar: hyphen
Encoding: 45 45 16
Width: 1333
GlyphClass: 2
Flags: W
HStem: 621 300<363 1326>
LayerCount: 2
Fore
SplineSet
1326 621 m 1,0,-1
 293 621 l 1,1,-1
 363 921 l 1,2,-1
 1396 921 l 1,3,-1
 1326 621 l 1,0,-1
EndSplineSet
Validated: 1
EndChar

StartChar: period
Encoding: 46 46 17
Width: 702
GlyphClass: 2
Flags: W
HStem: -20 405<303.666 484.937>
VStem: 186 413<93.6506 268.02>
LayerCount: 2
Fore
SplineSet
593 177 m 0,0,1
 575 100 575 100 505 40 c 128,-1,2
 435 -20 435 -20 346 -20 c 0,3,4
 261 -20 261 -20 216 41 c 0,5,6
 186 82 186 82 186 134 c 0,7,8
 186 157 186 157 192 182 c 0,9,10
 212 266 212 266 282 324 c 0,11,12
 355 385 355 385 440 385 c 0,13,14
 527 385 527 385 569 327 c 0,15,16
 599 286 599 286 599 233 c 0,17,18
 599 206 599 206 593 177 c 0,0,1
EndSplineSet
Validated: 1
EndChar

StartChar: slash
Encoding: 47 47 18
Width: 1418
GlyphClass: 2
Flags: W
VStem: -32 345<-183 162> 1452 345<1342 1687>
DStem2: -32 -183 313 -183 0.621625 0.783315<214.461 2387.29>
LayerCount: 2
Fore
SplineSet
-32 -183 m 1,0,-1
 1452 1687 l 1,1,-1
 1797 1687 l 1,2,-1
 313 -183 l 1,3,-1
 -32 -183 l 1,0,-1
EndSplineSet
Validated: 1
EndChar

StartChar: zero
Encoding: 48 48 19
Width: 1909
GlyphClass: 2
Flags: W
HStem: -20 273<739.634 1175.83> 1258 273<1078.23 1517.51>
VStem: 233 368<384.504 751.114> 1656 369<761.475 1123.93>
LayerCount: 2
Fore
SplineSet
858 -20 m 0,0,1
 507 -20 507 -20 335 188 c 0,2,3
 233 311 233 311 233 492 c 0,4,5
 233 578 233 578 256 676 c 0,6,7
 348 1066 348 1066 733 1328 c 0,8,9
 1032 1531 1032 1531 1399 1531 c 0,10,11
 1746 1531 1746 1531 1922 1323 c 0,12,13
 2025 1201 2025 1201 2025 1019 c 0,14,15
 2025 933 2025 933 2002 835 c 0,16,17
 1910 442 1910 442 1525 182 c 0,18,19
 1226 -20 1226 -20 858 -20 c 0,0,1
921 253 m 0,20,21
 1158 253 1158 253 1353 391 c 0,22,23
 1574 547 1574 547 1640 829 c 0,24,25
 1656 897 1656 897 1656 956 c 0,26,27
 1656 1063 1656 1063 1603 1138 c 0,28,29
 1518 1258 1518 1258 1336 1258 c 0,30,31
 1085 1258 1085 1258 905 1120 c 0,32,33
 677 945 677 945 617 682 c 0,34,35
 601 612 601 612 601 553 c 0,36,37
 601 445 601 445 654 373 c 0,38,39
 742 254 742 254 921 253 c 0,20,21
EndSplineSet
Validated: 1
EndChar

StartChar: one
Encoding: 49 49 20
Width: 855
GlyphClass: 2
Flags: W
HStem: 0 21G<255 609.619> 1211 300<354 535>
VStem: 255 350<0 350>
DStem2: 255 0 605 0 0.224951 0.97437<78.7329 1242.95>
LayerCount: 2
Fore
SplineSet
255 0 m 1,0,-1
 535 1211 l 1,1,-1
 285 1211 l 1,2,-1
 354 1511 l 1,3,-1
 954 1511 l 1,4,-1
 605 0 l 1,5,-1
 255 0 l 1,0,-1
EndSplineSet
Validated: 1
EndChar

StartChar: two
Encoding: 50 50 21
Width: 1513
GlyphClass: 2
Flags: W
HStem: 0 300<652 1362> 1257 274<897.631 1192.75>
VStem: 1254 360<975.42 1198.94>
LayerCount: 2
Fore
SplineSet
203 0 m 1,0,1
 152 48 152 48 152 116 c 0,2,3
 152 137 152 137 157 161 c 0,4,5
 188 309 188 309 317 390 c 9,6,-1
 1080 862 l 17,7,8
 1227 955 1227 955 1249 1058 c 0,9,10
 1254 1081 1254 1081 1254 1102 c 0,11,12
 1254 1150 1254 1150 1224 1185 c 0,13,14
 1160 1257 1160 1257 1055 1257 c 0,15,16
 937 1257 937 1257 833 1169 c 0,17,18
 747 1096 747 1096 670 969 c 1,19,-1
 411 1132 l 1,20,21
 544 1293 544 1293 705 1394 c 0,22,23
 923 1531 923 1531 1125 1531 c 0,24,25
 1400 1531 1400 1531 1528 1372 c 0,26,27
 1614 1265 1614 1265 1614 1134 c 0,28,29
 1614 1083 1614 1083 1601 1029 c 0,30,31
 1540 776 1540 776 1262 625 c 0,32,33
 1004 485 1004 485 652 300 c 1,34,-1
 1431 300 l 1,35,-1
 1362 0 l 1,36,-1
 203 0 l 1,0,1
EndSplineSet
Validated: 1
EndChar

StartChar: three
Encoding: 51 51 22
Width: 1552
GlyphClass: 2
Flags: W
HStem: -20 266<621.972 931.793> 831 278<902 1129.49> 1260 271<999.245 1285>
VStem: 1186 369<507.148 781.072>
LayerCount: 2
Fore
SplineSet
197 419 m 9,0,1
 566 544 l 1,2,3
 562 506 562 506 562 472 c 0,4,5
 562 246 562 246 750 246 c 0,6,7
 896 246 896 246 1017 344 c 0,8,9
 1144 447 1144 447 1175 577 c 0,10,11
 1186 623 1186 623 1186 661 c 0,12,13
 1186 723 1186 723 1157 763 c 0,14,15
 1108 831 1108 831 1001 831 c 2,16,-1
 838 831 l 1,17,-1
 902 1109 l 1,18,-1
 977 1109 l 2,19,20
 1083 1109 1083 1109 1131 1140 c 0,21,22
 1172 1167 1172 1167 1180 1202 c 0,23,24
 1186 1231 1186 1231 1164 1246 c 0,25,26
 1144 1260 1144 1260 1106 1260 c 0,27,28
 1062 1260 1062 1260 1018 1230 c 0,29,30
 978 1203 978 1203 939 1143 c 1,31,-1
 708 1301 l 1,32,33
 939 1531 939 1531 1196 1531 c 0,34,35
 1374 1531 1374 1531 1461 1449 c 0,36,37
 1529 1385 1529 1385 1529 1293 c 0,38,39
 1529 1261 1529 1261 1521 1225 c 0,40,41
 1494 1103 1494 1103 1363 1015 c 1,42,43
 1445 982 1445 982 1495 911 c 0,44,45
 1555 826 1555 826 1555 714 c 0,46,47
 1555 662 1555 662 1541 602 c 0,48,49
 1482 346 1482 346 1208 155 c 0,50,51
 957 -20 957 -20 690 -20 c 0,52,53
 242 -20 242 -20 197 419 c 9,0,1
EndSplineSet
Validated: 1
EndChar

StartChar: four
Encoding: 52 52 23
Width: 1518
GlyphClass: 2
Flags: W
HStem: 0 21G<918 1272.62> 218 300<632 968> 1491 20G<1140 1617>
DStem2: 918 0 1268 0 0.224951 0.97437<78.7329 223.66 531.718 1236.65>
LayerCount: 2
Fore
SplineSet
918 0 m 1,0,-1
 968 218 l 1,1,-1
 130 218 l 1,2,3
 363 723 363 723 693 1056 c 0,4,5
 959 1325 959 1325 1321 1511 c 1,6,-1
 1617 1511 l 1,7,-1
 1268 0 l 1,8,-1
 918 0 l 1,0,-1
632 518 m 1,9,-1
 1038 518 l 1,10,-1
 1196 1205 l 1,11,12
 1032 1085 1032 1085 893 923 c 0,13,14
 752 758 752 758 632 518 c 1,9,-1
EndSplineSet
Validated: 1
EndChar

StartChar: five
Encoding: 53 53 24
Width: 1552
GlyphClass: 2
Flags: W
HStem: -20 266<621.619 936.562> 839 267<904.539 1138.47> 1211 300<960 1545>
VStem: 1187 369<512.096 789.977>
LayerCount: 2
Fore
SplineSet
197 419 m 0,0,1
 566 544 l 1,2,3
 562 506 562 506 562 472 c 0,4,5
 562 246 562 246 750 246 c 0,6,7
 901 246 901 246 1017 344 c 0,8,9
 1147 454 1147 454 1175 577 c 0,10,11
 1187 630 1187 630 1187 672 c 0,12,13
 1187 731 1187 731 1160 771 c 0,14,15
 1112 839 1112 839 1004 839 c 0,16,17
 839 839 839 839 718 712 c 1,18,-1
 408 712 l 1,19,-1
 733 1511 l 1,20,-1
 1614 1511 l 1,21,-1
 1545 1211 l 1,22,-1
 960 1211 l 1,23,-1
 901 1083 l 1,24,25
 994 1106 994 1106 1085 1106 c 0,26,27
 1370 1106 1370 1106 1498 919 c 0,28,29
 1556 834 1556 834 1556 722 c 0,30,31
 1556 665 1556 665 1541 602 c 0,32,33
 1480 344 1480 344 1208 155 c 0,34,35
 956 -20 956 -20 689 -20 c 0,36,37
 243 -20 243 -20 197 419 c 0,0,1
EndSplineSet
Validated: 1
EndChar

StartChar: six
Encoding: 54 54 25
Width: 1643
GlyphClass: 2
Flags: W
HStem: -20 270<701.734 1041.05> 834 272<964.791 1223.48> 1257 274<1130.66 1531.73>
VStem: 272 361<317.251 599.868> 1281 365<505.939 776.827>
LayerCount: 2
Fore
SplineSet
1759 1489 m 1,0,1
 1503 1242 l 1,2,3
 1429 1257 1429 1257 1375 1257 c 0,4,5
 1255 1257 1255 1257 1134 1226 c 0,6,7
 983 1187 983 1187 846 1056 c 0,8,9
 800 1012 800 1012 763 957 c 1,10,11
 996 1106 996 1106 1176 1106 c 0,12,13
 1436 1106 1436 1106 1560 958 c 0,14,15
 1646 855 1646 855 1646 718 c 0,16,17
 1646 661 1646 661 1631 598 c 0,18,19
 1585 396 1585 396 1393 224 c 0,20,21
 1120 -20 1120 -20 766 -20 c 0,22,23
 503 -20 503 -20 378 130 c 0,24,25
 272 257 272 257 272 443 c 0,26,27
 272 529 272 529 295 628 c 0,28,29
 377 980 377 980 628 1199 c 0,30,31
 842 1386 842 1386 1061 1464 c 0,32,33
 1249 1531 1249 1531 1452 1531 c 0,34,35
 1640 1531 1640 1531 1759 1489 c 1,0,1
838 250 m 0,36,37
 1016 250 1016 250 1135 357 c 0,38,39
 1243 454 1243 454 1273 586 c 0,40,41
 1281 621 1281 621 1281 652 c 0,42,43
 1281 713 1281 713 1250 760 c 0,44,45
 1201 834 1201 834 1086 834 c 0,46,47
 933 834 933 834 808 743 c 0,48,49
 675 646 675 646 642 511 c 0,50,51
 633 472 633 472 633 441 c 0,52,53
 633 370 633 370 673 322 c 0,54,55
 732 250 732 250 838 250 c 0,36,37
EndSplineSet
Validated: 1
EndChar

StartChar: seven
Encoding: 55 55 26
Width: 1313
GlyphClass: 2
Flags: W
HStem: 0 21G<150 655> 1211 300<399 1120>
VStem: 150 382<0 382>
LayerCount: 2
Fore
SplineSet
150 0 m 1,0,1
 542 342 542 342 817 631 c 0,2,3
 1056 882 1056 882 1109 1116 c 0,4,5
 1119 1160 1119 1160 1120 1211 c 1,6,-1
 330 1211 l 1,7,-1
 399 1511 l 1,8,-1
 1459 1511 l 1,9,10
 1505 1430 1505 1430 1505 1325 c 0,11,12
 1505 1261 1505 1261 1487 1185 c 0,13,14
 1408 845 1408 845 1057 488 c 0,15,16
 778 205 778 205 532 0 c 1,17,-1
 150 0 l 1,0,1
EndSplineSet
Validated: 1
EndChar

StartChar: eight
Encoding: 56 56 27
Width: 1494
GlyphClass: 2
Flags: W
HStem: -20 263<607.876 936.22> 827 257<944.6 1122.42> 1266 265<974.606 1268.5>
VStem: 193 358<300.891 558.195> 578 352<1100.57 1221.65> 1169 348<1125.94 1251.4> 1190 351<480.167 760.843>
LayerCount: 2
Fore
SplineSet
995 827 m 0,0,1
 815 827 815 827 697 720 c 0,2,3
 589 622 589 622 559 491 c 0,4,5
 551 456 551 456 551 425 c 0,6,7
 551 364 551 364 582 317 c 0,8,9
 631 243 631 243 747 243 c 0,10,11
 890 243 890 243 1015 334 c 0,12,13
 1148 431 1148 431 1181 566 c 0,14,15
 1190 605 1190 605 1190 636 c 0,16,17
 1190 708 1190 708 1150 756 c 0,18,19
 1091 827 1091 827 995 827 c 0,0,1
667 -20 m 0,20,21
 384 -20 384 -20 269 125 c 0,22,23
 193 221 193 221 193 349 c 0,24,25
 193 407 193 407 208 469 c 0,26,27
 255 663 255 663 439 824 c 0,28,29
 520 895 520 895 614 943 c 1,30,31
 578 994 578 994 578 1059 c 0,32,33
 578 1091 578 1091 586 1123 c 0,34,35
 627 1316 627 1316 864 1454 c 0,36,37
 996 1531 996 1531 1188 1531 c 0,38,39
 1349 1531 1349 1531 1444 1440 c 16,40,41
 1517 1370 1517 1370 1517 1275 c 0,42,43
 1517 1244 1517 1244 1509 1211 c 0,44,45
 1478 1080 1478 1080 1368 989 c 1,46,47
 1452 942 1452 942 1500 864 c 0,48,49
 1541 798 1541 798 1541 701 c 0,50,51
 1541 637 1541 637 1523 560 c 0,52,53
 1474 350 1474 350 1248 180 c 0,54,55
 982 -20 982 -20 667 -20 c 0,20,21
1154 1252 m 0,56,57
 1136 1266 1136 1266 1098 1266 c 0,58,59
 1036 1266 1036 1266 992 1236 c 0,60,61
 941 1202 941 1202 930 1150 c 0,62,63
 923 1118 923 1118 944 1100 c 0,64,65
 963 1084 963 1084 1006 1084 c 0,66,67
 1066 1084 1066 1084 1110 1115 c 0,68,69
 1159 1149 1159 1149 1169 1196 c 0,70,71
 1177 1233 1177 1233 1154 1252 c 0,56,57
EndSplineSet
Validated: 1
EndChar

StartChar: nine
Encoding: 57 57 28
Width: 1643
GlyphClass: 2
Flags: W
HStem: -20 274<460.273 861.344> 405 272<768.52 1027.21> 1261 270<950.947 1290.27>
VStem: 346 365<734.173 1005.06> 1359 361<911.132 1193.75>
LayerCount: 2
Fore
SplineSet
233 22 m 1,0,1
 489 269 l 1,2,3
 563 254 563 254 617 254 c 0,4,5
 737 254 737 254 858 285 c 0,6,7
 1009 324 1009 324 1146 455 c 0,8,9
 1192 499 1192 499 1229 554 c 1,10,11
 996 405 996 405 816 405 c 0,12,13
 556 405 556 405 432 553 c 0,14,15
 346 656 346 656 346 793 c 0,16,17
 346 850 346 850 361 913 c 0,18,19
 407 1115 407 1115 599 1287 c 0,20,21
 872 1531 872 1531 1226 1531 c 0,22,23
 1489 1531 1489 1531 1614 1381 c 0,24,25
 1720 1254 1720 1254 1720 1068 c 0,26,27
 1720 982 1720 982 1697 883 c 0,28,29
 1615 531 1615 531 1364 312 c 0,30,31
 1150 125 1150 125 931 47 c 0,32,33
 743 -20 743 -20 540 -20 c 0,34,35
 352 -20 352 -20 233 22 c 1,0,1
1154 1261 m 0,36,37
 976 1261 976 1261 857 1154 c 0,38,39
 749 1057 749 1057 719 925 c 0,40,41
 711 890 711 890 711 859 c 0,42,43
 711 798 711 798 742 751 c 0,44,45
 791 677 791 677 906 677 c 0,46,47
 1059 677 1059 677 1184 768 c 0,48,49
 1317 865 1317 865 1350 1000 c 0,50,51
 1359 1039 1359 1039 1359 1070 c 0,52,53
 1359 1141 1359 1141 1319 1189 c 0,54,55
 1260 1261 1260 1261 1154 1261 c 0,36,37
EndSplineSet
Validated: 1
EndChar

StartChar: colon
Encoding: 58 58 29
Width: 702
GlyphClass: 2
Flags: W
HStem: -20 405<303.666 484.937> 567 405<438.666 619.937>
VStem: 186 542
LayerCount: 2
Fore
SplineSet
728 764 m 0,0,1
 710 687 710 687 640 627 c 128,-1,2
 570 567 570 567 481 567 c 0,3,4
 396 567 396 567 351 628 c 0,5,6
 321 669 321 669 321 721 c 0,7,8
 321 744 321 744 327 769 c 0,9,10
 347 853 347 853 417 911 c 0,11,12
 490 972 490 972 575 972 c 0,13,14
 662 972 662 972 704 914 c 0,15,16
 734 873 734 873 734 820 c 0,17,18
 734 793 734 793 728 764 c 0,0,1
593 177 m 0,19,20
 575 100 575 100 505 40 c 128,-1,21
 435 -20 435 -20 346 -20 c 0,22,23
 261 -20 261 -20 216 41 c 0,24,25
 186 82 186 82 186 134 c 0,26,27
 186 157 186 157 192 182 c 0,28,29
 212 266 212 266 282 324 c 0,30,31
 355 385 355 385 440 385 c 0,32,33
 527 385 527 385 569 327 c 0,34,35
 599 286 599 286 599 233 c 0,36,37
 599 206 599 206 593 177 c 0,19,20
EndSplineSet
Validated: 1
EndChar

StartChar: semicolon
Encoding: 59 59 30
Width: 756
GlyphClass: 2
Flags: W
HStem: -410 21G<242.211 400.5> 567 405<438.666 619.937>
VStem: 268 349<-103.028 116.915>
LayerCount: 2
Fore
SplineSet
184 147 m 1,0,-1
 521 366 l 1,1,2
 617 251 617 251 617 105 c 0,3,4
 617 49 617 49 603 -12 c 0,5,6
 545 -266 545 -266 256 -410 c 1,7,-1
 125 -220 l 1,8,9
 233 -169 233 -169 262 -40 c 0,10,11
 268 -13 268 -13 268 12 c 0,12,13
 268 99 268 99 184 147 c 1,0,-1
728 764 m 0,14,15
 710 687 710 687 640 627 c 128,-1,16
 570 567 570 567 481 567 c 0,17,18
 396 567 396 567 351 628 c 0,19,20
 321 669 321 669 321 721 c 0,21,22
 321 744 321 744 327 769 c 0,23,24
 347 853 347 853 417 911 c 0,25,26
 490 972 490 972 575 972 c 0,27,28
 662 972 662 972 704 914 c 0,29,30
 734 873 734 873 734 820 c 0,31,32
 734 793 734 793 728 764 c 0,14,15
EndSplineSet
Validated: 1
EndChar

StartChar: less
Encoding: 60 60 31
Width: 1356
GlyphClass: 2
Flags: W
DStem2: 712 785 297 638 0.828075 -0.560617<0 658.755> 357 897 712 785 0.889071 0.45777<264.35 1066.77>
LayerCount: 2
Fore
SplineSet
297 638 m 1,0,-1
 357 897 l 1,1,-1
 1499 1485 l 1,2,-1
 1423 1157 l 1,3,-1
 712 785 l 1,4,-1
 1255 412 l 1,5,-1
 1167 49 l 1,6,-1
 297 638 l 1,0,-1
EndSplineSet
Validated: 1
EndChar

StartChar: equal
Encoding: 61 61 32
Width: 1333
GlyphClass: 2
Flags: W
HStem: 370 300<305 1268> 864 300<419 1382>
LayerCount: 2
Fore
SplineSet
1268 370 m 1,0,-1
 235 370 l 1,1,-1
 305 670 l 1,2,-1
 1338 670 l 1,3,-1
 1268 370 l 1,0,-1
349 864 m 1,4,-1
 419 1164 l 1,5,-1
 1452 1164 l 1,6,-1
 1382 864 l 1,7,-1
 349 864 l 1,4,-1
EndSplineSet
Validated: 1
EndChar

StartChar: greater
Encoding: 62 62 33
Width: 1356
GlyphClass: 2
Flags: W
DStem2: 287 377 211 49 0.889071 0.45777<0 802.42> 543 1485 455 1122 0.828075 -0.560617<130.633 789.388>
LayerCount: 2
Fore
SplineSet
1413 896 m 1,0,-1
 1353 637 l 1,1,-1
 211 49 l 1,2,-1
 287 377 l 1,3,-1
 998 749 l 1,4,-1
 455 1122 l 1,5,-1
 543 1485 l 1,6,-1
 1413 896 l 1,0,-1
EndSplineSet
Validated: 1
EndChar

StartChar: question
Encoding: 63 63 34
Width: 1546
GlyphClass: 2
Flags: W
HStem: -20 405<667.666 848.937> 1257 274<931.347 1232.5>
VStem: 1289 359<951.008 1201.17>
LayerCount: 2
Fore
SplineSet
957 177 m 0,0,1
 939 100 939 100 869 40 c 128,-1,2
 799 -20 799 -20 710 -20 c 0,3,4
 625 -20 625 -20 580 41 c 0,5,6
 550 82 550 82 550 134 c 0,7,8
 550 157 550 157 556 182 c 0,9,10
 576 266 576 266 646 324 c 0,11,12
 719 385 719 385 804 385 c 0,13,14
 891 385 891 385 933 327 c 0,15,16
 963 286 963 286 963 233 c 0,17,18
 963 206 963 206 957 177 c 0,0,1
395 1063 m 1,19,20
 557 1285 557 1285 753 1407 c 0,21,22
 952 1531 952 1531 1173 1531 c 0,23,24
 1451 1531 1451 1531 1573 1372 c 0,25,26
 1648 1274 1648 1274 1648 1147 c 0,27,28
 1648 1092 1648 1092 1634 1031 c 0,29,30
 1580 794 1580 794 1256 607 c 1,31,-1
 971 437 l 1,32,-1
 668 437 l 1,33,34
 680 489 680 489 717 531 c 0,35,36
 740 557 740 557 825 617 c 2,37,-1
 1122 825 l 2,38,39
 1252 916 1252 916 1282 1036 c 0,40,41
 1289 1064 1289 1064 1289 1090 c 0,42,43
 1289 1141 1289 1141 1263 1179 c 0,44,45
 1212 1257 1212 1257 1090 1257 c 0,46,47
 980 1257 980 1257 869 1173 c 0,48,49
 737 1073 737 1073 654 900 c 1,50,-1
 395 1063 l 1,19,20
EndSplineSet
Validated: 1
EndChar

StartChar: at
Encoding: 64 64 35
Width: 1867
GlyphClass: 2
Flags: W
HStem: -410 264<692.488 1117.37> -20 255<954.5 1248.54> 0 21G<1316 1671.6> 597 128<1183.65 1307.79> 846 274<1043.32 1417.53>
VStem: 192 363<-12.3887 349.688> 740 335<192.5 438.586> 1462 348<460.402 801.654>
LayerCount: 2
Fore
SplineSet
1667 0 m 1,0,-1
 1316 0 l 1,1,-1
 1339 98 l 1,2,3
 1284 39 1284 39 1225 12 c 0,4,5
 1155 -20 1155 -20 1030 -20 c 0,6,7
 879 -20 879 -20 800 71 c 0,8,9
 740 140 740 140 740 245 c 0,10,11
 740 291 740 291 752 347 c 0,12,13
 792 517 792 517 954 630 c 0,14,15
 1091 725 1091 725 1232 725 c 0,16,17
 1368 725 1368 725 1379 599 c 1,18,19
 1312 599 1312 599 1286 597 c 0,20,21
 1220 592 1220 592 1156 532 c 0,22,23
 1101 481 1101 481 1080 392 c 0,24,25
 1075 371 1075 371 1075 351 c 0,26,27
 1075 308 1075 308 1098 276 c 0,28,29
 1126 235 1126 235 1194 235 c 0,30,31
 1275 235 1275 235 1344 324 c 0,32,33
 1412 412 1412 412 1447 558 c 0,34,35
 1462 621 1462 621 1462 671 c 0,36,37
 1462 734 1462 734 1439 775 c 0,38,39
 1401 846 1401 846 1262 846 c 24,40,41
 1041 846 1041 846 839 694 c 0,42,43
 624 533 624 533 572 302 c 0,44,45
 555 227 555 227 555 163 c 0,46,47
 555 45 555 45 615 -36 c 0,48,49
 698 -146 698 -146 889 -146 c 0,50,51
 1032 -146 1032 -146 1168 -79 c 1,52,-1
 1362 -244 l 1,53,54
 1129 -410 1129 -410 818 -410 c 0,55,56
 466 -410 466 -410 300 -210 c 0,57,58
 192 -80 192 -80 192 101 c 0,59,60
 192 179 192 179 212 268 c 0,61,62
 295 638 295 638 687 903 c 0,63,64
 1007 1120 1007 1120 1340 1120 c 0,65,66
 1628 1120 1628 1120 1740 952 c 0,67,68
 1810 847 1810 847 1810 701 c 0,69,70
 1810 620 1810 620 1788 526 c 2,71,-1
 1667 0 l 1,0,-1
EndSplineSet
Validated: 1
EndChar

StartChar: A
Encoding: 65 65 36
Width: 1767
GlyphClass: 2
Flags: W
HStem: 0 21G<5 354.074 1401.94 1762> 621 300<974 1180> 1491 20G<1071.69 1384.07>
VStem: 5 335<0 335> 1407 355<0 355>
DStem2: 5 0 340 0 0.581849 0.813297<194.919 954.245 1312.86 1312.86> 1379 1511 1127 1136 0.245704 -0.969345<301.587 523.018 831.021 1471.56>
LayerCount: 2
Fore
SplineSet
5 0 m 1,0,-1
 1086 1511 l 1,1,-1
 1379 1511 l 1,2,-1
 1762 0 l 1,3,-1
 1407 0 l 1,4,-1
 1250 621 l 1,5,-1
 777 621 l 1,6,-1
 340 0 l 1,7,-1
 5 0 l 1,0,-1
1127 1136 m 1,8,-1
 974 921 l 1,9,-1
 1180 921 l 1,10,-1
 1127 1136 l 1,8,-1
EndSplineSet
Validated: 1
EndChar

StartChar: B
Encoding: 66 66 37
Width: 1602
GlyphClass: 2
Flags: W
HStem: -20 258<676.521 999.127> 0 21G<200 554.611> 1258 273<932.928 1230> 1491 20G<544.381 899>
VStem: 200 350<0 350> 1146 343<1130.54 1333> 1302 356<521.332 800.961>
DStem2: 195.383 -20 545.383 -20 0.224951 0.97437<99.2589 1310.33>
LayerCount: 2
Fore
SplineSet
200 0 m 1,0,-1
 549 1511 l 1,1,-1
 899 1511 l 1,2,-1
 889 1467 l 1,3,4
 1018 1531 1018 1531 1158 1531 c 0,5,6
 1302 1531 1302 1531 1396 1457 c 0,7,8
 1489 1384 1489 1384 1489 1282 c 0,9,10
 1489 1255 1489 1255 1483 1226 c 0,11,12
 1462 1140 1462 1140 1399 1067 c 1,13,14
 1524 1034 1524 1034 1591 939 c 128,-1,15
 1658 844 1658 844 1658 726 c 0,16,17
 1658 677 1658 677 1646 622 c 0,18,19
 1597 399 1597 399 1381 210 c 0,20,21
 1117 -20 1117 -20 773 -20 c 0,22,23
 665 -20 665 -20 643 63 c 0,24,25
 637 86 637 86 637 109 c 0,26,27
 637 130 637 130 642 153 c 0,28,29
 652 201 652 201 691 258 c 1,30,31
 732 238 732 238 797 238 c 0,32,33
 970 238 970 238 1131 363 c 0,34,35
 1255 460 1255 460 1293 619 c 0,36,37
 1302 657 1302 657 1302 689 c 0,38,39
 1302 749 1302 749 1268 792 c 0,40,41
 1217 852 1217 852 1117 852 c 0,42,43
 979 852 979 852 804 838 c 1,44,45
 907 895 907 895 1055 1031 c 0,46,47
 1125 1095 1125 1095 1143 1161 c 0,48,49
 1146 1172 1146 1172 1146 1182 c 0,50,51
 1146 1205 1146 1205 1129 1226 c 0,52,53
 1102 1258 1102 1258 1041 1258 c 0,54,55
 957 1258 957 1258 882 1186 c 128,-1,56
 807 1114 807 1114 784 1015 c 2,57,-1
 550 0 l 1,58,-1
 200 0 l 1,0,-1
EndSplineSet
Validated: 1
EndChar

StartChar: C
Encoding: 67 67 38
Width: 1781
GlyphClass: 2
Flags: W
HStem: -20 273<739.581 1176.08> 1258 273<1078.23 1517.51>
VStem: 233 368<387.823 751.235>
LayerCount: 2
Fore
SplineSet
1785 411 m 1,0,1
 1678 288 1678 288 1525 183 c 0,2,3
 1227 -20 1227 -20 858 -20 c 0,4,5
 507 -20 507 -20 335 188 c 0,6,7
 233 311 233 311 233 492 c 0,8,9
 233 578 233 578 256 676 c 0,10,11
 348 1066 348 1066 733 1328 c 0,12,13
 1032 1531 1032 1531 1399 1531 c 0,14,15
 1746 1531 1746 1531 1922 1323 c 0,16,17
 1960 1278 1960 1278 1984 1225 c 9,18,-1
 1645 1048 l 17,19,20
 1631 1099 1631 1099 1603 1138 c 0,21,22
 1518 1258 1518 1258 1336 1258 c 0,23,24
 1085 1258 1085 1258 905 1120 c 0,25,26
 678 946 678 946 617 682 c 0,27,28
 601 613 601 613 601 554 c 0,29,30
 601 445 601 445 655 372 c 0,31,32
 741 253 741 253 921 253 c 0,33,34
 1158 253 1158 253 1353 391 c 0,35,36
 1479 480 1479 480 1554 608 c 1,37,-1
 1785 411 l 1,0,1
EndSplineSet
Validated: 1
EndChar

StartChar: D
Encoding: 68 68 39
Width: 1792
GlyphClass: 2
Flags: W
HStem: -20 258<676.521 1026.05> 0 21G<200 554.608> 1257 274<1017.03 1415.87> 1491 20G<544.381 899>
VStem: 200 350<0 350> 1550 357<758.401 1130.27>
DStem2: 195.383 -20 545.383 -20 0.224951 0.97437<99.2589 1264.72>
LayerCount: 2
Fore
SplineSet
200 0 m 1,0,-1
 549 1511 l 1,1,-1
 899 1511 l 1,2,-1
 882 1436 l 1,3,4
 893 1442 893 1442 905 1447 c 0,5,6
 1108 1531 1108 1531 1302 1531 c 0,7,8
 1646 1531 1646 1531 1808 1320 c 0,9,10
 1907 1191 1907 1191 1907 1014 c 0,11,12
 1907 930 1907 930 1885 835 c 0,13,14
 1807 496 1807 496 1460 236 c 0,15,16
 1119 -20 1119 -20 773 -20 c 0,17,18
 665 -20 665 -20 643 63 c 0,19,20
 637 86 637 86 637 109 c 0,21,22
 637 130 637 130 642 153 c 0,23,24
 652 201 652 201 691 258 c 1,25,26
 732 238 732 238 797 238 c 0,27,28
 1021 238 1021 238 1231 397 c 0,29,30
 1476 583 1476 583 1534 831 c 0,31,32
 1550 900 1550 900 1550 959 c 0,33,34
 1550 1064 1550 1064 1502 1135 c 0,35,36
 1422 1257 1422 1257 1220 1257 c 0,37,38
 1061 1257 1061 1257 956 1199 c 0,39,40
 808 1117 808 1117 779 994 c 2,41,-1
 550 0 l 1,42,-1
 200 0 l 1,0,-1
EndSplineSet
Validated: 1
EndChar

StartChar: E
Encoding: 69 69 40
Width: 1781
GlyphClass: 2
Flags: W
HStem: -20 273<739.581 1176.08> 621 300<718 1410> 1258 273<1077.74 1517.51>
VStem: 233 368<387.904 619.388>
LayerCount: 2
Fore
SplineSet
1785 411 m 1,0,1
 1678 288 1678 288 1525 183 c 0,2,3
 1227 -20 1227 -20 858 -20 c 0,4,5
 507 -20 507 -20 335 188 c 0,6,7
 233 311 233 311 233 492 c 0,8,9
 233 578 233 578 256 676 c 0,10,11
 348 1066 348 1066 733 1328 c 0,12,13
 1032 1531 1032 1531 1399 1531 c 0,14,15
 1746 1531 1746 1531 1922 1323 c 0,16,17
 1960 1278 1960 1278 1984 1225 c 1,18,-1
 1645 1048 l 1,19,20
 1631 1099 1631 1099 1603 1138 c 0,21,22
 1518 1258 1518 1258 1336 1258 c 0,23,24
 1083 1258 1083 1258 905 1120 c 0,25,26
 790 1031 790 1031 718 921 c 1,27,-1
 1480 921 l 1,28,-1
 1410 621 l 1,29,-1
 606 621 l 1,30,31
 601 586 601 586 601 553 c 0,32,33
 601 446 601 446 655 372 c 0,34,35
 741 253 741 253 921 253 c 0,36,37
 1158 253 1158 253 1353 391 c 0,38,39
 1479 480 1479 480 1554 608 c 1,40,-1
 1785 411 l 1,0,1
EndSplineSet
Validated: 1
EndChar

StartChar: F
Encoding: 70 70 41
Width: 1514
GlyphClass: 2
Flags: W
HStem: 0 21G<200 554.605> 621 300<763 1263> 1255 276<1026.52 1320.64> 1491 20G<544.381 899>
VStem: 200 350<0 350>
DStem2: 200 0 550 0 0.224951 0.97437<78.7329 715.985 1024.04 1229.33 1532.97 1550.78>
LayerCount: 2
Fore
SplineSet
200 0 m 1,0,-1
 549 1511 l 1,1,-1
 899 1511 l 1,2,-1
 877 1417 l 1,3,4
 927 1445 927 1445 980 1468 c 0,5,6
 1125 1531 1125 1531 1275 1531 c 0,7,8
 1436 1531 1436 1531 1547 1455 c 0,9,10
 1677 1366 1677 1366 1740 1195 c 1,11,-1
 1392 1012 l 1,12,13
 1392 1140 1392 1140 1322 1210 c 0,14,15
 1276 1255 1276 1255 1186 1255 c 0,16,17
 1064 1255 1064 1255 946 1187 c 0,18,19
 805 1106 805 1106 768 943 c 2,20,-1
 763 921 l 1,21,-1
 1333 921 l 1,22,-1
 1263 621 l 1,23,-1
 693 621 l 1,24,-1
 550 0 l 1,25,-1
 200 0 l 1,0,-1
EndSplineSet
Validated: 1
EndChar

StartChar: G
Encoding: 71 71 42
Width: 1909
GlyphClass: 2
Flags: W
HStem: -20 273<739.581 1170.56> 621 300<1228 1561> 1258 273<1078.23 1517.51>
VStem: 233 368<387.908 751.235>
LayerCount: 2
Fore
SplineSet
2022 921 m 1,0,-1
 2002 835 l 2,1,2
 1912 447 1912 447 1525 183 c 0,3,4
 1227 -20 1227 -20 858 -20 c 0,5,6
 507 -20 507 -20 335 188 c 0,7,8
 233 311 233 311 233 492 c 0,9,10
 233 578 233 578 256 676 c 0,11,12
 348 1066 348 1066 733 1328 c 0,13,14
 1032 1531 1032 1531 1399 1531 c 0,15,16
 1746 1531 1746 1531 1922 1323 c 0,17,18
 1960 1278 1960 1278 1984 1225 c 9,19,-1
 1645 1048 l 17,20,21
 1631 1099 1631 1099 1603 1138 c 0,22,23
 1518 1258 1518 1258 1336 1258 c 0,24,25
 1085 1258 1085 1258 905 1120 c 0,26,27
 678 946 678 946 617 682 c 0,28,29
 601 613 601 613 601 554 c 0,30,31
 601 446 601 446 655 372 c 0,32,33
 741 253 741 253 921 253 c 0,34,35
 1157 253 1157 253 1353 391 c 0,36,37
 1485 484 1485 484 1561 621 c 1,38,-1
 1158 621 l 1,39,-1
 1228 921 l 1,40,-1
 2022 921 l 1,0,-1
EndSplineSet
Validated: 1
EndChar

StartChar: H
Encoding: 72 72 43
Width: 1722
GlyphClass: 2
Flags: W
HStem: 0 21G<200 554.605 1172 1526.62> 621 300<763 1315> 1491 20G<544.381 899 1516.39 1871>
VStem: 200 350<0 350> 549 350<1161 1511> 1172 350<0 350> 1521 350<1161 1511>
DStem2: 200 0 550 0 0.224951 0.97437<78.7329 715.985 1024.04 1550.78> 1172 0 1522 0 0.224951 0.97437<78.7329 637.252 945.309 1550.78>
LayerCount: 2
Fore
SplineSet
200 0 m 1,0,-1
 549 1511 l 1,1,-1
 899 1511 l 1,2,-1
 763 921 l 1,3,-1
 1385 921 l 1,4,-1
 1521 1511 l 1,5,-1
 1871 1511 l 1,6,-1
 1522 0 l 1,7,-1
 1172 0 l 1,8,-1
 1315 621 l 1,9,-1
 693 621 l 1,10,-1
 550 0 l 1,11,-1
 200 0 l 1,0,-1
EndSplineSet
Validated: 1
EndChar

StartChar: I
Encoding: 73 73 44
Width: 750
GlyphClass: 2
Flags: W
HStem: 0 21G<200 554.619> 1491 20G<544.381 899>
VStem: 200 350<0 350> 549 350<1161 1511>
DStem2: 200 0 550 0 0.224951 0.97437<78.7329 1550.78>
LayerCount: 2
Fore
SplineSet
200 0 m 1,0,-1
 549 1511 l 1,1,-1
 899 1511 l 1,2,-1
 550 0 l 1,3,-1
 200 0 l 1,0,-1
EndSplineSet
Validated: 1
EndChar

StartChar: J
Encoding: 74 74 45
Width: 1410
GlyphClass: 2
Flags: W
HStem: -20 273<453.576 748.968> 1211 300<769 1140>
DStem2: 855.628 -20 1205.78 -20 0.224951 0.97437<538.127 1263.42>
LayerCount: 2
Fore
SplineSet
65 193 m 1,0,1
 375 414 l 1,2,3
 438 253 438 253 572 253 c 0,4,5
 714 253 714 253 833 354 c 0,6,7
 968 469 968 469 1005 627 c 2,8,-1
 1140 1211 l 1,9,-1
 700 1211 l 1,10,-1
 769 1511 l 1,11,-1
 1558 1511 l 1,12,-1
 1366 674 l 2,13,14
 1298 380 1298 380 1000 149 c 0,15,16
 782 -20 782 -20 497 -20 c 0,17,18
 220 -20 220 -20 65 193 c 1,0,1
EndSplineSet
Validated: 1
EndChar

StartChar: K
Encoding: 75 75 46
Width: 1642
GlyphClass: 2
Flags: W
HStem: 0 21G<200 554.642 1143.68 1637> 1491 20G<544.381 899 1349 1725>
VStem: 200 350<0 350> 549 350<1161 1511> 1163 474<0 474> 1362 352<1046.73 1329.72 1334.97 1366.46 1371.53 1511> 1381 355<1103.24 1508.73>
DStem2: 200 0 550 0 0.224951 0.97437<78.7329 452.641 719.133 1550.78>
LayerCount: 2
Fore
SplineSet
200 0 m 1,0,-1
 549 1511 l 1,1,-1
 899 1511 l 1,2,-1
 694 624 l 1,3,4
 789 633 789 633 914 678 c 0,5,6
 1045 725 1045 725 1172 833 c 0,7,8
 1307 948 1307 948 1362 1179 c 0,9,10
 1381 1259 1381 1259 1381 1332 c 0,11,12
 1381 1427 1381 1427 1349 1511 c 1,13,-1
 1714 1511 l 1,14,15
 1736 1450 1736 1450 1736 1369 c 128,-1,16
 1736 1288 1736 1288 1714 1187 c 0,17,18
 1655 915 1655 915 1443 703 c 0,19,20
 1319 579 1319 579 1156 500 c 1,21,-1
 1637 0 l 1,22,-1
 1163 0 l 1,23,-1
 796 380 l 1,24,25
 714 356 714 356 631 349 c 1,26,-1
 550 0 l 1,27,-1
 200 0 l 1,0,-1
EndSplineSet
Validated: 1
EndChar

StartChar: L
Encoding: 76 76 47
Width: 1198
GlyphClass: 2
Flags: W
HStem: 0 300<619 1178> 1491 20G<544.381 899>
VStem: 549 350<1161 1511>
DStem2: 200 0 549.74 0 0.224951 0.97437<386.566 1550.78>
LayerCount: 2
Fore
SplineSet
200 0 m 1,0,-1
 549 1511 l 1,1,-1
 899 1511 l 1,2,-1
 619 300 l 1,3,-1
 1247 300 l 1,4,-1
 1178 0 l 1,5,-1
 200 0 l 1,0,-1
EndSplineSet
Validated: 1
EndChar

StartChar: M
Encoding: 77 77 48
Width: 2622
GlyphClass: 2
Flags: W
HStem: 0 21G<200 554.615 1136 1490.62 2072 2426.62> 1257 274<1051.36 1350.77 1980.93 2283.49> 1491 20G<544.381 899>
VStem: 200 350<0 350> 1136 350<0 350> 2072 350<0 350> 2323 358<1005.11 1199.96>
DStem2: 200 0 550 0 0.224951 0.97437<78.7329 1203.44 1527.88 1550.78> 1136 0 1486 0 0.224951 0.97437<78.7329 1142.97> 2072 0 2422 0 0.224951 0.97437<78.7329 1142.97>
LayerCount: 2
Fore
SplineSet
200 0 m 1,0,-1
 549 1511 l 1,1,-1
 899 1511 l 1,2,-1
 876 1412 l 1,3,4
 935 1443 935 1443 1002 1469 c 0,5,6
 1165 1531 1165 1531 1316 1531 c 0,7,8
 1544 1531 1544 1531 1668 1388 c 0,9,10
 1688 1365 1688 1365 1701 1339 c 1,11,12
 1819 1418 1819 1418 1934 1468 c 0,13,14
 2080 1531 2080 1531 2252 1531 c 0,15,16
 2483 1531 2483 1531 2604 1388 c 0,17,18
 2681 1297 2681 1297 2681 1172 c 0,19,20
 2681 1121 2681 1121 2668 1064 c 2,21,-1
 2422 0 l 1,22,-1
 2072 0 l 1,23,-1
 2315 1052 l 2,24,25
 2323 1087 2323 1087 2323 1116 c 0,26,27
 2323 1168 2323 1168 2297 1201 c 0,28,29
 2251 1257 2251 1257 2172 1257 c 0,30,31
 2010 1257 2010 1257 1879 1171 c 0,32,33
 1734 1076 1734 1076 1696 910 c 2,34,-1
 1486 0 l 1,35,-1
 1136 0 l 1,36,-1
 1379 1052 l 2,37,38
 1387 1087 1387 1087 1387 1116 c 0,39,40
 1387 1167 1387 1167 1361 1201 c 0,41,42
 1315 1257 1315 1257 1236 1257 c 0,43,44
 1074 1257 1074 1257 943 1171 c 0,45,46
 798 1076 798 1076 760 910 c 2,47,-1
 550 0 l 1,48,-1
 200 0 l 1,0,-1
EndSplineSet
Validated: 1
EndChar

StartChar: N
Encoding: 78 78 49
Width: 1721
GlyphClass: 2
Flags: W
HStem: 0 21G<200 554.615 1171 1525.62> 1257 274<1051.06 1377.89> 1491 20G<544.381 899>
VStem: 200 350<0 350> 1171 350<0 350> 1421 358<1004.88 1213.4>
DStem2: 200 0 550 0 0.224951 0.97437<78.7329 1203.08 1526.9 1550.78> 1171 0 1521 0 0.224951 0.97437<78.7329 1136.97>
LayerCount: 2
Fore
SplineSet
200 0 m 1,0,-1
 549 1511 l 1,1,-1
 899 1511 l 1,2,-1
 876 1411 l 1,3,4
 937 1444 937 1444 1001 1469 c 0,5,6
 1160 1531 1160 1531 1316 1531 c 0,7,8
 1572 1531 1572 1531 1695 1388 c 16,9,10
 1779 1290 1779 1290 1779 1163 c 0,11,12
 1779 1115 1779 1115 1767 1064 c 2,13,-1
 1521 0 l 1,14,-1
 1171 0 l 1,15,-1
 1414 1052 l 2,16,17
 1421 1083 1421 1083 1421 1110 c 0,18,19
 1421 1164 1421 1164 1391 1200 c 0,20,21
 1342 1257 1342 1257 1236 1257 c 0,22,23
 1077 1257 1077 1257 943 1170 c 0,24,25
 798 1076 798 1076 760 910 c 2,26,-1
 550 0 l 1,27,-1
 200 0 l 1,0,-1
EndSplineSet
Validated: 1
EndChar

StartChar: O
Encoding: 79 79 50
Width: 1909
GlyphClass: 2
Flags: W
HStem: -20 273<739.634 1175.83> 1258 273<1078.23 1517.51>
VStem: 233 368<384.504 751.114> 1656 369<761.475 1123.93>
LayerCount: 2
Fore
SplineSet
858 -20 m 0,0,1
 507 -20 507 -20 335 188 c 0,2,3
 233 311 233 311 233 492 c 0,4,5
 233 578 233 578 256 676 c 0,6,7
 348 1066 348 1066 733 1328 c 0,8,9
 1032 1531 1032 1531 1399 1531 c 0,10,11
 1746 1531 1746 1531 1922 1323 c 0,12,13
 2025 1201 2025 1201 2025 1019 c 0,14,15
 2025 933 2025 933 2002 835 c 0,16,17
 1910 442 1910 442 1525 182 c 0,18,19
 1226 -20 1226 -20 858 -20 c 0,0,1
921 253 m 0,20,21
 1158 253 1158 253 1353 391 c 0,22,23
 1574 547 1574 547 1640 829 c 0,24,25
 1656 897 1656 897 1656 956 c 0,26,27
 1656 1063 1656 1063 1603 1138 c 0,28,29
 1518 1258 1518 1258 1336 1258 c 0,30,31
 1085 1258 1085 1258 905 1120 c 0,32,33
 677 945 677 945 617 682 c 0,34,35
 601 612 601 612 601 553 c 0,36,37
 601 445 601 445 654 373 c 0,38,39
 742 254 742 254 921 253 c 0,20,21
EndSplineSet
Validated: 1
EndChar

StartChar: P
Encoding: 80 80 51
Width: 1600
GlyphClass: 2
Flags: W
HStem: 0 21G<200 554.626> 318 259<778.793 1076.88> 1257 274<1028.6 1321.42> 1491 20G<544.381 899>
VStem: 200 350<0 350> 1375 374<914.363 1204.86>
DStem2: 200 0 550 0 0.224951 0.97437<78.7329 1174.95 1533.95 1550.78>
LayerCount: 2
Fore
SplineSet
200 0 m 1,0,-1
 549 1511 l 1,1,-1
 899 1511 l 1,2,-1
 877 1418 l 1,3,4
 927 1446 927 1446 981 1468 c 0,5,6
 1132 1531 1132 1531 1281 1531 c 0,7,8
 1527 1531 1527 1531 1668 1366 c 0,9,10
 1749 1271 1749 1271 1749 1136 c 0,11,12
 1749 1075 1749 1075 1733 1009 c 0,13,14
 1657 674 1657 674 1334 464 c 0,15,16
 1110 318 1110 318 875 318 c 0,17,18
 768 318 768 318 745 401 c 0,19,20
 739 423 739 423 739 447 c 0,21,22
 739 468 739 468 744 491 c 0,23,24
 754 539 754 539 793 596 c 1,25,26
 839 577 839 577 901 577 c 0,27,28
 1037 577 1037 577 1173 682 c 0,29,30
 1324 799 1324 799 1361 961 c 0,31,32
 1375 1022 1375 1022 1375 1071 c 0,33,34
 1375 1129 1375 1129 1356 1168 c 0,35,36
 1313 1257 1313 1257 1197 1257 c 0,37,38
 1064 1257 1064 1257 937 1157 c 0,39,40
 791 1042 791 1042 751 869 c 2,41,-1
 550 0 l 1,42,-1
 200 0 l 1,0,-1
EndSplineSet
Validated: 1
EndChar

StartChar: Q
Encoding: 81 81 52
Width: 1909
GlyphClass: 2
Flags: W
HStem: -20 273<739.872 1146.29> 0 21G<1353.93 1796> 1258 273<1078.23 1517.51>
VStem: 233 368<384.504 751.114> 1656 369<758.151 1123.93>
LayerCount: 2
Fore
SplineSet
1796 0 m 1,0,-1
 1369 0 l 1,1,-1
 1317 69 l 1,2,3
 1103 -20 1103 -20 858 -20 c 0,4,5
 507 -20 507 -20 335 188 c 0,6,7
 233 311 233 311 233 492 c 0,8,9
 233 578 233 578 256 676 c 0,10,11
 348 1066 348 1066 733 1328 c 0,12,13
 1032 1531 1032 1531 1399 1531 c 0,14,15
 1746 1531 1746 1531 1922 1323 c 0,16,17
 2025 1201 2025 1201 2025 1019 c 0,18,19
 2025 934 2025 934 2002 835 c 0,20,21
 1921 488 1921 488 1611 245 c 1,22,-1
 1796 0 l 1,0,-1
1444 467 m 1,23,24
 1589 610 1589 610 1640 829 c 0,25,26
 1656 898 1656 898 1656 956 c 0,27,28
 1656 1063 1656 1063 1603 1138 c 0,29,30
 1518 1258 1518 1258 1336 1258 c 0,31,32
 1085 1258 1085 1258 905 1120 c 0,33,34
 677 945 677 945 617 682 c 0,35,36
 601 612 601 612 601 553 c 0,37,38
 601 445 601 445 654 373 c 0,39,40
 743 253 743 253 921 253 c 0,41,42
 1039 253 1039 253 1151 289 c 1,43,-1
 897 626 l 1,44,-1
 1324 626 l 1,45,-1
 1444 467 l 1,23,24
EndSplineSet
Validated: 1
EndChar

StartChar: R
Encoding: 82 82 53
Width: 1687
GlyphClass: 2
Flags: W
HStem: 0 21G<200 554.626 1188.2 1637> 1257 274<1028.07 1321.56> 1491 20G<544.381 899>
VStem: 200 350<0 350> 1203 434<0 434> 1375 374<911.851 1204.4>
DStem2: 200 0 550 0 0.224951 0.97437<78.7329 1174.95 1533.95 1550.78>
LayerCount: 2
Fore
SplineSet
200 0 m 1,0,-1
 549 1511 l 1,1,-1
 899 1511 l 1,2,-1
 877 1418 l 1,3,4
 925 1444 925 1444 981 1468 c 0,5,6
 1128 1531 1128 1531 1281 1531 c 0,7,8
 1529 1531 1529 1531 1668 1366 c 0,9,10
 1749 1270 1749 1270 1749 1135 c 0,11,12
 1749 1075 1749 1075 1733 1009 c 0,13,14
 1652 654 1652 654 1296 441 c 1,15,-1
 1637 0 l 1,16,-1
 1203 0 l 1,17,-1
 762 596 l 1,18,19
 808 577 808 577 901 577 c 0,20,21
 1044 577 1044 577 1176 682 c 0,22,23
 1324 800 1324 800 1361 961 c 0,24,25
 1375 1022 1375 1022 1375 1071 c 0,26,27
 1375 1129 1375 1129 1356 1168 c 0,28,29
 1313 1257 1313 1257 1197 1257 c 0,30,31
 1064 1257 1064 1257 937 1157 c 0,32,33
 791 1042 791 1042 751 869 c 2,34,-1
 550 0 l 1,35,-1
 200 0 l 1,0,-1
EndSplineSet
Validated: 1
EndChar

StartChar: S
Encoding: 83 83 54
Width: 1698
GlyphClass: 2
Flags: W
HStem: -20 273<654.328 1038.65> 1114 21G<1398 1447.54> 1257 274<1040.84 1357.39>
VStem: 573 361<948 1161.3> 1374 376<516.185 801>
DStem2: 982 1056 845 722 0.980812 -0.194956<-55.6285 475.739>
LayerCount: 2
Fore
SplineSet
164 362 m 1,0,-1
 496 525 l 1,1,2
 578 253 578 253 816 253 c 0,3,4
 1011 253 1011 253 1194 382 c 0,5,6
 1352 494 1352 494 1372 572 c 0,7,8
 1374 580 1374 580 1374 587 c 0,9,10
 1374 614 1374 614 1330 625 c 9,11,-1
 845 722 l 1,12,13
 685 753 685 753 618 846 c 0,14,15
 573 908 573 908 573 988 c 0,16,17
 573 1024 573 1024 582 1063 c 0,18,19
 626 1254 626 1254 830 1387 c 0,20,21
 1051 1531 1051 1531 1302 1531 c 0,22,23
 1605 1531 1605 1531 1733 1315 c 1,24,-1
 1416 1114 l 1,25,26
 1380 1257 1380 1257 1218 1257 c 0,27,28
 1128 1257 1128 1257 1035 1211 c 128,-1,29
 942 1165 942 1165 935 1114 c 0,30,31
 934 1107 934 1107 934 1101 c 0,32,33
 934 1066 934 1066 982 1056 c 2,34,-1
 1470 959 l 17,35,36
 1750 905 1750 905 1750 697 c 0,37,38
 1750 657 1750 657 1739 611 c 0,39,40
 1679 359 1679 359 1345 150 c 0,41,42
 1074 -20 1074 -20 742 -20 c 0,43,44
 291 -20 291 -20 164 362 c 1,0,-1
EndSplineSet
Validated: 1
EndChar

StartChar: T
Encoding: 84 84 55
Width: 1310
GlyphClass: 2
Flags: W
HStem: 0 21G<480 834.624> 1211 300<369 760 1110 1570>
VStem: 480 350<0 350>
DStem2: 480 0 830 0 0.224951 0.97437<78.7329 1242.95>
LayerCount: 2
Fore
SplineSet
480 0 m 1,0,-1
 760 1211 l 1,1,-1
 300 1211 l 1,2,-1
 369 1511 l 1,3,-1
 1639 1511 l 1,4,-1
 1570 1211 l 1,5,-1
 1110 1211 l 1,6,-1
 830 0 l 1,7,-1
 480 0 l 1,0,-1
EndSplineSet
Validated: 1
EndChar

StartChar: U
Encoding: 85 85 56
Width: 1721
GlyphClass: 2
Flags: W
HStem: -20 274<691.391 1019.43> 0 21G<1171 1525.62> 1491 20G<544.376 899 1515.38 1870>
VStem: 291 358<297.603 506.122> 549 350<1161 1511> 1520 350<1161 1511>
DStem2: 195.185 -20 545.414 -20 0.224951 0.97437<513.12 1571.35> 1166.38 -20 1516.38 -20 0.224951 0.97437<99.2589 123.137 446.851 1571.31>
LayerCount: 2
Fore
SplineSet
1521 0 m 1,0,-1
 1171 0 l 1,1,-1
 1194 100 l 1,2,3
 1131 67 1131 67 1069 42 c 0,4,5
 912 -20 912 -20 753 -20 c 0,6,7
 495 -20 495 -20 374 123 c 16,8,9
 291 221 291 221 291 348 c 0,10,11
 291 396 291 396 303 447 c 2,12,-1
 549 1511 l 1,13,-1
 899 1511 l 1,14,-1
 656 459 l 2,15,16
 649 428 649 428 649 401 c 0,17,18
 649 347 649 347 679 311 c 0,19,20
 728 254 728 254 834 254 c 0,21,22
 994 254 994 254 1127 341 c 0,23,24
 1271 435 1271 435 1310 601 c 2,25,-1
 1520 1511 l 1,26,-1
 1870 1511 l 1,27,-1
 1521 0 l 1,0,-1
EndSplineSet
Validated: 1
EndChar

StartChar: V
Encoding: 86 86 57
Width: 1767
GlyphClass: 2
Flags: W
HStem: 0 21G<731.93 1044.31> 1491 20G<354 711.063 1762.7 2111>
VStem: 354 352<1159 1511> 1777 334<1177 1511>
DStem2: 706 1511 354 1511 0.245704 -0.969345<0 1140.89> 986 405 1030 0 0.581849 0.813297<0 1359.75>
LayerCount: 2
Fore
SplineSet
737 0 m 1,0,-1
 354 1511 l 1,1,-1
 706 1511 l 1,2,-1
 986 405 l 1,3,-1
 1777 1511 l 1,4,-1
 2111 1511 l 1,5,-1
 1030 0 l 1,6,-1
 737 0 l 1,0,-1
EndSplineSet
Validated: 1
EndChar

StartChar: W
Encoding: 87 87 58
Width: 2660
GlyphClass: 2
Flags: W
HStem: -20 274<697.157 993.716 1628.58 1971.12> 1491 20G<544.376 899 1480.38 1835 2070 2580.5>
VStem: 290 358<302.32 577.031> 549 350<1161 1511> 1485 350<1161 1511> 2417 357<754.599 1172.67>
DStem2: 195.185 -20 545.414 -20 0.224951 0.97437<511.921 1571.35> 1131.48 -20 1481.41 -20 0.224951 0.97437<506.069 1571.29>
LayerCount: 2
Fore
SplineSet
549 1511 m 1,0,-1
 899 1511 l 1,1,-1
 656 459 l 2,2,3
 648 427 648 427 648 400 c 0,4,5
 648 348 648 348 676 318 c 0,6,7
 734 254 734 254 846 254 c 0,8,9
 944 254 944 254 1082 336 c 0,10,11
 1235 427 1235 427 1270 580 c 2,12,-1
 1485 1511 l 1,13,-1
 1835 1511 l 1,14,-1
 1592 459 l 2,15,16
 1584 423 1584 423 1584 394 c 0,17,18
 1584 333 1584 333 1621 304 c 0,19,20
 1687 254 1687 254 1782 254 c 0,21,22
 1947 254 1947 254 2104 382 c 0,23,24
 2336 571 2336 571 2400 827 c 0,25,26
 2417 895 2417 895 2417 961 c 0,27,28
 2417 1074 2417 1074 2367 1186 c 0,29,30
 2277 1384 2277 1384 2070 1511 c 1,31,-1
 2521 1511 l 1,32,33
 2640 1430 2640 1430 2717 1275 c 0,34,35
 2774 1160 2774 1160 2774 1019 c 0,36,37
 2774 931 2774 931 2751 828 c 0,38,39
 2655 421 2655 421 2230 149 c 0,40,41
 1966 -20 1966 -20 1693 -20 c 0,42,43
 1512 -20 1512 -20 1407 48 c 0,44,45
 1331 97 1331 97 1284 178 c 1,46,47
 1230 137 1230 137 1143 91 c 0,48,49
 936 -20 936 -20 757 -20 c 0,50,51
 509 -20 509 -20 375 122 c 16,52,53
 290 212 290 212 290 341 c 0,54,55
 290 391 290 391 303 447 c 2,56,-1
 549 1511 l 1,0,-1
EndSplineSet
Validated: 1
EndChar

StartChar: X
Encoding: 88 88 59
Width: 1688
GlyphClass: 2
Flags: W
HStem: 0 21G<5 413.711 1271.79 1678> 1491 20G<361 767.229 1625.25 2032>
VStem: 5 387<0 387> 361 394<1117 1511> 1284 394<0 394> 1647 385<1126 1511>
DStem2: 5 0 392 0 0.735851 0.677144<284.774 1061.12 1455.76 2231.43> 755 1511 361 1511 0.52129 -0.85338<0 615.358 949.007 1565.22>
LayerCount: 2
Fore
SplineSet
5 0 m 1,0,-1
 824 753 l 1,1,-1
 361 1511 l 1,2,-1
 755 1511 l 1,3,-1
 1076 986 l 1,4,-1
 1647 1511 l 1,5,-1
 2032 1511 l 1,6,-1
 1215 758 l 1,7,-1
 1678 0 l 1,8,-1
 1284 0 l 1,9,-1
 963 526 l 1,10,-1
 392 0 l 1,11,-1
 5 0 l 1,0,-1
EndSplineSet
Validated: 1
EndChar

StartChar: Y
Encoding: 89 89 60
Width: 1621
GlyphClass: 2
Flags: W
HStem: 0 21G<621 975.615> 1491 20G<354 721.71 1606.37 1965>
VStem: 354 361<1150 1511> 621 350<0 350> 1623 342<1169 1511>
DStem2: 715 1511 354 1511 0.320693 -0.947183<0 820.609> 976 733 1070 429 0.637378 0.770551<0 1011.87>
LayerCount: 2
Fore
SplineSet
621 0 m 1,0,-1
 720 430 l 1,1,-1
 354 1511 l 1,2,-1
 715 1511 l 1,3,-1
 976 733 l 1,4,-1
 1623 1511 l 1,5,-1
 1965 1511 l 1,6,-1
 1070 429 l 1,7,-1
 971 0 l 1,8,-1
 621 0 l 1,0,-1
EndSplineSet
Validated: 1
EndChar

StartChar: Z
Encoding: 90 90 61
Width: 1540
GlyphClass: 2
Flags: W
HStem: 0 300<139 247.536 758 1380> 1211 300<552 1280>
VStem: 1280 368<1057.73 1211>
LayerCount: 2
Fore
SplineSet
70 0 m 1,0,-1
 139 300 l 1,1,2
 850 563 850 563 1142 865 c 0,3,4
 1235 961 1235 961 1268 1098 c 0,5,6
 1280 1148 1280 1148 1280 1211 c 1,7,-1
 483 1211 l 1,8,-1
 552 1511 l 1,9,-1
 1608 1511 l 1,10,11
 1648 1423 1648 1423 1648 1311 c 0,12,13
 1648 1228 1648 1228 1626 1131 c 0,14,15
 1582 936 1582 936 1399 737 c 0,16,17
 1226 549 1226 549 758 300 c 1,18,-1
 1449 300 l 1,19,-1
 1380 0 l 1,20,-1
 70 0 l 1,0,-1
EndSplineSet
Validated: 1
EndChar

StartChar: bracketleft
Encoding: 91 91 62
Width: 1003
GlyphClass: 2
Flags: W
HStem: -289 300<553 886> 1518 300<900 1303>
DStem2: 133 -289 483.74 -289 0.224951 0.97437<386.79 1933.22>
LayerCount: 2
Fore
SplineSet
133 -289 m 1,0,-1
 620 1818 l 1,1,-1
 1373 1818 l 1,2,-1
 1303 1518 l 1,3,-1
 900 1518 l 1,4,-1
 553 11 l 1,5,-1
 956 11 l 1,6,-1
 886 -289 l 1,7,-1
 133 -289 l 1,0,-1
EndSplineSet
Validated: 1
EndChar

StartChar: backslash
Encoding: 92 92 63
Width: 1418
GlyphClass: 2
Flags: W
VStem: 399 345<1342 1687> 1021 345<-183 162>
DStem2: 744 1687 399 1687 0.315619 -0.948886<0 1861.84>
LayerCount: 2
Fore
SplineSet
399 1687 m 1,0,-1
 744 1687 l 1,1,-1
 1366 -183 l 1,2,-1
 1021 -183 l 1,3,-1
 399 1687 l 1,0,-1
EndSplineSet
Validated: 1
EndChar

StartChar: bracketright
Encoding: 93 93 64
Width: 1003
GlyphClass: 2
Flags: W
HStem: -289 300<53 456> 1518 300<470 803>
DStem2: 386.74 -289 736 -289 0.224951 0.97437<307.891 1854.32>
LayerCount: 2
Fore
SplineSet
-17 -289 m 1,0,-1
 53 11 l 1,1,-1
 456 11 l 1,2,-1
 803 1518 l 1,3,-1
 400 1518 l 1,4,-1
 470 1818 l 1,5,-1
 1223 1818 l 1,6,-1
 736 -289 l 1,7,-1
 -17 -289 l 1,0,-1
EndSplineSet
Validated: 1
EndChar

StartChar: asciicircum
Encoding: 94 94 65
Width: 1950
GlyphClass: 2
Flags: W
HStem: 838 673
VStem: 343 421<838 1259> 1556 437<838 1275>
DStem2: 343 838 764 838 0.787524 0.616284<331.548 956.245> 1445 1511 1263 1214 0.631416 -0.775444<115.389 591.961>
LayerCount: 2
Fore
SplineSet
343 838 m 1,0,-1
 1203 1511 l 1,1,-1
 1445 1511 l 1,2,-1
 1993 838 l 1,3,-1
 1556 838 l 1,4,-1
 1263 1214 l 1,5,-1
 764 838 l 1,6,-1
 343 838 l 1,0,-1
EndSplineSet
Validated: 1
EndChar

StartChar: underscore
Encoding: 95 95 66
Width: 1333
GlyphClass: 2
Flags: W
HStem: -410 300<125 1088>
LayerCount: 2
Fore
SplineSet
55 -410 m 1,0,-1
 125 -110 l 1,1,-1
 1158 -110 l 1,2,-1
 1088 -410 l 1,3,-1
 55 -410 l 1,0,-1
EndSplineSet
Validated: 1
EndChar

StartChar: grave
Encoding: 96 96 67
Width: 865
GlyphClass: 2
Flags: W
HStem: 914 597
VStem: 448 521
DStem2: 672 1511 448 1323 0.587583 -0.809164<20.5041 505.46>
LayerCount: 2
Fore
SplineSet
448 1323 m 1,0,-1
 672 1511 l 1,1,-1
 969 1102 l 1,2,-1
 743 914 l 1,3,-1
 448 1323 l 1,0,-1
EndSplineSet
Validated: 1
EndChar

StartChar: a
Encoding: 97 97 68
Width: 1447
GlyphClass: 2
Flags: W
HStem: -20 274<607.415 771.16> 0 21G<897 1251.62> 846 274<815.015 1160>
VStem: 200 363<296.87 586.652> 897 350<0 350> 918 15<341.253 358.32>
DStem2: 892.383 -20 1242.38 -20 0.224951 0.97437<99.2589 856.739>
LayerCount: 2
Fore
SplineSet
1247 0 m 1,0,-1
 897 0 l 1,1,-1
 1073 761 l 2,2,3
 1081 798 1081 798 1065 820 c 24,4,5
 1046 846 1046 846 1000 846 c 0,6,7
 868 846 868 846 761 771 c 0,8,9
 613 667 613 667 575 500 c 0,10,11
 563 447 563 447 563 407 c 0,12,13
 563 358 563 358 583 325 c 0,14,15
 629 254 629 254 717 254 c 0,16,17
 835 254 835 254 933 364 c 1,18,19
 928 328 928 328 918 283 c 0,20,21
 900 201 900 201 862 133 c 0,22,23
 777 -20 777 -20 641 -20 c 0,24,25
 386 -20 386 -20 277 136 c 0,26,27
 200 246 200 246 200 379 c 0,28,29
 200 436 200 436 214 495 c 0,30,31
 277 760 277 760 579 966 c 0,32,33
 805 1120 805 1120 1081 1120 c 0,34,35
 1239 1120 1239 1120 1337 1032 c 0,36,37
 1427 951 1427 951 1427 826 c 0,38,39
 1427 780 1427 780 1415 728 c 2,40,-1
 1247 0 l 1,0,-1
EndSplineSet
Validated: 1
EndChar

StartChar: b
Encoding: 98 98 69
Width: 1447
GlyphClass: 2
Flags: W
HStem: -20 274<541 886.235> 846 274<930.587 1093.53> 1491 20G<544.382 899>
VStem: 549 350<1161 1511> 768 15<741.824 758.747> 1138 363<513.49 804.426>
DStem2: 195.5 -20 545.118 -20 0.224951 0.97437<391.957 1571.28>
LayerCount: 2
Fore
SplineSet
549 1511 m 1,0,-1
 899 1511 l 1,1,-1
 628 339 l 2,2,3
 619 302 619 302 636 280 c 24,4,5
 656 254 656 254 701 254 c 0,6,7
 833 254 833 254 940 329 c 0,8,9
 1088 433 1088 433 1126 600 c 0,10,11
 1138 653 1138 653 1138 694 c 0,12,13
 1138 744 1138 744 1118 775 c 0,14,15
 1071 846 1071 846 984 846 c 0,16,17
 866 846 866 846 768 736 c 1,18,19
 773 773 773 773 783 817 c 0,20,21
 802 903 802 903 839 967 c 0,22,23
 927 1120 927 1120 1060 1120 c 0,24,25
 1317 1120 1317 1120 1424 964 c 0,26,27
 1501 852 1501 852 1501 720 c 0,28,29
 1501 664 1501 664 1487 605 c 0,30,31
 1424 341 1424 341 1122 134 c 0,32,33
 897 -20 897 -20 620 -20 c 0,34,35
 462 -20 462 -20 364 68 c 0,36,37
 274 149 274 149 274 274 c 0,38,39
 274 320 274 320 286 372 c 2,40,-1
 549 1511 l 1,0,-1
EndSplineSet
Validated: 1
EndChar

StartChar: c
Encoding: 99 99 70
Width: 1348
GlyphClass: 2
Flags: W
HStem: -20 274<612.523 936.179> 847 273<817.351 1226.64>
VStem: 199 366<301.992 586.22>
LayerCount: 2
Fore
SplineSet
1317 249 m 17,0,1
 1252 189 1252 189 1170 134 c 0,2,3
 937 -20 937 -20 667 -20 c 0,4,5
 412 -20 412 -20 279 136 c 0,6,7
 199 230 199 230 199 368 c 0,8,9
 199 433 199 433 216 503 c 0,10,11
 280 770 280 770 579 968 c 0,12,13
 809 1120 809 1120 1081 1120 c 128,-1,14
 1353 1120 1353 1120 1485 942 c 1,15,-1
 1174 742 l 1,16,17
 1139 847 1139 847 999 847 c 0,18,19
 860 847 860 847 752 763 c 0,20,21
 610 652 610 652 574 493 c 0,22,23
 565 453 565 453 565 420 c 0,24,25
 565 358 565 358 596 317 c 0,26,27
 644 254 644 254 748 254 c 0,28,29
 889 254 889 254 996 337 c 0,30,31
 1072 396 1072 396 1117 469 c 9,32,-1
 1317 249 l 17,0,1
EndSplineSet
Validated: 1
EndChar

StartChar: d
Encoding: 100 100 71
Width: 1447
GlyphClass: 2
Flags: W
HStem: -20 274<608.165 867.859> 0 21G<897 1251.62> 846 274<792.338 1032.9> 1491 20G<1241.37 1596>
VStem: 199 365<294.474 590.72> 1246 350<1161 1511>
DStem2: 892.383 -20 1242.38 -20 0.224951 0.97437<379.677 1571.31>
LayerCount: 2
Fore
SplineSet
1247 0 m 1,0,-1
 897 0 l 1,1,-1
 907 45 l 1,2,3
 795 -20 795 -20 667 -20 c 0,4,5
 404 -20 404 -20 277 136 c 0,6,7
 199 232 199 232 199 368 c 0,8,9
 199 427 199 427 214 495 c 0,10,11
 278 783 278 783 571 976 c 0,12,13
 790 1120 790 1120 954 1120 c 0,14,15
 1077 1120 1077 1120 1077 1005 c 0,16,17
 1077 969 1077 969 1067 932 c 0,18,19
 1051 873 1051 873 1015 830 c 1,20,21
 985 846 985 846 958 846 c 0,22,23
 845 846 845 846 747 774 c 0,24,25
 618 679 618 679 576 502 c 0,26,27
 564 451 564 451 564 411 c 0,28,29
 564 354 564 354 587 320 c 0,30,31
 630 254 630 254 733 254 c 0,32,33
 829 254 829 254 904 327 c 0,34,35
 992 413 992 413 1016 517 c 2,36,-1
 1246 1511 l 1,37,-1
 1596 1511 l 1,38,-1
 1247 0 l 1,0,-1
EndSplineSet
Validated: 1
EndChar

StartChar: e
Encoding: 101 101 72
Width: 1348
GlyphClass: 2
Flags: W
HStem: -20 274<611.732 936.179> 434 250<670 994> 847 273<812.376 1226.64>
VStem: 199 366<301.75 433.364>
LayerCount: 2
Fore
SplineSet
1317 249 m 1,0,1
 1252 189 1252 189 1170 134 c 0,2,3
 937 -20 937 -20 667 -20 c 0,4,5
 412 -20 412 -20 279 136 c 0,6,7
 199 230 199 230 199 368 c 0,8,9
 199 427 199 427 216 503 c 0,10,11
 275 767 275 767 579 968 c 0,12,13
 808 1120 808 1120 1081 1120 c 0,14,15
 1353 1120 1353 1120 1485 942 c 1,16,-1
 1174 742 l 1,17,18
 1139 847 1139 847 999 847 c 0,19,20
 856 847 856 847 752 763 c 0,21,22
 706 726 706 726 670 684 c 1,23,-1
 1052 684 l 1,24,-1
 994 434 l 1,25,-1
 565 434 l 1,26,27
 565 363 565 363 596 317 c 0,28,29
 638 254 638 254 748 254 c 0,30,31
 889 254 889 254 996 337 c 0,32,33
 1072 396 1072 396 1117 469 c 1,34,-1
 1317 249 l 1,0,1
EndSplineSet
Validated: 1
EndChar

StartChar: f
Encoding: 102 102 73
Width: 1229
GlyphClass: 2
Flags: W
HStem: 0 21G<200 554.605> 621 300<327 343 763 1087> 1110 21G<1215.5 1264.55> 1258 273<932.479 1182.71>
VStem: 200 350<0 350>
DStem2: 200 0 550 0 0.224951 0.97437<78.7329 637.252 1024.04 1208.21>
LayerCount: 2
Fore
SplineSet
200 0 m 1,0,-1
 343 621 l 1,1,-1
 257 621 l 1,2,-1
 327 921 l 1,3,-1
 413 921 l 1,4,-1
 423 967 l 2,5,6
 470 1170 470 1170 693 1363 c 0,7,8
 887 1531 887 1531 1147 1531 c 0,9,10
 1434 1531 1434 1531 1551 1306 c 1,11,-1
 1232 1110 l 1,12,13
 1199 1258 1199 1258 1074 1258 c 0,14,15
 973 1258 973 1258 895 1183 c 0,16,17
 803 1094 803 1094 772 961 c 2,18,-1
 763 921 l 1,19,-1
 1157 921 l 1,20,-1
 1087 621 l 1,21,-1
 693 621 l 1,22,-1
 550 0 l 1,23,-1
 200 0 l 1,0,-1
EndSplineSet
Validated: 1
EndChar

StartChar: g
Encoding: 103 103 74
Width: 1447
GlyphClass: 2
Flags: W
HStem: -410 274<300.665 685.63> -20 274<607.757 770.413> 846 274<815.015 1160>
VStem: 200 363<296.87 586.652> 918 15<341.253 358.176>
DStem2: 802.084 -410 1152.08 -410 0.224951 0.97437<532.72 1257.06>
LayerCount: 2
Fore
SplineSet
42 -236 m 1,0,-1
 336 -27 l 1,1,2
 403 -136 403 -136 512 -136 c 0,3,4
 669 -136 669 -136 782 -35 c 24,5,6
 917 86 917 86 966 300 c 2,7,-1
 1073 761 l 2,8,9
 1081 798 1081 798 1065 820 c 0,10,11
 1046 846 1046 846 1000 846 c 0,12,13
 868 846 868 846 761 771 c 0,14,15
 613 667 613 667 575 500 c 0,16,17
 563 447 563 447 563 407 c 0,18,19
 563 356 563 356 583 325 c 0,20,21
 631 254 631 254 717 254 c 0,22,23
 835 254 835 254 933 364 c 1,24,25
 928 327 928 327 918 283 c 0,26,27
 899 197 899 197 862 133 c 0,28,29
 774 -20 774 -20 641 -20 c 0,30,31
 386 -20 386 -20 277 136 c 0,32,33
 200 246 200 246 200 379 c 0,34,35
 200 436 200 436 214 495 c 0,36,37
 277 760 277 760 579 966 c 0,38,39
 805 1120 805 1120 1081 1120 c 0,40,41
 1239 1120 1239 1120 1337 1032 c 0,42,43
 1427 951 1427 951 1427 826 c 0,44,45
 1427 780 1427 780 1415 728 c 2,46,-1
 1316 300 l 2,47,48
 1247 -1 1247 -1 991 -196 c 0,49,50
 710 -410 710 -410 431 -410 c 0,51,52
 187 -410 187 -410 42 -236 c 1,0,-1
EndSplineSet
Validated: 1
EndChar

StartChar: h
Encoding: 104 104 75
Width: 1532
GlyphClass: 2
Flags: W
HStem: 0 21G<200 554.61 982 1336.62> 832 288<909.841 1240.5> 1491 20G<544.381 899>
VStem: 200 350<0 350> 549 350<1161 1511> 982 350<0 350> 1151 361<591.062 888>
DStem2: 200 0 550 0 0.224951 0.97437<78.7329 814.715 1123.51 1550.78> 982 0 1332 0 0.224951 0.97437<78.7329 771.989>
LayerCount: 2
Fore
SplineSet
200 0 m 1,0,-1
 549 1511 l 1,1,-1
 899 1511 l 1,2,-1
 785 1018 l 1,3,4
 817 1035 817 1035 861 1055 c 0,5,6
 1003 1120 1003 1120 1166 1120 c 0,7,8
 1315 1120 1315 1120 1418 1032 c 0,9,10
 1512 952 1512 952 1512 824 c 0,11,12
 1512 779 1512 779 1500 728 c 2,13,-1
 1332 0 l 1,14,-1
 982 0 l 1,15,-1
 1144 700 l 2,16,17
 1151 731 1151 731 1151 754 c 0,18,19
 1151 789 1151 789 1134 807 c 0,20,21
 1110 832 1110 832 1066 832 c 0,22,23
 952 832 952 832 838 767 c 0,24,25
 710 694 710 694 680 564 c 2,26,-1
 550 0 l 1,27,-1
 200 0 l 1,0,-1
EndSplineSet
Validated: 1
EndChar

StartChar: i
Encoding: 105 105 76
Width: 750
GlyphClass: 2
Flags: W
HStem: 0 21G<569 720.643> 1080 20G<449.373 804> 1175 356<603.9 772.365>
VStem: 454 350<750 1100>
DStem2: 199.664 0 550.047 0 0.224951 0.97437<378.031 1129.02>
LayerCount: 2
Fore
SplineSet
862 1354 m 0,0,1
 844 1276 844 1276 781 1226 c 0,2,3
 717 1175 717 1175 646 1175 c 0,4,5
 573 1175 573 1175 535 1228 c 0,6,7
 509 1264 509 1264 509 1311 c 0,8,9
 509 1331 509 1331 514 1353 c 0,10,11
 530 1424 530 1424 592 1477 c 0,12,13
 655 1531 655 1531 728 1531 c 0,14,15
 797 1531 797 1531 840 1478 c 0,16,17
 867 1444 867 1444 867 1398 c 0,18,19
 867 1377 867 1377 862 1354 c 0,0,1
716 0 m 1,20,21
 422 0 422 0 336 63 c 0,22,23
 257 121 257 121 257 218 c 0,24,25
 257 248 257 248 265 283 c 2,26,-1
 454 1100 l 1,27,-1
 804 1100 l 1,28,-1
 620 303 l 2,29,30
 618 294 618 294 628 289 c 0,31,32
 645 280 645 280 781 280 c 1,33,-1
 716 0 l 1,20,21
EndSplineSet
Validated: 1
EndChar

StartChar: j
Encoding: 106 106 77
Width: 750
GlyphClass: 2
Flags: W
HStem: -410 280<-30 167.266> 1080 20G<449.379 804> 1175 356<603.9 772.365>
VStem: 454 350<750 1100>
DStem2: 105.389 -410 455.194 -410 0.224951 0.97437<297.38 1549.72>
LayerCount: 2
Fore
SplineSet
862 1354 m 0,0,1
 844 1276 844 1276 781 1226 c 0,2,3
 717 1175 717 1175 646 1175 c 0,4,5
 573 1175 573 1175 535 1228 c 0,6,7
 509 1264 509 1264 509 1311 c 0,8,9
 509 1331 509 1331 514 1353 c 0,10,11
 530 1424 530 1424 592 1477 c 0,12,13
 655 1531 655 1531 728 1531 c 0,14,15
 797 1531 797 1531 840 1478 c 0,16,17
 867 1444 867 1444 867 1398 c 0,18,19
 867 1377 867 1377 862 1354 c 0,0,1
-95 -410 m 1,20,-1
 -30 -130 l 1,21,22
 122 -130 122 -130 157 -98 c 0,23,24
 183 -74 183 -74 192 -34 c 2,25,-1
 454 1100 l 1,26,-1
 804 1100 l 1,27,-1
 542 -34 l 2,28,29
 506 -190 506 -190 371 -296 c 0,30,31
 226 -410 226 -410 -95 -410 c 1,20,-1
EndSplineSet
Validated: 1
EndChar

StartChar: k
Encoding: 107 107 78
Width: 1505
GlyphClass: 2
Flags: W
HStem: 0 21G<200 554.577 1008.68 1500> 1080 20G<1150 1518.5> 1491 20G<544.381 899>
VStem: 549 350<1161 1511> 1173 351<798.476 1098.53>
DStem2: 200 0 550 0 0.224951 0.97437<78.7329 299.494 573.349 1550.78>
LayerCount: 2
Fore
SplineSet
200 0 m 1,0,-1
 549 1511 l 1,1,-1
 899 1511 l 1,2,-1
 661 482 l 1,3,4
 858 511 858 511 995 626 c 0,5,6
 1126 736 1126 736 1163 901 c 0,7,8
 1173 946 1173 946 1173 987 c 0,9,10
 1173 1047 1173 1047 1150 1100 c 1,11,-1
 1513 1100 l 1,12,13
 1524 1059 1524 1059 1524 1010 c 0,14,15
 1524 957 1524 957 1510 890 c 0,16,17
 1468 701 1468 701 1328 557 c 0,18,19
 1231 457 1231 457 1131 384 c 1,20,-1
 1500 0 l 1,21,-1
 1028 0 l 1,22,-1
 800 236 l 1,23,24
 701 209 701 209 596 201 c 1,25,-1
 550 0 l 1,26,-1
 200 0 l 1,0,-1
EndSplineSet
Validated: 1
EndChar

StartChar: l
Encoding: 108 108 79
Width: 750
GlyphClass: 2
Flags: W
HStem: 0 21G<569 720.643> 1491 20G<544.375 899>
VStem: 549 350<1161 1511>
DStem2: 199.664 0 550.047 0 0.224951 0.97437<378.031 1550.86>
LayerCount: 2
Fore
SplineSet
716 0 m 1,0,1
 422 0 422 0 336 63 c 0,2,3
 257 121 257 121 257 218 c 0,4,5
 257 248 257 248 265 283 c 2,6,-1
 549 1511 l 1,7,-1
 899 1511 l 1,8,-1
 620 303 l 2,9,10
 618 294 618 294 628 289 c 0,11,12
 645 280 645 280 781 280 c 1,13,-1
 716 0 l 1,0,1
EndSplineSet
Validated: 1
EndChar

StartChar: m
Encoding: 109 109 80
Width: 2314
GlyphClass: 2
Flags: W
HStem: 0 21G<200 554.61 982 1336.61 1764 2118.62> 832 288<909.841 1238.5 1687.05 2022.5> 1080 20G<449.382 804>
VStem: 200 350<0 350> 982 350<0 350> 1764 350<0 350> 1934 360<591.062 888>
DStem2: 200 0 550 0 0.224951 0.97437<78.7329 814.715 1122.53 1128.94> 982 0 1332 0 0.224951 0.97437<78.7329 778.973> 1764 0 2114 0 0.224951 0.97437<78.7329 777.055>
LayerCount: 2
Fore
SplineSet
200 0 m 1,0,-1
 454 1100 l 1,1,-1
 804 1100 l 1,2,-1
 785 1017 l 1,3,4
 818 1035 818 1035 861 1055 c 0,5,6
 1003 1120 1003 1120 1166 1120 c 0,7,8
 1311 1120 1311 1120 1415 1020 c 0,9,10
 1444 992 1444 992 1463 958 c 1,11,12
 1550 1013 1550 1013 1668 1067 c 0,13,14
 1784 1120 1784 1120 1948 1120 c 0,15,16
 2097 1120 2097 1120 2200 1032 c 0,17,18
 2294 952 2294 952 2294 824 c 0,19,20
 2294 779 2294 779 2282 728 c 2,21,-1
 2114 0 l 1,22,-1
 1764 0 l 1,23,-1
 1926 700 l 2,24,25
 1934 735 1934 735 1934 759 c 0,26,27
 1934 790 1934 790 1921 804 c 8,28,29
 1895 832 1895 832 1848 832 c 0,30,31
 1734 832 1734 832 1620 767 c 0,32,33
 1492 694 1492 694 1462 564 c 2,34,-1
 1332 0 l 1,35,-1
 982 0 l 1,36,-1
 1144 700 l 2,37,38
 1152 736 1152 736 1152 761 c 0,39,40
 1152 783 1152 783 1145 796 c 8,41,42
 1126 832 1126 832 1066 832 c 0,43,44
 952 832 952 832 838 767 c 0,45,46
 710 694 710 694 680 564 c 2,47,-1
 550 0 l 1,48,-1
 200 0 l 1,0,-1
EndSplineSet
Validated: 1
EndChar

StartChar: n
Encoding: 110 110 81
Width: 1532
GlyphClass: 2
Flags: W
HStem: 0 21G<200 554.61 982 1336.62> 832 288<909.841 1240.5> 1080 20G<449.382 804>
VStem: 200 350<0 350> 982 350<0 350> 1151 361<591.062 888>
DStem2: 200 0 550 0 0.224951 0.97437<78.7329 814.715 1123.51 1128.94> 982 0 1332 0 0.224951 0.97437<78.7329 771.045>
LayerCount: 2
Fore
SplineSet
200 0 m 1,0,-1
 454 1100 l 1,1,-1
 804 1100 l 1,2,-1
 785 1018 l 1,3,4
 816 1034 816 1034 861 1055 c 0,5,6
 1003 1120 1003 1120 1166 1120 c 0,7,8
 1315 1120 1315 1120 1418 1032 c 0,9,10
 1512 952 1512 952 1512 824 c 0,11,12
 1512 779 1512 779 1500 728 c 2,13,-1
 1332 0 l 1,14,-1
 982 0 l 1,15,-1
 1144 700 l 2,16,17
 1151 731 1151 731 1151 753 c 0,18,19
 1151 788 1151 788 1134 805 c 0,20,21
 1107 832 1107 832 1066 832 c 0,22,23
 952 832 952 832 838 767 c 0,24,25
 710 694 710 694 680 564 c 2,26,-1
 550 0 l 1,27,-1
 200 0 l 1,0,-1
EndSplineSet
Validated: 1
EndChar

StartChar: o
Encoding: 111 111 82
Width: 1494
GlyphClass: 2
Flags: W
HStem: -20 274<612.655 936.811> 847 273<817.553 1135.86>
VStem: 199 366<301.992 586.518> 1183 366<508.061 799.731>
LayerCount: 2
Fore
SplineSet
667 -20 m 0,0,1
 412 -20 412 -20 279 136 c 0,2,3
 199 230 199 230 199 368 c 0,4,5
 199 430 199 430 216 503 c 0,6,7
 278 769 278 769 579 968 c 0,8,9
 809 1120 809 1120 1081 1120 c 0,10,11
 1336 1120 1336 1120 1469 964 c 0,12,13
 1549 870 1549 870 1549 732 c 0,14,15
 1549 669 1549 669 1532 597 c 0,16,17
 1473 335 1473 335 1171 134 c 0,18,19
 939 -20 939 -20 667 -20 c 0,0,1
748 254 m 0,20,21
 889 254 889 254 996 337 c 0,22,23
 1138 447 1138 447 1174 607 c 0,24,25
 1183 647 1183 647 1183 680 c 0,26,27
 1183 742 1183 742 1152 785 c 0,28,29
 1107 847 1107 847 999 847 c 0,30,31
 861 847 861 847 752 763 c 0,32,33
 611 654 611 654 574 493 c 0,34,35
 565 454 565 454 565 420 c 0,36,37
 565 358 565 358 596 317 c 0,38,39
 645 254 645 254 748 254 c 0,20,21
EndSplineSet
Validated: 1
EndChar

StartChar: p
Encoding: 112 112 83
Width: 1447
GlyphClass: 2
Flags: W
HStem: -410 21G<105 459.632> -20 274<668.096 908.662> 846 274<832.489 1097> 1080 20G<449.377 804>
VStem: 105 350<-410 -60> 1137 366<515.445 805.583>
DStem2: 105 -410 455 -410 0.224951 0.97437<78.7329 1269.24>
LayerCount: 2
Fore
SplineSet
454 1100 m 1,0,-1
 804 1100 l 1,1,-1
 794 1055 l 1,2,3
 906 1120 906 1120 1034 1120 c 0,4,5
 1297 1120 1297 1120 1424 964 c 0,6,7
 1503 867 1503 867 1503 733 c 0,8,9
 1503 672 1503 672 1487 605 c 0,10,11
 1417 313 1417 313 1130 124 c 0,12,13
 911 -20 911 -20 747 -20 c 0,14,15
 624 -20 624 -20 624 95 c 0,16,17
 624 127 624 127 634 168 c 0,18,19
 647 224 647 224 686 270 c 1,20,21
 716 254 716 254 743 254 c 0,22,23
 856 254 856 254 954 326 c 0,24,25
 1083 421 1083 421 1125 598 c 0,26,27
 1137 649 1137 649 1137 689 c 0,28,29
 1137 741 1137 741 1114 780 c 0,30,31
 1073 846 1073 846 968 846 c 0,32,33
 870 846 870 846 796 773 c 0,34,35
 709 687 709 687 685 583 c 2,36,-1
 455 -410 l 1,37,-1
 105 -410 l 1,38,-1
 454 1100 l 1,0,-1
EndSplineSet
Validated: 1
EndChar

StartChar: q
Encoding: 113 113 84
Width: 1452
GlyphClass: 2
Flags: W
HStem: -410 21G<802 1195> -20 274<607.757 770.413> -20 20G<1379.5 1442.36> 846 274<815.015 1160>
VStem: 200 363<296.87 586.652> 918 15<341.253 358.176>
DStem2: 802 -410 1152.51 -410 0.224951 0.97437<78.7329 164.484 347.74 1257.08>
LayerCount: 2
Fore
SplineSet
802 -410 m 1,0,-1
 1073 761 l 2,1,2
 1081 798 1081 798 1065 820 c 0,3,4
 1046 846 1046 846 1000 846 c 0,5,6
 868 846 868 846 761 771 c 0,7,8
 613 667 613 667 575 500 c 0,9,10
 563 447 563 447 563 407 c 0,11,12
 563 356 563 356 583 325 c 0,13,14
 631 254 631 254 717 254 c 0,15,16
 835 254 835 254 933 364 c 1,17,18
 928 327 928 327 918 283 c 0,19,20
 899 197 899 197 862 133 c 0,21,22
 774 -20 774 -20 641 -20 c 0,23,24
 386 -20 386 -20 277 136 c 0,25,26
 200 246 200 246 200 379 c 0,27,28
 200 436 200 436 214 495 c 0,29,30
 277 760 277 760 579 966 c 0,31,32
 805 1120 805 1120 1081 1120 c 0,33,34
 1239 1120 1239 1120 1337 1032 c 0,35,36
 1427 951 1427 951 1427 826 c 0,37,38
 1427 780 1427 780 1415 728 c 2,39,-1
 1213 -148 l 1,40,41
 1312 0 1312 0 1447 0 c 1,42,-1
 1383 -276 l 1,43,44
 1238 -276 1238 -276 1152 -410 c 1,45,-1
 802 -410 l 1,0,-1
EndSplineSet
Validated: 1
EndChar

StartChar: r
Encoding: 114 114 85
Width: 1231
GlyphClass: 2
Flags: W
HStem: 0 21G<200 554.61> 832 288<910.922 1258.32> 1080 20G<449.382 804>
VStem: 200 350<0 350>
DStem2: 200 0 550 0 0.224951 0.97437<78.7329 810.47 1123.51 1128.94>
LayerCount: 2
Fore
SplineSet
200 0 m 1,0,-1
 454 1100 l 1,1,-1
 804 1100 l 1,2,-1
 785 1018 l 1,3,4
 816 1034 816 1034 861 1055 c 0,5,6
 1003 1120 1003 1120 1166 1120 c 0,7,8
 1386 1120 1386 1120 1473 963 c 1,9,-1
 1188 762 l 1,10,11
 1144 832 1144 832 1066 832 c 0,12,13
 941 832 941 832 838 767 c 0,14,15
 708 685 708 685 680 564 c 2,16,-1
 550 0 l 1,17,-1
 200 0 l 1,0,-1
EndSplineSet
Validated: 1
EndChar

StartChar: s
Encoding: 115 115 86
Width: 1329
GlyphClass: 2
Flags: W
HStem: -20 273<557.977 888.192> 857 263<767.411 1112.77>
LayerCount: 2
Fore
SplineSet
149 297 m 9,0,1
 489 458 l 17,2,3
 506 253 506 253 694 253 c 0,4,5
 827 253 827 253 912 310 c 0,6,7
 968 348 968 348 976 384 c 128,-1,8
 984 420 984 420 952 426 c 2,9,-1
 596 493 l 2,10,11
 400 530 400 530 400 690 c 0,12,13
 400 724 400 724 409 765 c 8,14,15
 442 913 442 913 633 1026 c 0,16,17
 792 1120 792 1120 988 1120 c 0,18,19
 1232 1120 1232 1120 1352 955 c 9,20,-1
 1052 764 l 17,21,22
 1009 857 1009 857 902 857 c 0,23,24
 858 857 858 857 827 847 c 0,25,26
 766 827 766 827 759 797 c 0,27,28
 753 772 753 772 776 764 c 1,29,-1
 1078 705 l 1,30,31
 1334 652 1334 652 1334 484 c 0,32,33
 1334 457 1334 457 1327 426 c 0,34,35
 1283 233 1283 233 1071 106 c 0,36,37
 860 -20 860 -20 612 -20 c 0,38,39
 275 -20 275 -20 149 297 c 9,0,1
EndSplineSet
Validated: 1
EndChar

StartChar: t
Encoding: 116 116 87
Width: 895
GlyphClass: 2
Flags: W
HStem: 0 21G<606 757.643> 800 300<354 422 841 1060> 1491 20G<581.377 936>
VStem: 586 350<1161 1511>
DStem2: 236.664 0 587.047 0 0.224951 0.97437<378.031 821.188 1207.75 1550.86>
LayerCount: 2
Fore
SplineSet
753 0 m 1,0,1
 459 0 459 0 373 63 c 0,2,3
 294 121 294 121 294 218 c 0,4,5
 294 248 294 248 302 283 c 2,6,-1
 422 800 l 1,7,-1
 285 800 l 1,8,-1
 354 1100 l 1,9,-1
 491 1100 l 1,10,-1
 586 1511 l 1,11,-1
 936 1511 l 1,12,-1
 841 1100 l 1,13,-1
 1129 1100 l 1,14,-1
 1060 800 l 1,15,-1
 772 800 l 1,16,-1
 657 303 l 2,17,18
 655 294 655 294 665 289 c 0,19,20
 682 280 682 280 818 280 c 1,21,-1
 753 0 l 1,0,1
EndSplineSet
Validated: 1
EndChar

StartChar: u
Encoding: 117 117 88
Width: 1532
GlyphClass: 2
Flags: W
HStem: -20 288<545.5 876.159> 0 21G<982 1336.62> 1080 20G<449.385 804 1231.39 1586>
VStem: 274 361<212 508.938> 454 350<750 1100> 1236 350<750 1100>
DStem2: 195.5 -20 545.035 -20 0.224951 0.97437<457.162 1149.44> 977.383 -20 1327.38 -20 0.224951 0.97437<99.2589 104.698 413.488 1149.47>
LayerCount: 2
Fore
SplineSet
1332 0 m 1,0,-1
 982 0 l 1,1,-1
 1001 82 l 1,2,3
 970 66 970 66 925 45 c 0,4,5
 783 -20 783 -20 620 -20 c 0,6,7
 471 -20 471 -20 368 68 c 0,8,9
 274 148 274 148 274 276 c 0,10,11
 274 320 274 320 286 372 c 2,12,-1
 454 1100 l 1,13,-1
 804 1100 l 1,14,-1
 642 400 l 2,15,16
 635 370 635 370 635 347 c 0,17,18
 635 314 635 314 654 292 c 0,19,20
 675 268 675 268 720 268 c 0,21,22
 834 268 834 268 948 333 c 0,23,24
 1076 406 1076 406 1106 536 c 2,25,-1
 1236 1100 l 1,26,-1
 1586 1100 l 1,27,-1
 1332 0 l 1,0,-1
EndSplineSet
Validated: 1
EndChar

StartChar: v
Encoding: 118 118 89
Width: 1373
GlyphClass: 2
Flags: W
HStem: 0 21G<537.836 846.364> 1080 20G<259 616.229 1270.97 1622>
VStem: 259 352<748 1100> 1285 337<763 1100>
DStem2: 611 1100 259 1100 0.249985 -0.96825<0 723.522> 794 400 832 0 0.583332 0.812234<0 854.98>
LayerCount: 2
Fore
SplineSet
543 0 m 1,0,-1
 259 1100 l 1,1,-1
 611 1100 l 1,2,-1
 794 400 l 1,3,-1
 1285 1100 l 1,4,-1
 1622 1100 l 1,5,-1
 832 0 l 1,6,-1
 543 0 l 1,0,-1
EndSplineSet
Validated: 1
EndChar

StartChar: w
Encoding: 119 119 90
Width: 2279
GlyphClass: 2
Flags: W
HStem: -20 288<545.5 876.443 1326.5 1713.79> 1080 20G<449.385 804 1231.39 1586 1809 2236>
VStem: 274 361<212 508.938> 454 350<750 1100> 1236 350<750 1100> 1988 349<532.817 934.269>
DStem2: 195.5 -20 545.035 -20 0.224951 0.97437<457.132 1149.44> 977.637 -20 1327.04 -20 0.224951 0.97437<457.101 1149.41>
LayerCount: 2
Fore
SplineSet
454 1100 m 1,0,-1
 804 1100 l 1,1,-1
 642 400 l 2,2,3
 635 369 635 369 635 347 c 0,4,5
 635 312 635 312 652 295 c 0,6,7
 679 268 679 268 720 268 c 0,8,9
 834 268 834 268 948 333 c 0,10,11
 1076 406 1076 406 1106 536 c 2,12,-1
 1236 1100 l 1,13,-1
 1586 1100 l 1,14,-1
 1424 400 l 2,15,16
 1417 369 1417 369 1417 347 c 0,17,18
 1417 312 1417 312 1434 295 c 0,19,20
 1461 268 1461 268 1502 268 c 0,21,22
 1654 268 1654 268 1773 344 c 0,23,24
 1939 451 1939 451 1977 635 c 0,25,26
 1988 689 1988 689 1988 740 c 0,27,28
 1988 830 1988 830 1956 906 c 0,29,30
 1908 1024 1908 1024 1809 1100 c 1,31,-1
 2200 1100 l 1,32,33
 2272 1018 2272 1018 2304 925 c 0,34,35
 2337 829 2337 829 2337 740 c 0,36,37
 2337 683 2337 683 2324 630 c 0,38,39
 2264 364 2264 364 2018 179 c 0,40,41
 1753 -20 1753 -20 1402 -20 c 0,42,43
 1251 -20 1251 -20 1152 79 c 0,44,45
 1123 108 1123 108 1102 145 c 1,46,47
 1019 89 1019 89 925 45 c 0,48,49
 785 -20 785 -20 620 -20 c 0,50,51
 471 -20 471 -20 368 68 c 0,52,53
 274 148 274 148 274 276 c 0,54,55
 274 321 274 321 286 372 c 2,56,-1
 454 1100 l 1,0,-1
EndSplineSet
Validated: 1
EndChar

StartChar: x
Encoding: 120 120 91
Width: 1561
GlyphClass: 2
Flags: W
HStem: 0 21G<80 493.961 1056.77 1474> 1080 20G<343 760.212 1321.97 1735>
VStem: 80 391<0 391> 1345 390<710 1100>
DStem2: 80 0 471 0 0.754606 0.656179<295.051 798.996 1173.08 1676.37> 747 1100 343 1100 0.55137 -0.834261<0 395.505 698.889 1095.78>
LayerCount: 2
Fore
SplineSet
80 0 m 1,0,-1
 709 547 l 1,1,-1
 343 1100 l 1,2,-1
 747 1100 l 1,3,-1
 965 770 l 1,4,-1
 1345 1100 l 1,5,-1
 1735 1100 l 1,6,-1
 1108 554 l 1,7,-1
 1474 0 l 1,8,-1
 1070 0 l 1,9,-1
 851 331 l 1,10,-1
 471 0 l 1,11,-1
 80 0 l 1,0,-1
EndSplineSet
Validated: 1
EndChar

StartChar: y
Encoding: 121 121 92
Width: 1532
GlyphClass: 2
Flags: W
HStem: -410 273<386.883 769.839> -20 288<545.5 821.935> 1080 20G<449.385 804 1231.39 1586>
VStem: 274 361<212 508.938> 454 350<750 1100> 1236 350<750 1100>
DStem2: 105.461 -410 454.997 -410 0.224951 0.97437<857.421 1549.7> 887.599 -410 1237.08 -410 0.224951 0.97437<813.69 1549.67>
LayerCount: 2
Fore
SplineSet
127 -236 m 1,0,-1
 421 -27 l 1,1,2
 488 -137 488 -137 596 -137 c 0,3,4
 751 -137 751 -137 867 -35 c 0,5,6
 940 29 940 29 989 124 c 1,7,8
 802 -20 802 -20 620 -20 c 0,9,10
 471 -20 471 -20 368 68 c 0,11,12
 274 148 274 148 274 276 c 0,13,14
 274 320 274 320 286 372 c 2,15,-1
 454 1100 l 1,16,-1
 804 1100 l 1,17,-1
 642 400 l 2,18,19
 635 370 635 370 635 347 c 0,20,21
 635 312 635 312 654 293 c 0,22,23
 677 268 677 268 720 268 c 0,24,25
 834 268 834 268 948 333 c 0,26,27
 1076 406 1076 406 1106 536 c 2,28,-1
 1236 1100 l 1,29,-1
 1586 1100 l 1,30,-1
 1401 300 l 2,31,32
 1331 -2 1331 -2 1076 -196 c 0,33,34
 795 -410 795 -410 516 -410 c 0,35,36
 272 -410 272 -410 127 -236 c 1,0,-1
EndSplineSet
Validated: 1
EndChar

StartChar: z
Encoding: 122 122 93
Width: 1321
GlyphClass: 2
Flags: W
HStem: 0 300<139 306.345 705 1161> 800 300<432 991>
LayerCount: 2
Fore
SplineSet
70 0 m 1,0,-1
 139 300 l 1,1,2
 425 365 425 365 683 500 c 0,3,4
 956 642 956 642 987 768 c 0,5,6
 992 788 992 788 991 800 c 1,7,-1
 363 800 l 1,8,-1
 432 1100 l 1,9,-1
 1325 1100 l 1,10,11
 1362 1018 1362 1018 1362 929 c 0,12,13
 1362 879 1362 879 1350 825 c 0,14,15
 1290 575 1290 575 1005 420 c 0,16,17
 871 347 871 347 705 300 c 1,18,-1
 1230 300 l 1,19,-1
 1161 0 l 1,20,-1
 70 0 l 1,0,-1
EndSplineSet
Validated: 1
EndChar

StartChar: braceleft
Encoding: 123 123 94
Width: 1068
GlyphClass: 2
Flags: W
HStem: -287 300<733.811 952> 621 300<263 429> 1518 300<1059.4 1368>
VStem: 312 358<-20 304.031>
DStem2: 219.261 -287 564.952 -287 0.224951 0.97437<526.83 931.909 1239.97 1864.57>
LayerCount: 2
Fore
SplineSet
952 -287 m 1,0,1
 544 -287 544 -287 409 -174 c 0,2,3
 312 -93 312 -93 312 53 c 0,4,5
 312 113 312 113 328 184 c 2,6,-1
 429 621 l 1,7,-1
 193 621 l 1,8,-1
 263 921 l 1,9,-1
 499 921 l 1,10,-1
 597 1347 l 2,11,12
 653 1591 653 1591 843 1705 c 0,13,14
 1031 1818 1031 1818 1438 1818 c 1,15,-1
 1368 1518 l 1,16,17
 1120 1518 1120 1518 1015 1452 c 0,18,19
 958 1416 958 1416 940 1337 c 2,20,-1
 676 194 l 2,21,22
 670 169 670 169 670 149 c 0,23,24
 670 103 670 103 698 79 c 0,25,26
 772 13 772 13 1021 13 c 1,27,-1
 952 -287 l 1,0,1
EndSplineSet
Validated: 1
EndChar

StartChar: bar
Encoding: 124 124 95
Width: 803
GlyphClass: 2
Flags: W
VStem: 207 302<-186 116> 641 303<1392 1695>
DStem2: 207 -186 509 -186 0.224951 0.97437<67.9352 1930.42>
LayerCount: 2
Fore
SplineSet
207 -186 m 1,0,-1
 641 1695 l 1,1,-1
 944 1695 l 1,2,-1
 509 -186 l 1,3,-1
 207 -186 l 1,0,-1
EndSplineSet
Validated: 1
EndChar

StartChar: braceright
Encoding: 125 125 96
Width: 1068
GlyphClass: 2
Flags: W
HStem: -287 300<53 361.293> 621 300<995 1161> 1518 300<470 688.488>
VStem: 751 358<1228.52 1551>
DStem2: 370.952 -287 715.372 -287 0.224951 0.97437<371.961 1009.36 1317.42 1710.13>
LayerCount: 2
Fore
SplineSet
-16 -287 m 1,0,1
 53 13 l 1,2,3
 300 13 300 13 406 79 c 0,4,5
 464 115 464 115 482 194 c 2,6,-1
 746 1337 l 2,7,8
 751 1361 751 1361 751 1381 c 0,9,10
 751 1426 751 1426 723 1452 c 0,11,12
 647 1518 647 1518 400 1518 c 1,13,-1
 470 1818 l 1,14,15
 879 1818 879 1818 1013 1705 c 0,16,17
 1109 1624 1109 1624 1109 1478 c 0,18,19
 1109 1419 1109 1419 1093 1347 c 2,20,-1
 995 921 l 1,21,-1
 1231 921 l 1,22,-1
 1161 621 l 1,23,-1
 925 621 l 1,24,-1
 824 184 l 2,25,26
 767 -62 767 -62 577 -176 c 0,27,28
 392 -287 392 -287 -16 -287 c 1,0,1
EndSplineSet
Validated: 1
EndChar

StartChar: asciitilde
Encoding: 126 126 97
Width: 1589
GlyphClass: 2
Flags: W
HStem: 467 310<1068 1302.79> 759 310<640.787 876>
LayerCount: 2
Fore
SplineSet
530 468 m 1,0,-1
 302 659 l 1,1,2
 401 870 401 870 518 969 c 0,3,4
 636 1069 636 1069 797 1069 c 0,5,6
 955 1069 955 1069 1035 968 c 9,7,-1
 1155 818 l 17,8,9
 1187 777 1187 777 1219 777 c 24,10,11
 1335 777 1335 777 1414 1068 c 1,12,-1
 1641 877 l 1,13,14
 1543 666 1543 666 1426 567 c 0,15,16
 1308 467 1308 467 1147 467 c 0,17,18
 989 467 989 467 908 568 c 9,19,-1
 789 718 l 17,20,21
 756 759 756 759 724 759 c 24,22,23
 608 759 608 759 530 468 c 1,0,-1
EndSplineSet
Validated: 1
EndChar

StartChar: exclamdown
Encoding: 161 161 99
Width: 862
GlyphClass: 2
Flags: W
HStem: 0 21G<254 611.966> 1126 405<647.063 828.334>
LayerCount: 2
Fore
SplineSet
539 1334 m 0,0,1
 557 1411 557 1411 627 1471 c 128,-1,2
 697 1531 697 1531 786 1531 c 0,3,4
 871 1531 871 1531 916 1470 c 0,5,6
 946 1429 946 1429 946 1377 c 0,7,8
 946 1354 946 1354 940 1329 c 0,9,10
 920 1245 920 1245 850 1187 c 0,11,12
 777 1126 777 1126 692 1126 c 0,13,14
 605 1126 605 1126 563 1184 c 0,15,16
 533 1225 533 1225 533 1278 c 0,17,18
 533 1305 533 1305 539 1334 c 0,0,1
817 1054 m 1,19,-1
 608 0 l 1,20,-1
 254 0 l 1,21,-1
 530 1054 l 1,22,-1
 817 1054 l 1,19,-1
EndSplineSet
Validated: 1
EndChar

StartChar: cent
Encoding: 162 162 100
Width: 1348
GlyphClass: 2
Flags: W
VStem: 199 366<301.014 590.994>
DStem2: 559 -186 829 -186 0.224951 0.97437<60.7368 173.442 561.649 996.502 1399.03 1506.63>
LayerCount: 2
Fore
SplineSet
1317 249 m 1,0,1
 1253 189 1253 189 1170 134 c 0,2,3
 1028 40 1028 40 873 3 c 1,4,-1
 829 -186 l 1,5,-1
 559 -186 l 1,6,-1
 598 -17 l 1,7,8
 393 2 393 2 279 136 c 0,9,10
 199 230 199 230 199 368 c 0,11,12
 199 432 199 432 216 503 c 0,13,14
 276 769 276 769 579 968 c 0,15,16
 710 1054 710 1054 854 1092 c 1,17,-1
 898 1282 l 1,18,-1
 1168 1282 l 1,19,-1
 1130 1118 l 1,20,21
 1365 1103 1365 1103 1485 942 c 1,22,-1
 1174 742 l 1,23,24
 1148 819 1148 819 1066 840 c 1,25,-1
 942 302 l 1,26,27
 970 318 970 318 996 337 c 0,28,29
 1072 394 1072 394 1117 469 c 1,30,-1
 1317 249 l 1,0,1
664 268 m 1,31,-1
 783 785 l 1,32,33
 764 773 764 773 752 763 c 0,34,35
 608 646 608 646 574 493 c 0,36,37
 565 452 565 452 565 418 c 0,38,39
 565 358 565 358 595 317 c 0,40,41
 621 283 621 283 664 268 c 1,31,-1
EndSplineSet
Validated: 1
EndChar

StartChar: sterling
Encoding: 163 163 101
Width: 1336
GlyphClass: 2
Flags: W
HStem: 0 300<175 269 619 1256> 621 300<327 343 763 1087> 1110 21G<1215.5 1264.55> 1258 273<932.479 1182.71>
LayerCount: 2
Fore
SplineSet
106 0 m 1,0,-1
 175 300 l 1,1,-1
 269 300 l 1,2,-1
 343 621 l 1,3,-1
 257 621 l 1,4,-1
 327 921 l 1,5,-1
 413 921 l 1,6,-1
 423 967 l 2,7,8
 470 1170 470 1170 693 1363 c 0,9,10
 887 1531 887 1531 1147 1531 c 0,11,12
 1434 1531 1434 1531 1551 1306 c 1,13,-1
 1232 1110 l 1,14,15
 1199 1258 1199 1258 1074 1258 c 0,16,17
 973 1258 973 1258 895 1183 c 0,18,19
 803 1094 803 1094 772 961 c 2,20,-1
 763 921 l 1,21,-1
 1157 921 l 1,22,-1
 1087 621 l 1,23,-1
 693 621 l 1,24,-1
 619 300 l 1,25,-1
 1325 300 l 1,26,-1
 1256 0 l 1,27,-1
 106 0 l 1,0,-1
EndSplineSet
Validated: 1
EndChar

StartChar: currency
Encoding: 164 164 102
Width: 1885
GlyphClass: 2
Flags: W
HStem: -12 21G<292.541 338.287 1550.7 1594.7> 190 274<858.341 1180.14> 1057 273<1058.86 1379.6> 1503 20G<639.436 683.379 1893.72 1939.31>
VStem: 444 365<511.848 799.59> 1428 365<722.043 1010.02>
DStem2: 97 232 310 -12 0.816385 0.577508<32.9779 458.691 1815.79 2235.47> 666 1523 407 1328 0.654544 -0.756024<0 359.753 1387.22 1750.9>
LayerCount: 2
Fore
SplineSet
992 464 m 0,0,1
 1132 464 1132 464 1240 547 c 0,2,3
 1383 657 1383 657 1419 817 c 0,4,5
 1428 857 1428 857 1428 891 c 0,6,7
 1428 954 1428 954 1397 995 c 0,8,9
 1350 1057 1350 1057 1243 1057 c 0,10,11
 1105 1057 1105 1057 997 973 c 0,12,13
 855 863 855 863 818 703 c 0,14,15
 809 664 809 664 809 630 c 0,16,17
 809 568 809 568 840 527 c 0,18,19
 889 464 889 464 992 464 c 0,0,1
310 -12 m 1,20,-1
 97 232 l 1,21,-1
 454 484 l 1,22,23
 444 527 444 527 444 576 c 0,24,25
 444 640 444 640 461 713 c 0,26,27
 503 893 503 893 655 1042 c 1,28,-1
 407 1328 l 1,29,-1
 666 1523 l 1,30,-1
 918 1233 l 1,31,32
 1107 1330 1107 1330 1325 1330 c 0,33,34
 1471 1330 1471 1330 1577 1279 c 1,35,-1
 1922 1523 l 1,36,-1
 2134 1278 l 1,37,-1
 1784 1030 l 1,38,39
 1793 989 1793 989 1793 943 c 0,40,41
 1793 879 1793 879 1776 807 c 0,42,43
 1732 622 1732 622 1576 472 c 1,44,-1
 1827 182 l 1,45,-1
 1568 -12 l 1,46,-1
 1312 284 l 1,47,48
 1124 190 1124 190 912 190 c 0,49,50
 770 190 770 190 665 239 c 1,51,-1
 310 -12 l 1,20,-1
EndSplineSet
Validated: 1
EndChar

StartChar: yen
Encoding: 165 165 103
Width: 1711
GlyphClass: 2
Flags: W
HStem: 0 21G<666 1020.6> 348 270<367 702 1272 1567> 714 270<451 577 1574 1652> 1491 20G<399 766.692 1651.95 2010>
VStem: 399 361<1150 1511> 666 350<0 350> 1668 342<1169 1511>
DStem2: 1245 984 1574 984 0.637038 0.770833<209.585 675.696>
LayerCount: 2
Fore
SplineSet
666 0 m 1,0,-1
 746 348 l 1,1,-1
 304 348 l 1,2,-1
 367 618 l 1,3,-1
 702 618 l 1,4,-1
 669 714 l 1,5,-1
 389 714 l 1,6,-1
 451 984 l 1,7,-1
 577 984 l 1,8,-1
 399 1511 l 1,9,-1
 760 1511 l 1,10,-1
 936 985 l 1,11,-1
 1245 984 l 1,12,-1
 1668 1511 l 1,13,-1
 2010 1511 l 1,14,-1
 1574 984 l 1,15,-1
 1714 984 l 1,16,-1
 1652 714 l 1,17,-1
 1351 714 l 1,18,-1
 1272 618 l 1,19,-1
 1630 618 l 1,20,-1
 1567 348 l 1,21,-1
 1096 348 l 1,22,-1
 1016 0 l 1,23,-1
 666 0 l 1,0,-1
EndSplineSet
Validated: 1
EndChar

StartChar: brokenbar
Encoding: 166 166 104
Width: 802
GlyphClass: 2
Flags: W
VStem: 207 302<-186 116> 411 302<395 697> 437 302<812 1114> 641 302<1393 1695>
DStem2: 207 -186 509 -186 0.224951 0.97437<67.9352 906.259 1092.1 1930.42>
LayerCount: 2
Fore
SplineSet
207 -186 m 1,0,-1
 411 697 l 1,1,-1
 713 697 l 1,2,-1
 509 -186 l 1,3,-1
 207 -186 l 1,0,-1
437 812 m 1,4,-1
 641 1695 l 1,5,-1
 943 1695 l 1,6,-1
 739 812 l 1,7,-1
 437 812 l 1,4,-1
EndSplineSet
Validated: 1
EndChar

StartChar: section
Encoding: 167 167 105
Width: 1370
GlyphClass: 2
Flags: W
HStem: -20 263<520.101 865.589> 1268 263<853.294 1198.4>
LayerCount: 2
Fore
SplineSet
280 145 m 9,0,-1
 581 336 l 17,1,2
 624 243 624 243 731 243 c 0,3,4
 776 243 776 243 806 253 c 0,5,6
 867 273 867 273 874 303 c 0,7,8
 880 328 880 328 857 336 c 1,9,-1
 555 395 l 1,10,11
 299 448 299 448 299 615 c 0,12,13
 299 643 299 643 306 674 c 0,14,15
 330 779 330 779 402 864 c 9,16,-1
 721 790 l 17,17,18
 665 752 665 752 657 716 c 128,-1,19
 649 680 649 680 681 674 c 2,20,-1
 1037 607 l 2,21,22
 1233 570 1233 570 1233 410 c 0,23,24
 1233 376 1233 376 1224 335 c 8,25,26
 1191 187 1191 187 1000 74 c 0,27,28
 841 -20 841 -20 645 -20 c 0,29,30
 401 -20 401 -20 280 145 c 9,0,-1
1438 1366 m 9,31,-1
 1138 1175 l 17,32,33
 1095 1268 1095 1268 988 1268 c 0,34,35
 942 1268 942 1268 912 1258 c 0,36,37
 852 1238 852 1238 845 1208 c 0,38,39
 839 1183 839 1183 862 1175 c 1,40,-1
 1164 1116 l 1,41,42
 1420 1063 1420 1063 1420 896 c 0,43,44
 1420 868 1420 868 1413 837 c 0,45,46
 1389 732 1389 732 1316 647 c 9,47,-1
 997 721 l 17,48,49
 1054 759 1054 759 1062 795 c 128,-1,50
 1070 831 1070 831 1038 837 c 2,51,-1
 682 904 l 2,52,53
 486 941 486 941 486 1101 c 0,54,55
 486 1135 486 1135 495 1176 c 8,56,57
 528 1324 528 1324 719 1437 c 0,58,59
 878 1531 878 1531 1073 1531 c 0,60,61
 1317 1531 1317 1531 1438 1366 c 9,31,-1
EndSplineSet
Validated: 1
EndChar

StartChar: dieresis
Encoding: 168 168 106
Width: 1040
GlyphClass: 2
Flags: W
HStem: 1155 356<546.9 715.365 940.9 1109.37>
LayerCount: 2
Fore
SplineSet
1199 1334 m 0,0,1
 1181 1256 1181 1256 1118 1206 c 0,2,3
 1054 1155 1054 1155 983 1155 c 0,4,5
 910 1155 910 1155 872 1208 c 0,6,7
 846 1244 846 1244 846 1291 c 0,8,9
 846 1311 846 1311 851 1333 c 0,10,11
 867 1404 867 1404 929 1457 c 0,12,13
 992 1511 992 1511 1065 1511 c 0,14,15
 1134 1511 1134 1511 1177 1458 c 0,16,17
 1204 1424 1204 1424 1204 1378 c 0,18,19
 1204 1357 1204 1357 1199 1334 c 0,0,1
805 1334 m 0,20,21
 787 1256 787 1256 724 1206 c 0,22,23
 660 1155 660 1155 589 1155 c 0,24,25
 516 1155 516 1155 478 1208 c 0,26,27
 452 1244 452 1244 452 1291 c 0,28,29
 452 1311 452 1311 457 1333 c 0,30,31
 473 1404 473 1404 535 1457 c 0,32,33
 598 1511 598 1511 671 1511 c 0,34,35
 740 1511 740 1511 783 1458 c 0,36,37
 810 1424 810 1424 810 1378 c 0,38,39
 810 1357 810 1357 805 1334 c 0,20,21
EndSplineSet
Validated: 1
EndChar

StartChar: copyright
Encoding: 169 169 107
Width: 1451
GlyphClass: 2
Flags: W
HStem: 164 120<610.618 998.961> 374 207<758.115 958.414> 922 208<847.585 1129.15> 1226 130<811.275 1188.61>
VStem: 306 129<462.463 841.242> 503 244<625.658 816.31> 1364 131<670.699 1047.68>
LayerCount: 2
Fore
SplineSet
1192 582 m 17,0,1
 1133 513 1133 513 1038 452 c 0,2,3
 917 374 917 374 789 374 c 0,4,5
 616 374 616 374 550 480 c 0,6,7
 503 556 503 556 503 642 c 0,8,9
 503 679 503 679 512 719 c 0,10,11
 555 912 555 912 736 1031 c 0,12,13
 886 1130 886 1130 1036 1130 c 0,14,15
 1194 1130 1194 1130 1284 1001 c 9,16,-1
 1070 860 l 17,17,18
 1049 922 1049 922 983 922 c 0,19,20
 901 922 901 922 849 880 c 0,21,22
 774 819 774 819 754 732 c 0,23,24
 747 701 747 701 747 676 c 0,25,26
 747 646 747 646 758 625 c 0,27,28
 781 581 781 581 841 581 c 0,29,30
 902 581 902 581 959 626 c 0,31,32
 996 655 996 655 1032 702 c 9,33,-1
 1192 582 l 17,0,1
792 284 m 0,34,35
 993 284 993 284 1142 423 c 0,36,37
 1308 578 1308 578 1350 760 c 0,38,39
 1364 821 1364 821 1364 875 c 0,40,41
 1364 1000 1364 1000 1290 1093 c 0,42,43
 1184 1226 1184 1226 1009 1226 c 0,44,45
 832 1226 832 1226 661 1090 c 0,46,47
 496 959 496 959 449 756 c 0,48,49
 435 696 435 696 435 641 c 0,50,51
 435 504 435 504 520 404 c 0,52,53
 622 284 622 284 792 284 c 0,34,35
766 164 m 0,54,55
 520 164 520 164 395 333 c 0,56,57
 306 453 306 453 306 608 c 0,58,59
 306 679 306 679 324 754 c 0,60,61
 377 991 377 991 590 1178 c 0,62,63
 793 1356 793 1356 1039 1356 c 0,64,65
 1287 1356 1287 1356 1416 1179 c 16,66,67
 1495 1071 1495 1071 1495 919 c 0,68,69
 1495 842 1495 842 1475 754 c 0,70,71
 1419 505 1419 505 1211 334 c 0,72,73
 1004 164 1004 164 766 164 c 0,54,55
EndSplineSet
Validated: 1
EndChar

StartChar: ordfeminine
Encoding: 170 170 108
Width: 1333
GlyphClass: 2
Flags: W
HStem: 470 300<328 1292> 831 217<871.412 979.655> 1308 223<934.809 1128.5>
VStem: 604 259<1057.89 1233.7>
LayerCount: 2
Fore
SplineSet
980 1089 m 1,0,-1
 1024 1282 l 2,1,2
 1028 1300 1028 1300 1026 1304 c 128,-1,3
 1024 1308 1024 1308 1018 1308 c 0,4,5
 968 1308 968 1308 914 1242 c 0,6,7
 884 1205 884 1205 869 1151 c 0,8,9
 863 1129 863 1129 863 1111 c 0,10,11
 863 1089 863 1089 871 1075 c 0,12,13
 884 1048 884 1048 921 1048 c 0,14,15
 938 1048 938 1048 952 1059 c 0,16,17
 969 1073 969 1073 980 1089 c 1,0,-1
1177 840 m 1,18,-1
 926 840 l 1,19,20
 893 831 893 831 856 831 c 0,21,22
 715 831 715 831 645 932 c 0,23,24
 604 991 604 991 604 1066 c 0,25,26
 604 1100 604 1100 613 1138 c 0,27,28
 653 1306 653 1306 810 1428 c 0,29,30
 942 1531 942 1531 1082 1531 c 0,31,32
 1175 1531 1175 1531 1240 1465 c 0,33,34
 1284 1420 1284 1420 1284 1345 c 0,35,36
 1284 1308 1284 1308 1275 1269 c 2,37,-1
 1177 840 l 1,18,-1
259 470 m 1,38,-1
 328 770 l 1,39,-1
 1361 770 l 1,40,-1
 1292 470 l 1,41,-1
 259 470 l 1,38,-1
EndSplineSet
Validated: 1
EndChar

StartChar: guillemotleft
Encoding: 171 171 109
Width: 1615
GlyphClass: 2
Flags: W
DStem2: 612 747 299 646 0.634224 -0.773149<0 463.684> 350 865 612 747 0.788214 0.615402<133.895 735.746> 1204 747 891 646 0.634224 -0.773149<0 463.684> 942 865 1204 747 0.788214 0.615402<133.895 735.746>
LayerCount: 2
Fore
SplineSet
1763 1506 m 1,0,-1
 1674 1123 l 1,1,-1
 1204 747 l 1,2,-1
 1506 395 l 1,3,-1
 1416 6 l 1,4,-1
 891 646 l 1,5,-1
 942 865 l 1,6,-1
 1763 1506 l 1,0,-1
1171 1506 m 1,7,-1
 1082 1123 l 1,8,-1
 612 747 l 1,9,-1
 914 395 l 1,10,-1
 824 6 l 1,11,-1
 299 646 l 1,12,-1
 350 865 l 1,13,-1
 1171 1506 l 1,7,-1
EndSplineSet
Validated: 1
EndChar

StartChar: logicalnot
Encoding: 172 172 110
Width: 1333
GlyphClass: 2
Flags: W
HStem: 621 300<363 1026>
LayerCount: 2
Fore
SplineSet
293 621 m 1,0,-1
 363 921 l 1,1,-1
 1396 921 l 1,2,-1
 1267 364 l 1,3,-1
 967 364 l 1,4,-1
 1026 621 l 1,5,-1
 293 621 l 1,0,-1
EndSplineSet
Validated: 1
EndChar

StartChar: uni00AD
Encoding: 173 173 111
Width: 1333
GlyphClass: 2
Flags: W
HStem: 621 300<363 1326>
LayerCount: 2
Fore
SplineSet
293 621 m 1,0,-1
 363 921 l 1,1,-1
 1396 921 l 1,2,-1
 1326 621 l 1,3,-1
 293 621 l 1,0,-1
EndSplineSet
Validated: 1
EndChar

StartChar: registered
Encoding: 174 174 112
Width: 1451
GlyphClass: 2
Flags: W
HStem: 164 120<610.668 997.738> 937 214<902.09 1091> 1226 130<809.836 1188.61>
VStem: 306 129<464.465 840.729> 1008 248<779.644 953> 1364 131<670.249 1047.68>
DStem2: 457.976 164 697.442 164 0.224951 0.97437<253.497 398.703 619.44 844.201>
LayerCount: 2
Fore
SplineSet
766 164 m 0,0,1
 520 164 520 164 395 333 c 0,2,3
 306 453 306 453 306 608 c 0,4,5
 306 679 306 679 324 754 c 0,6,7
 377 991 377 991 590 1178 c 0,8,9
 793 1356 793 1356 1039 1356 c 0,10,11
 1287 1356 1287 1356 1416 1179 c 16,12,13
 1495 1071 1495 1071 1495 919 c 0,14,15
 1495 842 1495 842 1475 754 c 0,16,17
 1419 505 1419 505 1211 334 c 0,18,19
 1004 164 1004 164 766 164 c 0,0,1
1003 913 m 0,20,21
 991 937 991 937 969 937 c 0,22,23
 931 937 931 937 901 912 c 0,24,25
 863 881 863 881 849 819 c 2,26,-1
 825 715 l 1,27,28
 853 709 853 709 869 709 c 0,29,30
 909 709 909 709 946 741 c 0,31,32
 987 776 987 776 1002 836 c 0,33,34
 1008 860 1008 860 1008 883 c 0,35,36
 1008 903 1008 903 1003 913 c 0,20,21
732 1141 m 1,37,-1
 923 1141 l 1,38,-1
 921 1130 l 1,39,40
 974 1151 974 1151 1032 1151 c 0,41,42
 1150 1151 1150 1151 1217 1070 c 0,43,44
 1256 1023 1256 1023 1256 953 c 0,45,46
 1256 919 1256 919 1247 880 c 0,47,48
 1227 794 1227 794 1177 720 c 0,49,50
 1123 641 1123 641 1044 591 c 1,51,-1
 1156 438 l 1,52,53
 1310 587 1310 587 1350 760 c 0,54,55
 1364 821 1364 821 1364 875 c 0,56,57
 1364 1000 1364 1000 1290 1093 c 0,58,59
 1184 1226 1184 1226 1009 1226 c 0,60,61
 868 1226 868 1226 732 1141 c 1,37,-1
515 411 m 1,62,-1
 678 1103 l 1,63,-1
 661 1090 l 1,64,65
 492 956 492 956 448 756 c 0,66,67
 435 697 435 697 435 641 c 0,68,69
 435 511 435 511 515 411 c 1,62,-1
568 357 m 1,70,71
 660 284 660 284 792 284 c 0,72,73
 934 284 934 284 1052 357 c 1,74,-1
 850 357 l 1,75,-1
 775 500 l 1,76,-1
 742 357 l 1,77,-1
 568 357 l 1,70,71
EndSplineSet
Validated: 1
EndChar

StartChar: macron
Encoding: 175 175 113
Width: 1333
GlyphClass: 2
Flags: W
HStem: 1211 300<499 1463>
LayerCount: 2
Fore
SplineSet
430 1211 m 1,0,-1
 499 1511 l 1,1,-1
 1532 1511 l 1,2,-1
 1463 1211 l 1,3,-1
 430 1211 l 1,0,-1
EndSplineSet
Validated: 1
EndChar

StartChar: degree
Encoding: 176 176 114
Width: 1178
GlyphClass: 2
Flags: W
HStem: 711 266<710.753 913.246> 1265 266<782.919 986.655>
VStem: 392 309<997.001 1182.62> 996 310<1059.64 1249.29>
LayerCount: 2
Fore
SplineSet
716 711 m 0,0,1
 518 711 518 711 444 832 c 0,2,3
 392 917 392 917 392 1010 c 0,4,5
 392 1048 392 1048 401 1089 c 0,6,7
 442 1277 442 1277 637 1419 c 0,8,9
 791 1531 791 1531 981 1531 c 0,10,11
 1172 1531 1172 1531 1253 1413 c 0,12,13
 1306 1336 1306 1336 1306 1242 c 0,14,15
 1306 1199 1306 1199 1295 1155 c 0,16,17
 1250 959 1250 959 1054 820 c 0,18,19
 899 711 899 711 716 711 c 0,0,1
785 977 m 0,20,21
 850 977 850 977 903 1013 c 0,22,23
 972 1060 972 1060 991 1141 c 0,24,25
 996 1162 996 1162 996 1181 c 0,26,27
 996 1204 996 1204 987 1223 c 8,28,29
 967 1265 967 1265 916 1265 c 0,30,31
 850 1265 850 1265 797 1231 c 0,32,33
 725 1184 725 1184 706 1102 c 0,34,35
 701 1080 701 1080 701 1061 c 0,36,37
 701 1035 701 1035 711 1016 c 0,38,39
 732 977 732 977 785 977 c 0,20,21
EndSplineSet
Validated: 1
EndChar

StartChar: plusminus
Encoding: 177 177 115
Width: 1333
GlyphClass: 2
Flags: W
HStem: 98 300<242 1206> 824 300<409 706 1076 1373>
VStem: 622 300<457 757> 860 300<1191 1491>
DStem2: 539.118 98 839.118 98 0.224951 0.97437<435.928 744.933 1120.48 1429.48>
LayerCount: 2
Fore
SplineSet
173 98 m 1,0,-1
 242 398 l 1,1,-1
 1275 398 l 1,2,-1
 1206 98 l 1,3,-1
 173 98 l 1,0,-1
340 824 m 1,4,-1
 409 1124 l 1,5,-1
 775 1124 l 1,6,-1
 860 1491 l 1,7,-1
 1160 1491 l 1,8,-1
 1076 1124 l 1,9,-1
 1442 1124 l 1,10,-1
 1373 824 l 1,11,-1
 1006 824 l 1,12,-1
 922 457 l 1,13,-1
 622 457 l 1,14,-1
 706 824 l 1,15,-1
 340 824 l 1,4,-1
EndSplineSet
Validated: 1
EndChar

StartChar: uni00B2
Encoding: 178 178 116
Width: 1068
GlyphClass: 2
Flags: W
HStem: 715 300<873 1082> 1296 235<743.177 994>
LayerCount: 2
Fore
SplineSet
394 715 m 1,0,1
 346 777 346 777 346 834 c 0,2,3
 346 850 346 850 350 865 c 0,4,5
 380 977 380 977 508 1043 c 1,6,-1
 853 1222 l 2,7,8
 882 1237 882 1237 886 1256 c 0,9,10
 889 1271 889 1271 878 1284 c 0,11,12
 868 1296 868 1296 847 1296 c 24,13,14
 813 1296 813 1296 771 1271 c 0,15,16
 716 1238 716 1238 676 1186 c 9,17,-1
 468 1326 l 1,18,19
 548 1411 548 1411 654 1473 c 0,20,21
 753 1531 753 1531 907 1531 c 0,22,23
 1081 1531 1081 1531 1158 1455 c 0,24,25
 1217 1397 1217 1397 1217 1321 c 0,26,27
 1217 1297 1217 1297 1211 1270 c 0,28,29
 1184 1147 1184 1147 1011 1072 c 1,30,-1
 873 1015 l 1,31,-1
 1151 1015 l 1,32,-1
 1082 715 l 1,33,-1
 394 715 l 1,0,1
EndSplineSet
Validated: 1
EndChar

StartChar: uni00B3
Encoding: 179 179 117
Width: 1086
GlyphClass: 2
Flags: W
HStem: 705 260<606.348 839.641> 1077 135<795 852.404> 1287 244<739.522 990>
LayerCount: 2
Fore
SplineSet
376 978 m 9,0,1
 670 1050 l 17,2,3
 670 965 670 965 742 965 c 0,4,5
 784 965 784 965 815 986 c 128,-1,6
 846 1007 846 1007 852 1031 c 0,7,8
 853 1035 853 1035 853 1039 c 0,9,10
 853 1077 853 1077 764 1077 c 9,11,-1
 795 1212 l 17,12,13
 840 1212 840 1212 858 1220 c 24,14,15
 878 1229 878 1229 883 1252 c 0,16,17
 891 1287 891 1287 854 1287 c 0,18,19
 813 1287 813 1287 779 1269 c 24,20,21
 736 1246 736 1246 703 1209 c 9,22,-1
 598 1401 l 17,23,24
 746 1531 746 1531 935 1531 c 0,25,26
 1045 1531 1045 1531 1093 1504 c 16,27,28
 1171 1458 1171 1458 1171 1393 c 0,29,30
 1171 1377 1171 1377 1167 1358 c 0,31,32
 1153 1291 1153 1291 1085 1235 c 1,33,34
 1184 1185 1184 1185 1184 1094 c 0,35,36
 1184 1072 1184 1072 1178 1048 c 0,37,38
 1145 916 1145 916 990 809 c 0,39,40
 839 705 839 705 663 705 c 0,41,42
 537 705 537 705 464 778 c 0,43,44
 402 840 402 840 376 978 c 9,0,1
EndSplineSet
Validated: 1
EndChar

StartChar: acute
Encoding: 180 180 118
Width: 903
GlyphClass: 2
Flags: W
HStem: 880 631
VStem: 404 647
DStem2: 404 1102 566 880 0.765767 0.643118<0 615.714>
LayerCount: 2
Fore
SplineSet
891 1511 m 1,0,-1
 1051 1289 l 1,1,-1
 566 880 l 1,2,-1
 404 1102 l 1,3,-1
 891 1511 l 1,0,-1
EndSplineSet
Validated: 1
EndChar

StartChar: uni00B5
Encoding: 181 181 119
Width: 1532
GlyphClass: 2
Flags: W
HStem: -410 21G<105 459.646> -20 288<601 874.235> 0 21G<982 1336.62> 1080 20G<449.377 804 1231.39 1586>
VStem: 105 350<-410 -60> 454 350<750 1100> 1236 350<750 1100>
DStem2: 105 -410 455 -410 0.224951 0.97437<78.7329 490.171 853.433 1549.81> 887.344 -410 1237.34 -410 0.224951 0.97437<499.518 505.931 813.747 1549.73>
LayerCount: 2
Fore
SplineSet
1332 0 m 1,0,-1
 982 0 l 1,1,-1
 1001 83 l 1,2,3
 967 64 967 64 925 45 c 0,4,5
 782 -20 782 -20 620 -20 c 0,6,7
 582 -20 582 -20 547 -14 c 1,8,-1
 455 -410 l 1,9,-1
 105 -410 l 1,10,-1
 454 1100 l 1,11,-1
 804 1100 l 1,12,-1
 642 400 l 2,13,14
 634 367 634 367 634 343 c 0,15,16
 634 308 634 308 651 293 c 8,17,18
 678 268 678 268 720 268 c 0,19,20
 834 268 834 268 948 333 c 0,21,22
 1076 406 1076 406 1106 536 c 2,23,-1
 1236 1100 l 1,24,-1
 1586 1100 l 1,25,-1
 1332 0 l 1,0,-1
EndSplineSet
Validated: 1
EndChar

StartChar: paragraph
Encoding: 182 182 120
Width: 1365
GlyphClass: 2
Flags: W
HStem: 0 21G<715 896.611 984 1169.62> 1284 227<1188 1280>
VStem: 715 177<0 177> 984 181<0 181>
DStem2: 715 0 892 0 0.224951 0.97437<39.8163 600.375> 984 0 1165 0 0.224951 0.97437<40.7161 1317.68>
LayerCount: 2
Fore
SplineSet
715 0 m 1,0,-1
 850 585 l 1,1,2
 764 554 764 554 676 554 c 0,3,4
 486 554 486 554 402 692 c 0,5,6
 359 763 359 763 359 854 c 0,7,8
 359 903 359 903 372 960 c 0,9,10
 427 1200 427 1200 633 1360 c 0,11,12
 828 1511 828 1511 1007 1511 c 0,13,14
 1036 1511 1036 1511 1063 1507 c 1,15,-1
 1064 1511 l 1,16,-1
 1514 1511 l 1,17,-1
 1165 0 l 1,18,-1
 984 0 l 1,19,-1
 1280 1284 l 1,20,-1
 1188 1284 l 1,21,-1
 892 0 l 1,22,-1
 715 0 l 1,0,-1
EndSplineSet
Validated: 1
EndChar

StartChar: periodcentered
Encoding: 183 183 121
Width: 702
GlyphClass: 2
Flags: W
HStem: 567 405<438.666 619.937>
VStem: 321 413<680.651 855.02>
LayerCount: 2
Fore
SplineSet
728 764 m 0,0,1
 710 687 710 687 640 627 c 128,-1,2
 570 567 570 567 481 567 c 0,3,4
 396 567 396 567 351 628 c 0,5,6
 321 669 321 669 321 721 c 0,7,8
 321 744 321 744 327 769 c 0,9,10
 347 853 347 853 417 911 c 0,11,12
 490 972 490 972 575 972 c 0,13,14
 662 972 662 972 704 914 c 0,15,16
 734 873 734 873 734 820 c 0,17,18
 734 793 734 793 728 764 c 0,0,1
EndSplineSet
Validated: 1
EndChar

StartChar: cedilla
Encoding: 184 184 122
Width: 756
GlyphClass: 2
Flags: W
HStem: -410 21G<320.447 446>
VStem: 278 333<-85.5938 164.743>
LayerCount: 2
Fore
SplineSet
435 366 m 1,0,1
 611 251 611 251 611 69 c 0,2,3
 611 21 611 21 599 -32 c 0,4,5
 550 -250 550 -250 342 -410 c 1,6,-1
 106 -191 l 1,7,8
 241 -130 241 -130 270 -5 c 0,9,10
 278 30 278 30 278 59 c 0,11,12
 278 139 278 139 217 176 c 1,13,-1
 435 366 l 1,0,1
EndSplineSet
Validated: 1
EndChar

StartChar: uni00B9
Encoding: 185 185 123
Width: 850
GlyphClass: 2
Flags: W
HStem: 1501 20G<496.4 951>
VStem: 440 325<715 1040>
DStem2: 440 715 765 715 0.224951 0.97437<73.1091 519.351>
LayerCount: 2
Fore
SplineSet
440 715 m 1,0,-1
 557 1221 l 1,1,-1
 432 1221 l 1,2,-1
 501 1521 l 1,3,-1
 951 1521 l 1,4,-1
 765 715 l 1,5,-1
 440 715 l 1,0,-1
EndSplineSet
Validated: 1
EndChar

StartChar: ordmasculine
Encoding: 186 186 124
Width: 1333
GlyphClass: 2
Flags: W
HStem: 470 300<328 1292> 829 217<749.5 977.485> 1313 218<902.234 1126>
VStem: 575 258<1056.8 1242.77> 1046 259<1119.09 1310.9>
LayerCount: 2
Fore
SplineSet
259 470 m 1,0,-1
 328 770 l 1,1,-1
 1361 770 l 1,2,-1
 1292 470 l 1,3,-1
 259 470 l 1,0,-1
1161 983 m 0,4,5
 1005 829 1005 829 823 829 c 0,6,7
 676 829 676 829 614 924 c 0,8,9
 575 984 575 984 575 1067 c 0,10,11
 575 1113 575 1113 587 1166 c 0,12,13
 610 1269 610 1269 705 1367 c 0,14,15
 864 1531 864 1531 1053 1531 c 0,16,17
 1199 1531 1199 1531 1267 1429 c 0,18,19
 1305 1372 1305 1372 1305 1297 c 0,20,21
 1305 1261 1305 1261 1296 1220 c 0,22,23
 1266 1084 1266 1084 1161 983 c 0,4,5
1040 1280 m 0,24,25
 1028 1313 1028 1313 997 1313 c 0,26,27
 933 1313 933 1313 877 1243 c 0,28,29
 849 1208 849 1208 838 1159 c 0,30,31
 833 1137 833 1137 833 1117 c 128,-1,32
 833 1097 833 1097 839 1080 c 0,33,34
 853 1046 853 1046 884 1046 c 24,35,36
 928 1046 928 1046 981 1093 c 0,37,38
 1024 1131 1024 1131 1040 1199 c 0,39,40
 1046 1223 1046 1223 1046 1243.5 c 128,-1,41
 1046 1264 1046 1264 1040 1280 c 0,24,25
EndSplineSet
Validated: 1
EndChar

StartChar: guillemotright
Encoding: 187 187 125
Width: 1615
GlyphClass: 2
Flags: W
DStem2: 290 389 201 6 0.788214 0.615402<0 601.851> 548 1506 458 1117 0.634224 -0.773149<243.675 707.359> 882 389 793 6 0.788214 0.615402<0 601.851> 1140 1506 1050 1117 0.634224 -0.773149<243.675 707.359>
LayerCount: 2
Fore
SplineSet
201 6 m 1,0,-1
 290 389 l 1,1,-1
 760 765 l 1,2,-1
 458 1117 l 1,3,-1
 548 1506 l 1,4,-1
 1073 866 l 1,5,-1
 1022 647 l 1,6,-1
 201 6 l 1,0,-1
793 6 m 1,7,-1
 882 389 l 1,8,-1
 1352 765 l 1,9,-1
 1050 1117 l 1,10,-1
 1140 1506 l 1,11,-1
 1665 866 l 1,12,-1
 1614 647 l 1,13,-1
 793 6 l 1,7,-1
EndSplineSet
Validated: 1
EndChar

StartChar: onequarter
Encoding: 188 188 126
Width: 1876
GlyphClass: 2
Flags: W
HStem: 0 21G<195 559.903 1301 1630.62> 1501 20G<496.4 951 1455.1 1820>
VStem: 195 348<0 348> 440 325<715 1040> 1472 348<1163 1511>
DStem2: 195 0 543 0 0.645489 0.76377<224.63 1978.35> 274.929 0 599.929 0 0.224951 0.97437<806.917 1253.16>
LayerCount: 2
Fore
SplineSet
1418 506 m 1,0,1
 1342 452 1342 452 1291 359 c 1,2,-1
 1384 359 l 1,3,-1
 1418 506 l 1,0,1
1301 0 m 1,4,-1
 1338 159 l 1,5,-1
 898 159 l 1,6,7
 961 360 961 360 1182 562 c 0,8,9
 1354 719 1354 719 1574 806 c 1,10,-1
 1812 806 l 1,11,-1
 1626 0 l 1,12,-1
 1301 0 l 1,4,-1
440 715 m 1,13,-1
 557 1221 l 1,14,-1
 432 1221 l 1,15,-1
 501 1521 l 1,16,-1
 951 1521 l 1,17,-1
 765 715 l 1,18,-1
 440 715 l 1,13,-1
195 0 m 1,19,-1
 1472 1511 l 1,20,-1
 1820 1511 l 1,21,-1
 543 0 l 1,22,-1
 195 0 l 1,19,-1
EndSplineSet
Validated: 1
EndChar

StartChar: onehalf
Encoding: 189 189 127
Width: 1929
GlyphClass: 2
Flags: W
HStem: 0 300<1519 1728> 581 235<1389.18 1640> 1501 20G<496.4 951 1455.1 1820>
VStem: 195 348<0 348> 440 325<715 1040> 1472 348<1163 1511>
DStem2: 195 0 543 0 0.645489 0.76377<224.63 1978.35> 274.929 0 599.929 0 0.224951 0.97437<806.917 1253.16>
LayerCount: 2
Fore
SplineSet
1040 0 m 1,0,1
 992 62 992 62 992 119 c 0,2,3
 992 135 992 135 996 150 c 0,4,5
 1026 262 1026 262 1154 328 c 1,6,-1
 1499 507 l 2,7,8
 1528 522 1528 522 1532 541 c 0,9,10
 1535 556 1535 556 1524 569 c 0,11,12
 1514 581 1514 581 1493 581 c 24,13,14
 1459 581 1459 581 1417 556 c 0,15,16
 1362 523 1362 523 1322 471 c 9,17,-1
 1114 611 l 1,18,19
 1194 696 1194 696 1300 758 c 0,20,21
 1399 816 1399 816 1553 816 c 0,22,23
 1727 816 1727 816 1804 740 c 0,24,25
 1863 682 1863 682 1863 606 c 0,26,27
 1863 582 1863 582 1857 555 c 0,28,29
 1830 432 1830 432 1657 357 c 1,30,-1
 1519 300 l 1,31,-1
 1797 300 l 1,32,-1
 1728 0 l 1,33,-1
 1040 0 l 1,0,1
440 715 m 1,34,-1
 557 1221 l 1,35,-1
 432 1221 l 1,36,-1
 501 1521 l 1,37,-1
 951 1521 l 1,38,-1
 765 715 l 1,39,-1
 440 715 l 1,34,-1
195 0 m 1,40,-1
 1472 1511 l 1,41,-1
 1820 1511 l 1,42,-1
 543 0 l 1,43,-1
 195 0 l 1,40,-1
EndSplineSet
Validated: 1
EndChar

StartChar: threequarters
Encoding: 190 190 128
Width: 2108
GlyphClass: 2
Flags: W
HStem: 0 21G<427 791.903 1533 1862.62> 705 260<606.348 839.641> 1077 135<795 852.404> 1287 244<739.522 990> 1491 20G<1687.1 2052>
VStem: 427 348<0 348> 1704 348<1163 1511>
DStem2: 427 0 775 0 0.645489 0.76377<224.63 1978.35>
LayerCount: 2
Fore
SplineSet
376 978 m 9,0,1
 670 1050 l 17,2,3
 670 965 670 965 742 965 c 0,4,5
 784 965 784 965 815 986 c 128,-1,6
 846 1007 846 1007 852 1031 c 0,7,8
 853 1035 853 1035 853 1039 c 0,9,10
 853 1077 853 1077 764 1077 c 9,11,-1
 795 1212 l 17,12,13
 840 1212 840 1212 858 1220 c 24,14,15
 878 1229 878 1229 883 1252 c 0,16,17
 891 1287 891 1287 854 1287 c 0,18,19
 813 1287 813 1287 779 1269 c 24,20,21
 736 1246 736 1246 703 1209 c 9,22,-1
 598 1401 l 17,23,24
 746 1531 746 1531 935 1531 c 0,25,26
 1045 1531 1045 1531 1093 1504 c 16,27,28
 1171 1458 1171 1458 1171 1393 c 0,29,30
 1171 1377 1171 1377 1167 1358 c 0,31,32
 1153 1291 1153 1291 1085 1235 c 1,33,34
 1184 1185 1184 1185 1184 1094 c 0,35,36
 1184 1072 1184 1072 1178 1048 c 0,37,38
 1145 916 1145 916 990 809 c 0,39,40
 839 705 839 705 663 705 c 0,41,42
 537 705 537 705 464 778 c 0,43,44
 402 840 402 840 376 978 c 9,0,1
1650 506 m 1,45,46
 1574 452 1574 452 1523 359 c 1,47,-1
 1616 359 l 1,48,-1
 1650 506 l 1,45,46
1533 0 m 1,49,-1
 1570 159 l 1,50,-1
 1130 159 l 1,51,52
 1193 360 1193 360 1414 562 c 0,53,54
 1586 719 1586 719 1806 806 c 1,55,-1
 2044 806 l 1,56,-1
 1858 0 l 1,57,-1
 1533 0 l 1,49,-1
427 0 m 1,58,-1
 1704 1511 l 1,59,-1
 2052 1511 l 1,60,-1
 775 0 l 1,61,-1
 427 0 l 1,58,-1
EndSplineSet
Validated: 1
EndChar

StartChar: questiondown
Encoding: 191 191 129
Width: 1546
GlyphClass: 2
Flags: W
HStem: -20 274<661.496 962.653> 1126 405<1045.06 1226.33>
VStem: 246 359<309.825 559.992>
LayerCount: 2
Fore
SplineSet
937 1334 m 0,0,1
 955 1411 955 1411 1025 1471 c 128,-1,2
 1095 1531 1095 1531 1184 1531 c 0,3,4
 1269 1531 1269 1531 1314 1470 c 0,5,6
 1344 1429 1344 1429 1344 1377 c 0,7,8
 1344 1354 1344 1354 1338 1329 c 0,9,10
 1318 1245 1318 1245 1248 1187 c 0,11,12
 1175 1126 1175 1126 1090 1126 c 0,13,14
 1003 1126 1003 1126 961 1184 c 0,15,16
 931 1225 931 1225 931 1278 c 0,17,18
 931 1305 931 1305 937 1334 c 0,0,1
1499 448 m 1,19,20
 1337 226 1337 226 1141 104 c 0,21,22
 942 -20 942 -20 721 -20 c 0,23,24
 443 -20 443 -20 321 139 c 0,25,26
 246 237 246 237 246 364 c 0,27,28
 246 419 246 419 260 480 c 0,29,30
 314 717 314 717 638 904 c 1,31,-1
 923 1074 l 1,32,-1
 1226 1074 l 1,33,34
 1214 1022 1214 1022 1177 980 c 0,35,36
 1154 954 1154 954 1069 894 c 2,37,-1
 772 686 l 2,38,39
 642 595 642 595 612 475 c 0,40,41
 605 447 605 447 605 421 c 0,42,43
 605 370 605 370 631 332 c 0,44,45
 682 254 682 254 804 254 c 0,46,47
 914 254 914 254 1025 338 c 0,48,49
 1157 438 1157 438 1240 611 c 1,50,-1
 1499 448 l 1,19,20
EndSplineSet
Validated: 1
EndChar

StartChar: Agrave
Encoding: 192 192 130
Width: 1767
GlyphClass: 2
Flags: W
HStem: 0 21G<5 354.074 1401.94 1762> 621 300<974 1180> 1491 20G<1071.69 1384.07>
VStem: 5 335<0 335> 1407 355<0 355>
DStem2: 5 0 340 0 0.581849 0.813297<194.919 954.245 1312.86 1312.86> 1379 1511 1127 1136 0.245704 -0.969345<301.587 523.018 831.021 1471.56>
LayerCount: 2
Fore
SplineSet
5 0 m 1,0,-1
 1086 1511 l 1,1,-1
 1379 1511 l 1,2,-1
 1762 0 l 1,3,-1
 1407 0 l 1,4,-1
 1250 621 l 1,5,-1
 777 621 l 1,6,-1
 340 0 l 1,7,-1
 5 0 l 1,0,-1
1127 1136 m 1,8,-1
 974 921 l 1,9,-1
 1180 921 l 1,10,-1
 1127 1136 l 1,8,-1
1292 1559 m 1,11,-1
 906 1696 l 1,12,-1
 1099 1966 l 1,13,-1
 1437 1760 l 1,14,-1
 1292 1559 l 1,11,-1
EndSplineSet
Validated: 1
EndChar

StartChar: Aacute
Encoding: 193 193 131
Width: 1767
GlyphClass: 2
Flags: W
HStem: 0 21G<5 354.074 1401.94 1762> 621 300<974 1180> 1491 20G<1071.69 1384.07>
VStem: 5 335<0 335> 1407 355<0 355>
DStem2: 5 0 340 0 0.581849 0.813297<194.919 954.245 1312.86 1312.86> 1379 1511 1127 1136 0.245704 -0.969345<301.587 523.018 831.021 1471.56>
LayerCount: 2
Fore
SplineSet
5 0 m 1,0,-1
 1086 1511 l 1,1,-1
 1379 1511 l 1,2,-1
 1762 0 l 1,3,-1
 1407 0 l 1,4,-1
 1250 621 l 1,5,-1
 777 621 l 1,6,-1
 340 0 l 1,7,-1
 5 0 l 1,0,-1
1127 1136 m 1,8,-1
 974 921 l 1,9,-1
 1180 921 l 1,10,-1
 1127 1136 l 1,8,-1
1182 1559 m 1,11,-1
 1129 1760 l 1,12,-1
 1563 1966 l 1,13,-1
 1632 1696 l 1,14,-1
 1182 1559 l 1,11,-1
EndSplineSet
Validated: 1
EndChar

StartChar: Acircumflex
Encoding: 194 194 132
Width: 1767
GlyphClass: 2
Flags: W
HStem: 0 21G<5 354.074 1401.94 1762> 621 300<974 1180> 1491 20G<1071.69 1384.07>
VStem: 5 335<0 335> 1407 355<0 355>
DStem2: 5 0 340 0 0.581849 0.813297<194.919 954.245 1312.86 1312.86> 1379 1511 1127 1136 0.244091 -0.969752<302.146 523.58 831.592 1472.13>
LayerCount: 2
Fore
SplineSet
5 0 m 1,0,-1
 1086 1511 l 1,1,-1
 1379 1511 l 1,2,-1
 1762 0 l 1,3,-1
 1407 0 l 1,4,-1
 1250 621 l 1,5,-1
 777 621 l 1,6,-1
 340 0 l 1,7,-1
 5 0 l 1,0,-1
1127 1136 m 1,8,-1
 974 921 l 1,9,-1
 1180 921 l 1,10,-1
 1127 1136 l 1,8,-1
1017 1559 m 1,11,-1
 964 1760 l 1,12,-1
 1342 1966 l 1,13,-1
 1624 1760 l 1,14,-1
 1479 1559 l 1,15,-1
 1277 1684 l 1,16,-1
 1017 1559 l 1,11,-1
EndSplineSet
Validated: 1
EndChar

StartChar: Atilde
Encoding: 195 195 133
Width: 1767
GlyphClass: 2
Flags: W
HStem: 0 21G<5 354.074 1401.94 1762> 621 300<974 1180> 1491 20G<1071.69 1384.07> 1608 230<1290.42 1538.93> 1670 230<1050.62 1316.88>
VStem: 5 335<0 335> 1407 355<0 355>
DStem2: 5 0 340 0 0.581849 0.813297<194.919 954.245 1312.86 1312.86> 1379 1511 1127 1136 0.245704 -0.969345<301.587 523.018 831.021 1471.56>
LayerCount: 2
Fore
SplineSet
5 0 m 1,0,-1
 1086 1511 l 1,1,-1
 1379 1511 l 1,2,-1
 1762 0 l 1,3,-1
 1407 0 l 1,4,-1
 1250 621 l 1,5,-1
 777 621 l 1,6,-1
 340 0 l 1,7,-1
 5 0 l 1,0,-1
1127 1136 m 1,8,-1
 974 921 l 1,9,-1
 1180 921 l 1,10,-1
 1127 1136 l 1,8,-1
1563 1670 m 1,11,12
 1483 1608 1483 1608 1414 1608 c 0,13,14
 1348 1608 1348 1608 1267 1645 c 0,15,16
 1212 1670 1212 1670 1121 1670 c 0,17,18
 1045 1670 1045 1670 976 1607 c 1,19,-1
 1029 1837 l 1,20,21
 1095 1900 1095 1900 1174 1900 c 0,22,23
 1256 1900 1256 1900 1324 1870 c 0,24,25
 1397 1838 1397 1838 1467 1838 c 0,26,27
 1533 1838 1533 1838 1616 1900 c 1,28,-1
 1563 1670 l 1,11,12
EndSplineSet
Validated: 1
EndChar

StartChar: Adieresis
Encoding: 196 196 134
Width: 1767
GlyphClass: 2
Flags: W
HStem: 0 21G<5 354.074 1401.94 1762> 621 300<974 1180> 1491 20G<1071.69 1384.07> 1574 356<1010.9 1179.37 1404.9 1573.37>
VStem: 5 335<0 335> 1407 355<0 355>
DStem2: 5 0 340 0 0.581849 0.813297<194.919 954.245 1312.86 1312.86> 1379 1511 1127 1136 0.245704 -0.969345<301.587 523.018 831.021 1471.56>
LayerCount: 2
Fore
SplineSet
1663 1753 m 0,0,1
 1645 1675 1645 1675 1582 1625 c 0,2,3
 1518 1574 1518 1574 1447 1574 c 0,4,5
 1374 1574 1374 1574 1336 1627 c 0,6,7
 1310 1663 1310 1663 1310 1710 c 0,8,9
 1310 1730 1310 1730 1315 1752 c 0,10,11
 1331 1823 1331 1823 1393 1876 c 0,12,13
 1456 1930 1456 1930 1529 1930 c 0,14,15
 1598 1930 1598 1930 1641 1877 c 0,16,17
 1668 1843 1668 1843 1668 1797 c 0,18,19
 1668 1776 1668 1776 1663 1753 c 0,0,1
1269 1753 m 0,20,21
 1251 1675 1251 1675 1188 1625 c 0,22,23
 1124 1574 1124 1574 1053 1574 c 0,24,25
 980 1574 980 1574 942 1627 c 0,26,27
 916 1663 916 1663 916 1710 c 0,28,29
 916 1730 916 1730 921 1752 c 0,30,31
 937 1823 937 1823 999 1876 c 0,32,33
 1062 1930 1062 1930 1135 1930 c 0,34,35
 1204 1930 1204 1930 1247 1877 c 0,36,37
 1274 1843 1274 1843 1274 1797 c 0,38,39
 1274 1776 1274 1776 1269 1753 c 0,20,21
5 0 m 1,40,-1
 1086 1511 l 1,41,-1
 1379 1511 l 1,42,-1
 1762 0 l 1,43,-1
 1407 0 l 1,44,-1
 1250 621 l 1,45,-1
 777 621 l 1,46,-1
 340 0 l 1,47,-1
 5 0 l 1,40,-1
1127 1136 m 1,48,-1
 974 921 l 1,49,-1
 1180 921 l 1,50,-1
 1127 1136 l 1,48,-1
EndSplineSet
Validated: 1
EndChar

StartChar: Aring
Encoding: 197 197 135
Width: 1767
GlyphClass: 2
Flags: W
HStem: 0 21G<5 354.074 1401.94 1762> 621 300<974 1180> 1491 20G<1071.69 1384.07> 1529 139<1222.92 1357> 1827 139<1232.16 1366.75>
VStem: 5 335<0 335> 1407 355<0 355>
DStem2: 5 0 340 0 0.581849 0.813297<194.919 954.245 1312.86 1312.86> 1379 1511 1127 1136 0.245704 -0.969345<301.587 523.018 831.021 1471.56>
LayerCount: 2
Fore
SplineSet
5 0 m 1,0,-1
 1086 1511 l 1,1,-1
 1379 1511 l 1,2,-1
 1762 0 l 1,3,-1
 1407 0 l 1,4,-1
 1250 621 l 1,5,-1
 777 621 l 1,6,-1
 340 0 l 1,7,-1
 5 0 l 1,0,-1
1127 1136 m 1,8,-1
 974 921 l 1,9,-1
 1180 921 l 1,10,-1
 1127 1136 l 1,8,-1
1372 1745 m 0,11,12
 1380 1781 1380 1781 1363 1804 c 128,-1,13
 1346 1827 1346 1827 1314 1827 c 0,14,15
 1281 1827 1281 1827 1252 1803 c 0,16,17
 1224 1780 1224 1780 1217 1748 c 128,-1,18
 1210 1716 1210 1716 1227 1692 c 128,-1,19
 1244 1668 1244 1668 1277 1668 c 0,20,21
 1312 1668 1312 1668 1338 1691 c 0,22,23
 1366 1716 1366 1716 1372 1745 c 0,11,12
1513 1742 m 0,24,25
 1494 1659 1494 1659 1417 1594 c 128,-1,26
 1340 1529 1340 1529 1242 1529 c 128,-1,27
 1144 1529 1144 1529 1098 1595 c 0,28,29
 1064 1644 1064 1644 1064 1700 c 0,30,31
 1064 1723 1064 1723 1070 1747 c 0,32,33
 1092 1834 1092 1834 1169 1900 c 128,-1,34
 1246 1966 1246 1966 1343 1966 c 0,35,36
 1436 1966 1436 1966 1487 1901 c 0,37,38
 1520 1858 1520 1858 1520 1801 c 0,39,40
 1520 1774 1520 1774 1513 1742 c 0,24,25
EndSplineSet
Validated: 1
EndChar

StartChar: AE
Encoding: 198 198 136
Width: 2850
GlyphClass: 2
Flags: W
HStem: -20 273<1806.26 2245.08> 621 300<974 1180 1787 2479> 1258 273<2146.74 2586.27> 1491 20G<1071.69 1384.05>
VStem: 5 335<0 335>
DStem2: 5 0 340 0 0.581849 0.813297<194.919 954.245 1312.86 1384.87 1502.37 1576.74>
LayerCount: 2
Fore
SplineSet
1127 1136 m 1,0,-1
 974 921 l 1,1,-1
 1180 921 l 1,2,-1
 1127 1136 l 1,0,-1
5 0 m 1,3,-1
 1086 1511 l 1,4,-1
 1379 1511 l 1,5,-1
 1497 1044 l 1,6,7
 1615 1201 1615 1201 1802 1328 c 0,8,9
 2101 1531 2101 1531 2468 1531 c 0,10,11
 2815 1531 2815 1531 2991 1323 c 0,12,13
 3029 1278 3029 1278 3053 1225 c 1,14,-1
 2714 1048 l 1,15,16
 2700 1099 2700 1099 2672 1138 c 0,17,18
 2586 1258 2586 1258 2405 1258 c 0,19,20
 2152 1258 2152 1258 1974 1120 c 0,21,22
 1859 1031 1859 1031 1787 921 c 1,23,-1
 2549 921 l 1,24,-1
 2479 621 l 1,25,-1
 1675 621 l 1,26,27
 1670 586 1670 586 1670 553 c 0,28,29
 1670 446 1670 446 1724 372 c 0,30,31
 1810 253 1810 253 1990 253 c 0,32,33
 2227 253 2227 253 2422 391 c 0,34,35
 2548 480 2548 480 2623 608 c 1,36,-1
 2854 411 l 1,37,38
 2745 286 2745 286 2594 183 c 0,39,40
 2296 -20 2296 -20 1927 -20 c 0,41,42
 1818 -20 1818 -20 1727 0 c 1,43,-1
 1407 0 l 1,44,-1
 1250 621 l 1,45,-1
 777 621 l 1,46,-1
 340 0 l 1,47,-1
 5 0 l 1,3,-1
EndSplineSet
Validated: 1
EndChar

StartChar: Ccedilla
Encoding: 199 199 137
Width: 1781
GlyphClass: 2
Flags: W
HStem: -410 21G<758.396 883.5> -16 269<742.669 769 1039 1174.34> 1258 273<1078.23 1517.27>
VStem: 233 368<387.823 751.235> 769 271<-140.358 -11.6631>
LayerCount: 2
Fore
SplineSet
1785 411 m 1,0,1
 1676 286 1676 286 1525 183 c 0,2,3
 1302 31 1302 31 1039 -7 c 1,4,5
 1040 -22 1040 -22 1040 -36 c 0,6,7
 1040 -81 1040 -81 1028 -135 c 0,8,9
 987 -307 987 -307 780 -410 c 1,10,-1
 578 -223 l 1,11,12
 740 -174 740 -174 763 -72 c 0,13,14
 770 -41 770 -41 769 -16 c 1,15,16
 485 7 485 7 335 188 c 0,17,18
 233 311 233 311 233 492 c 0,19,20
 233 578 233 578 256 676 c 0,21,22
 348 1066 348 1066 733 1328 c 0,23,24
 1032 1531 1032 1531 1399 1531 c 0,25,26
 1746 1531 1746 1531 1922 1323 c 0,27,28
 1960 1278 1960 1278 1984 1225 c 1,29,-1
 1645 1048 l 1,30,31
 1631 1099 1631 1099 1603 1138 c 0,32,33
 1517 1258 1517 1258 1336 1258 c 0,34,35
 1085 1258 1085 1258 905 1120 c 0,36,37
 678 946 678 946 617 682 c 0,38,39
 601 613 601 613 601 554 c 0,40,41
 601 445 601 445 655 372 c 0,42,43
 741 253 741 253 921 253 c 0,44,45
 1158 253 1158 253 1353 391 c 0,46,47
 1479 480 1479 480 1554 608 c 1,48,-1
 1785 411 l 1,0,1
EndSplineSet
Validated: 1
EndChar

StartChar: Egrave
Encoding: 200 200 138
Width: 1781
GlyphClass: 2
Flags: W
HStem: -20 273<739.581 1176.08> 621 300<718 1410> 1258 273<1077.74 1517.51>
VStem: 233 368<387.904 619.388>
LayerCount: 2
Fore
SplineSet
1785 411 m 1,0,1
 1678 288 1678 288 1525 183 c 0,2,3
 1227 -20 1227 -20 858 -20 c 0,4,5
 507 -20 507 -20 335 188 c 0,6,7
 233 311 233 311 233 492 c 0,8,9
 233 578 233 578 256 676 c 0,10,11
 348 1066 348 1066 733 1328 c 0,12,13
 1032 1531 1032 1531 1399 1531 c 0,14,15
 1746 1531 1746 1531 1922 1323 c 0,16,17
 1960 1278 1960 1278 1984 1225 c 1,18,-1
 1645 1048 l 1,19,20
 1631 1099 1631 1099 1603 1138 c 0,21,22
 1518 1258 1518 1258 1336 1258 c 0,23,24
 1083 1258 1083 1258 905 1120 c 0,25,26
 790 1031 790 1031 718 921 c 1,27,-1
 1480 921 l 1,28,-1
 1410 621 l 1,29,-1
 606 621 l 1,30,31
 601 586 601 586 601 553 c 0,32,33
 601 446 601 446 655 372 c 0,34,35
 741 253 741 253 921 253 c 0,36,37
 1158 253 1158 253 1353 391 c 0,38,39
 1479 480 1479 480 1554 608 c 1,40,-1
 1785 411 l 1,0,1
1516 1559 m 1,41,-1
 1130 1696 l 1,42,-1
 1323 1966 l 1,43,-1
 1661 1760 l 1,44,-1
 1516 1559 l 1,41,-1
EndSplineSet
Validated: 1
EndChar

StartChar: Eacute
Encoding: 201 201 139
Width: 1781
GlyphClass: 2
Flags: W
HStem: -20 273<739.581 1176.08> 621 300<718 1410> 1258 273<1077.74 1517.51>
VStem: 233 368<387.904 619.388>
LayerCount: 2
Fore
SplineSet
1785 411 m 1,0,1
 1678 288 1678 288 1525 183 c 0,2,3
 1227 -20 1227 -20 858 -20 c 0,4,5
 507 -20 507 -20 335 188 c 0,6,7
 233 311 233 311 233 492 c 0,8,9
 233 578 233 578 256 676 c 0,10,11
 348 1066 348 1066 733 1328 c 0,12,13
 1032 1531 1032 1531 1399 1531 c 0,14,15
 1746 1531 1746 1531 1922 1323 c 0,16,17
 1960 1278 1960 1278 1984 1225 c 1,18,-1
 1645 1048 l 1,19,20
 1631 1099 1631 1099 1603 1138 c 0,21,22
 1518 1258 1518 1258 1336 1258 c 0,23,24
 1083 1258 1083 1258 905 1120 c 0,25,26
 790 1031 790 1031 718 921 c 1,27,-1
 1480 921 l 1,28,-1
 1410 621 l 1,29,-1
 606 621 l 1,30,31
 601 586 601 586 601 553 c 0,32,33
 601 446 601 446 655 372 c 0,34,35
 741 253 741 253 921 253 c 0,36,37
 1158 253 1158 253 1353 391 c 0,38,39
 1479 480 1479 480 1554 608 c 1,40,-1
 1785 411 l 1,0,1
1289 1559 m 1,41,-1
 1236 1760 l 1,42,-1
 1670 1966 l 1,43,-1
 1739 1696 l 1,44,-1
 1289 1559 l 1,41,-1
EndSplineSet
Validated: 1
EndChar

StartChar: Ecircumflex
Encoding: 202 202 140
Width: 1781
GlyphClass: 2
Flags: W
HStem: -20 273<739.581 1176.08> 621 300<718 1410> 1258 273<1077.74 1517.51>
VStem: 233 368<387.904 619.388>
LayerCount: 2
Fore
SplineSet
1785 411 m 1,0,1
 1678 288 1678 288 1525 183 c 0,2,3
 1227 -20 1227 -20 858 -20 c 0,4,5
 507 -20 507 -20 335 188 c 0,6,7
 233 311 233 311 233 492 c 0,8,9
 233 578 233 578 256 676 c 0,10,11
 348 1066 348 1066 733 1328 c 0,12,13
 1032 1531 1032 1531 1399 1531 c 0,14,15
 1746 1531 1746 1531 1922 1323 c 0,16,17
 1960 1278 1960 1278 1984 1225 c 1,18,-1
 1645 1048 l 1,19,20
 1631 1099 1631 1099 1603 1138 c 0,21,22
 1518 1258 1518 1258 1336 1258 c 0,23,24
 1083 1258 1083 1258 905 1120 c 0,25,26
 790 1031 790 1031 718 921 c 1,27,-1
 1480 921 l 1,28,-1
 1410 621 l 1,29,-1
 606 621 l 1,30,31
 601 586 601 586 601 553 c 0,32,33
 601 446 601 446 655 372 c 0,34,35
 741 253 741 253 921 253 c 0,36,37
 1158 253 1158 253 1353 391 c 0,38,39
 1479 480 1479 480 1554 608 c 1,40,-1
 1785 411 l 1,0,1
1177 1559 m 1,41,-1
 1124 1760 l 1,42,-1
 1502 1966 l 1,43,-1
 1784 1760 l 1,44,-1
 1639 1559 l 1,45,-1
 1437 1684 l 1,46,-1
 1177 1559 l 1,41,-1
EndSplineSet
Validated: 1
EndChar

StartChar: Edieresis
Encoding: 203 203 141
Width: 1781
GlyphClass: 2
Flags: W
HStem: -20 273<739.581 1176.08> 621 300<718 1410> 1258 273<1077.74 1517.51> 1574 356<1165.9 1334.37 1559.9 1728.37>
VStem: 233 368<387.904 619.388>
LayerCount: 2
Fore
SplineSet
1818 1753 m 0,0,1
 1800 1675 1800 1675 1737 1625 c 0,2,3
 1673 1574 1673 1574 1602 1574 c 0,4,5
 1529 1574 1529 1574 1491 1627 c 0,6,7
 1465 1663 1465 1663 1465 1710 c 0,8,9
 1465 1730 1465 1730 1470 1752 c 0,10,11
 1486 1823 1486 1823 1548 1876 c 0,12,13
 1611 1930 1611 1930 1684 1930 c 0,14,15
 1753 1930 1753 1930 1796 1877 c 0,16,17
 1823 1843 1823 1843 1823 1797 c 0,18,19
 1823 1776 1823 1776 1818 1753 c 0,0,1
1424 1753 m 0,20,21
 1406 1675 1406 1675 1343 1625 c 0,22,23
 1279 1574 1279 1574 1208 1574 c 0,24,25
 1135 1574 1135 1574 1097 1627 c 0,26,27
 1071 1663 1071 1663 1071 1710 c 0,28,29
 1071 1730 1071 1730 1076 1752 c 0,30,31
 1092 1823 1092 1823 1154 1876 c 0,32,33
 1217 1930 1217 1930 1290 1930 c 0,34,35
 1359 1930 1359 1930 1402 1877 c 0,36,37
 1429 1843 1429 1843 1429 1797 c 0,38,39
 1429 1776 1429 1776 1424 1753 c 0,20,21
1785 411 m 1,40,41
 1678 288 1678 288 1525 183 c 0,42,43
 1227 -20 1227 -20 858 -20 c 0,44,45
 507 -20 507 -20 335 188 c 0,46,47
 233 311 233 311 233 492 c 0,48,49
 233 578 233 578 256 676 c 0,50,51
 348 1066 348 1066 733 1328 c 0,52,53
 1032 1531 1032 1531 1399 1531 c 0,54,55
 1746 1531 1746 1531 1922 1323 c 0,56,57
 1960 1278 1960 1278 1984 1225 c 1,58,-1
 1645 1048 l 1,59,60
 1631 1099 1631 1099 1603 1138 c 0,61,62
 1518 1258 1518 1258 1336 1258 c 0,63,64
 1083 1258 1083 1258 905 1120 c 0,65,66
 790 1031 790 1031 718 921 c 1,67,-1
 1480 921 l 1,68,-1
 1410 621 l 1,69,-1
 606 621 l 1,70,71
 601 586 601 586 601 553 c 0,72,73
 601 446 601 446 655 372 c 0,74,75
 741 253 741 253 921 253 c 0,76,77
 1158 253 1158 253 1353 391 c 0,78,79
 1479 480 1479 480 1554 608 c 1,80,-1
 1785 411 l 1,40,41
EndSplineSet
Validated: 1
EndChar

StartChar: Igrave
Encoding: 204 204 142
Width: 750
GlyphClass: 2
Flags: W
HStem: 0 21G<200 554.619> 1491 20G<544.381 899>
VStem: 200 350<0 350> 549 350<1161 1511>
DStem2: 200 0 550 0 0.224951 0.97437<78.7329 1550.78>
LayerCount: 2
Fore
SplineSet
200 0 m 1,0,-1
 549 1511 l 1,1,-1
 899 1511 l 1,2,-1
 550 0 l 1,3,-1
 200 0 l 1,0,-1
784 1559 m 1,4,-1
 398 1696 l 1,5,-1
 591 1966 l 1,6,-1
 929 1760 l 1,7,-1
 784 1559 l 1,4,-1
EndSplineSet
Validated: 1
EndChar

StartChar: Iacute
Encoding: 205 205 143
Width: 750
GlyphClass: 2
Flags: W
HStem: 0 21G<200 554.619> 1491 20G<544.381 899>
VStem: 200 350<0 350> 549 350<1161 1511>
DStem2: 200 0 550 0 0.224951 0.97437<78.7329 1550.78>
LayerCount: 2
Fore
SplineSet
687 1559 m 1,0,-1
 634 1760 l 1,1,-1
 1068 1966 l 1,2,-1
 1137 1696 l 1,3,-1
 687 1559 l 1,0,-1
200 0 m 1,4,-1
 549 1511 l 1,5,-1
 899 1511 l 1,6,-1
 550 0 l 1,7,-1
 200 0 l 1,4,-1
EndSplineSet
Validated: 1
EndChar

StartChar: Icircumflex
Encoding: 206 206 144
Width: 750
GlyphClass: 2
Flags: W
HStem: 0 21G<200 554.619> 1491 20G<544.381 899>
VStem: 200 350<0 350> 549 350<1161 1511>
DStem2: 200 0 550 0 0.224951 0.97437<78.7329 1550.78>
LayerCount: 2
Fore
SplineSet
200 0 m 1,0,-1
 549 1511 l 1,1,-1
 899 1511 l 1,2,-1
 550 0 l 1,3,-1
 200 0 l 1,0,-1
504 1559 m 1,4,-1
 451 1760 l 1,5,-1
 829 1966 l 1,6,-1
 1111 1760 l 1,7,-1
 966 1559 l 1,8,-1
 764 1684 l 1,9,-1
 504 1559 l 1,4,-1
EndSplineSet
Validated: 1
EndChar

StartChar: Idieresis
Encoding: 207 207 145
Width: 750
GlyphClass: 2
Flags: W
HStem: 0 21G<200 554.619> 1491 20G<544.381 899> 1574 356<498.9 667.365 892.9 1061.37>
VStem: 200 350<0 350> 549 350<1161 1511>
DStem2: 200 0 550 0 0.224951 0.97437<78.7329 1550.78>
LayerCount: 2
Fore
SplineSet
1151 1753 m 0,0,1
 1133 1675 1133 1675 1070 1625 c 0,2,3
 1006 1574 1006 1574 935 1574 c 0,4,5
 862 1574 862 1574 824 1627 c 0,6,7
 798 1663 798 1663 798 1710 c 0,8,9
 798 1730 798 1730 803 1752 c 0,10,11
 819 1823 819 1823 881 1876 c 0,12,13
 944 1930 944 1930 1017 1930 c 0,14,15
 1086 1930 1086 1930 1129 1877 c 0,16,17
 1156 1843 1156 1843 1156 1797 c 0,18,19
 1156 1776 1156 1776 1151 1753 c 0,0,1
757 1753 m 0,20,21
 739 1675 739 1675 676 1625 c 0,22,23
 612 1574 612 1574 541 1574 c 0,24,25
 468 1574 468 1574 430 1627 c 0,26,27
 404 1663 404 1663 404 1710 c 0,28,29
 404 1730 404 1730 409 1752 c 0,30,31
 425 1823 425 1823 487 1876 c 0,32,33
 550 1930 550 1930 623 1930 c 0,34,35
 692 1930 692 1930 735 1877 c 0,36,37
 762 1843 762 1843 762 1797 c 0,38,39
 762 1776 762 1776 757 1753 c 0,20,21
200 0 m 1,40,-1
 549 1511 l 1,41,-1
 899 1511 l 1,42,-1
 550 0 l 1,43,-1
 200 0 l 1,40,-1
EndSplineSet
Validated: 1
EndChar

StartChar: Eth
Encoding: 208 208 146
Width: 1792
GlyphClass: 2
Flags: W
HStem: -20 258<676.521 1026.05> 0 21G<200 554.605> 621 300<303 343 762 1155> 1257 274<1017.03 1415.87> 1491 20G<544.39 899>
VStem: 200 350<0 350> 1550 357<758.401 1130.27>
DStem2: 195.383 -20 545.383 -20 0.224951 0.97437<99.2589 657.778 1044.34 1264.72>
LayerCount: 2
Fore
SplineSet
200 0 m 1,0,-1
 343 621 l 1,1,-1
 233 621 l 1,2,-1
 303 921 l 1,3,-1
 413 921 l 1,4,-1
 549 1511 l 1,5,-1
 899 1511 l 1,6,-1
 882 1436 l 1,7,8
 893 1442 893 1442 905 1447 c 0,9,10
 1108 1531 1108 1531 1302 1531 c 0,11,12
 1646 1531 1646 1531 1808 1320 c 0,13,14
 1907 1191 1907 1191 1907 1014 c 0,15,16
 1907 930 1907 930 1885 835 c 0,17,18
 1807 496 1807 496 1460 236 c 0,19,20
 1119 -20 1119 -20 773 -20 c 0,21,22
 665 -20 665 -20 643 63 c 0,23,24
 637 86 637 86 637 109 c 0,25,26
 637 130 637 130 642 153 c 0,27,28
 652 201 652 201 691 258 c 1,29,30
 732 238 732 238 797 238 c 0,31,32
 1021 238 1021 238 1231 397 c 0,33,34
 1476 583 1476 583 1534 831 c 0,35,36
 1550 900 1550 900 1550 959 c 0,37,38
 1550 1064 1550 1064 1502 1135 c 0,39,40
 1422 1257 1422 1257 1220 1257 c 0,41,42
 1061 1257 1061 1257 956 1199 c 0,43,44
 808 1117 808 1117 779 994 c 2,45,-1
 762 921 l 1,46,-1
 1225 921 l 1,47,-1
 1155 621 l 1,48,-1
 693 621 l 1,49,-1
 550 0 l 1,50,-1
 200 0 l 1,0,-1
EndSplineSet
Validated: 1
EndChar

StartChar: Ntilde
Encoding: 209 209 147
Width: 1721
GlyphClass: 2
Flags: W
HStem: 0 21G<200 554.615 1171 1525.62> 1257 274<1051.06 1377.89> 1491 20G<544.381 899> 1608 230<1301.42 1549.93> 1670 230<1061.62 1327.88>
VStem: 200 350<0 350> 1171 350<0 350> 1421 358<1004.88 1213.4>
DStem2: 200 0 550 0 0.224951 0.97437<78.7329 1203.08 1526.9 1550.78> 1171 0 1521 0 0.224951 0.97437<78.7329 1136.97>
LayerCount: 2
Fore
SplineSet
200 0 m 1,0,-1
 549 1511 l 1,1,-1
 899 1511 l 1,2,-1
 876 1411 l 1,3,4
 937 1444 937 1444 1001 1469 c 0,5,6
 1160 1531 1160 1531 1316 1531 c 0,7,8
 1572 1531 1572 1531 1695 1388 c 16,9,10
 1779 1290 1779 1290 1779 1163 c 0,11,12
 1779 1115 1779 1115 1767 1064 c 2,13,-1
 1521 0 l 1,14,-1
 1171 0 l 1,15,-1
 1414 1052 l 2,16,17
 1421 1083 1421 1083 1421 1110 c 0,18,19
 1421 1164 1421 1164 1391 1200 c 0,20,21
 1342 1257 1342 1257 1236 1257 c 0,22,23
 1077 1257 1077 1257 943 1170 c 0,24,25
 798 1076 798 1076 760 910 c 2,26,-1
 550 0 l 1,27,-1
 200 0 l 1,0,-1
1574 1670 m 1,28,29
 1494 1608 1494 1608 1425 1608 c 0,30,31
 1359 1608 1359 1608 1278 1645 c 0,32,33
 1223 1670 1223 1670 1132 1670 c 0,34,35
 1056 1670 1056 1670 987 1607 c 1,36,-1
 1040 1837 l 1,37,38
 1106 1900 1106 1900 1185 1900 c 0,39,40
 1267 1900 1267 1900 1335 1870 c 0,41,42
 1408 1838 1408 1838 1478 1838 c 0,43,44
 1544 1838 1544 1838 1627 1900 c 1,45,-1
 1574 1670 l 1,28,29
EndSplineSet
Validated: 1
EndChar

StartChar: Ograve
Encoding: 210 210 148
Width: 1909
GlyphClass: 2
Flags: W
HStem: -20 273<739.634 1175.83> 1258 273<1078.23 1517.51>
VStem: 233 368<384.504 751.114> 1656 369<761.475 1123.93>
LayerCount: 2
Fore
SplineSet
858 -20 m 0,0,1
 507 -20 507 -20 335 188 c 0,2,3
 233 311 233 311 233 492 c 0,4,5
 233 578 233 578 256 676 c 0,6,7
 348 1066 348 1066 733 1328 c 0,8,9
 1032 1531 1032 1531 1399 1531 c 0,10,11
 1746 1531 1746 1531 1922 1323 c 0,12,13
 2025 1201 2025 1201 2025 1019 c 0,14,15
 2025 933 2025 933 2002 835 c 0,16,17
 1910 442 1910 442 1525 182 c 0,18,19
 1226 -20 1226 -20 858 -20 c 0,0,1
921 253 m 0,20,21
 1158 253 1158 253 1353 391 c 0,22,23
 1574 547 1574 547 1640 829 c 0,24,25
 1656 897 1656 897 1656 956 c 0,26,27
 1656 1063 1656 1063 1603 1138 c 0,28,29
 1518 1258 1518 1258 1336 1258 c 0,30,31
 1085 1258 1085 1258 905 1120 c 0,32,33
 677 945 677 945 617 682 c 0,34,35
 601 612 601 612 601 553 c 0,36,37
 601 445 601 445 654 373 c 0,38,39
 742 254 742 254 921 253 c 0,20,21
1516 1559 m 1,40,-1
 1130 1696 l 1,41,-1
 1323 1966 l 1,42,-1
 1661 1760 l 1,43,-1
 1516 1559 l 1,40,-1
EndSplineSet
Validated: 1
EndChar

StartChar: Oacute
Encoding: 211 211 149
Width: 1909
GlyphClass: 2
Flags: W
HStem: -20 273<739.634 1175.83> 1258 273<1078.23 1517.51>
VStem: 233 368<384.504 751.114> 1656 369<761.475 1123.93>
LayerCount: 2
Fore
SplineSet
858 -20 m 0,0,1
 507 -20 507 -20 335 188 c 0,2,3
 233 311 233 311 233 492 c 0,4,5
 233 578 233 578 256 676 c 0,6,7
 348 1066 348 1066 733 1328 c 0,8,9
 1032 1531 1032 1531 1399 1531 c 0,10,11
 1746 1531 1746 1531 1922 1323 c 0,12,13
 2025 1201 2025 1201 2025 1019 c 0,14,15
 2025 933 2025 933 2002 835 c 0,16,17
 1910 442 1910 442 1525 182 c 0,18,19
 1226 -20 1226 -20 858 -20 c 0,0,1
921 253 m 0,20,21
 1158 253 1158 253 1353 391 c 0,22,23
 1574 547 1574 547 1640 829 c 0,24,25
 1656 897 1656 897 1656 956 c 0,26,27
 1656 1063 1656 1063 1603 1138 c 0,28,29
 1518 1258 1518 1258 1336 1258 c 0,30,31
 1085 1258 1085 1258 905 1120 c 0,32,33
 677 945 677 945 617 682 c 0,34,35
 601 612 601 612 601 553 c 0,36,37
 601 445 601 445 654 373 c 0,38,39
 742 254 742 254 921 253 c 0,20,21
1289 1559 m 1,40,-1
 1236 1760 l 1,41,-1
 1670 1966 l 1,42,-1
 1739 1696 l 1,43,-1
 1289 1559 l 1,40,-1
EndSplineSet
Validated: 1
EndChar

StartChar: Ocircumflex
Encoding: 212 212 150
Width: 1909
GlyphClass: 2
Flags: W
HStem: -20 273<739.634 1175.83> 1258 273<1078.23 1517.51>
VStem: 233 368<384.504 751.114> 1656 369<761.475 1123.93>
LayerCount: 2
Fore
SplineSet
858 -20 m 0,0,1
 507 -20 507 -20 335 188 c 0,2,3
 233 311 233 311 233 492 c 0,4,5
 233 578 233 578 256 676 c 0,6,7
 348 1066 348 1066 733 1328 c 0,8,9
 1032 1531 1032 1531 1399 1531 c 0,10,11
 1746 1531 1746 1531 1922 1323 c 0,12,13
 2025 1201 2025 1201 2025 1019 c 0,14,15
 2025 933 2025 933 2002 835 c 0,16,17
 1910 442 1910 442 1525 182 c 0,18,19
 1226 -20 1226 -20 858 -20 c 0,0,1
921 253 m 0,20,21
 1158 253 1158 253 1353 391 c 0,22,23
 1574 547 1574 547 1640 829 c 0,24,25
 1656 897 1656 897 1656 956 c 0,26,27
 1656 1063 1656 1063 1603 1138 c 0,28,29
 1518 1258 1518 1258 1336 1258 c 0,30,31
 1085 1258 1085 1258 905 1120 c 0,32,33
 677 945 677 945 617 682 c 0,34,35
 601 612 601 612 601 553 c 0,36,37
 601 445 601 445 654 373 c 0,38,39
 742 254 742 254 921 253 c 0,20,21
1177 1559 m 1,40,-1
 1124 1760 l 1,41,-1
 1502 1966 l 1,42,-1
 1784 1760 l 1,43,-1
 1639 1559 l 1,44,-1
 1437 1684 l 1,45,-1
 1177 1559 l 1,40,-1
EndSplineSet
Validated: 1
EndChar

StartChar: Otilde
Encoding: 213 213 151
Width: 1909
GlyphClass: 2
Flags: W
HStem: -20 273<739.634 1175.83> 1258 273<1078.23 1517.51> 1608 230<1459.42 1707.93> 1670 230<1219.62 1485.88>
VStem: 233 368<384.504 751.114> 1656 369<761.475 1123.93>
LayerCount: 2
Fore
SplineSet
858 -20 m 0,0,1
 507 -20 507 -20 335 188 c 0,2,3
 233 311 233 311 233 492 c 0,4,5
 233 578 233 578 256 676 c 0,6,7
 348 1066 348 1066 733 1328 c 0,8,9
 1032 1531 1032 1531 1399 1531 c 0,10,11
 1746 1531 1746 1531 1922 1323 c 0,12,13
 2025 1201 2025 1201 2025 1019 c 0,14,15
 2025 933 2025 933 2002 835 c 0,16,17
 1910 442 1910 442 1525 182 c 0,18,19
 1226 -20 1226 -20 858 -20 c 0,0,1
921 253 m 0,20,21
 1158 253 1158 253 1353 391 c 0,22,23
 1574 547 1574 547 1640 829 c 0,24,25
 1656 897 1656 897 1656 956 c 0,26,27
 1656 1063 1656 1063 1603 1138 c 0,28,29
 1518 1258 1518 1258 1336 1258 c 0,30,31
 1085 1258 1085 1258 905 1120 c 0,32,33
 677 945 677 945 617 682 c 0,34,35
 601 612 601 612 601 553 c 0,36,37
 601 445 601 445 654 373 c 0,38,39
 742 254 742 254 921 253 c 0,20,21
1732 1670 m 1,40,41
 1652 1608 1652 1608 1583 1608 c 0,42,43
 1517 1608 1517 1608 1436 1645 c 0,44,45
 1381 1670 1381 1670 1290 1670 c 0,46,47
 1214 1670 1214 1670 1145 1607 c 1,48,-1
 1198 1837 l 1,49,50
 1264 1900 1264 1900 1343 1900 c 0,51,52
 1425 1900 1425 1900 1493 1870 c 0,53,54
 1566 1838 1566 1838 1636 1838 c 0,55,56
 1702 1838 1702 1838 1785 1900 c 1,57,-1
 1732 1670 l 1,40,41
EndSplineSet
Validated: 1
EndChar

StartChar: Odieresis
Encoding: 214 214 152
Width: 1909
GlyphClass: 2
Flags: W
HStem: -20 273<739.634 1175.83> 1258 273<1078.23 1517.51> 1574 356<1165.9 1334.37 1559.9 1728.37>
VStem: 233 368<384.504 751.114> 1656 369<761.475 1123.93>
LayerCount: 2
Fore
SplineSet
1818 1753 m 0,0,1
 1800 1675 1800 1675 1737 1625 c 0,2,3
 1673 1574 1673 1574 1602 1574 c 0,4,5
 1529 1574 1529 1574 1491 1627 c 0,6,7
 1465 1663 1465 1663 1465 1710 c 0,8,9
 1465 1730 1465 1730 1470 1752 c 0,10,11
 1486 1823 1486 1823 1548 1876 c 0,12,13
 1611 1930 1611 1930 1684 1930 c 0,14,15
 1753 1930 1753 1930 1796 1877 c 0,16,17
 1823 1843 1823 1843 1823 1797 c 0,18,19
 1823 1776 1823 1776 1818 1753 c 0,0,1
1424 1753 m 0,20,21
 1406 1675 1406 1675 1343 1625 c 0,22,23
 1279 1574 1279 1574 1208 1574 c 0,24,25
 1135 1574 1135 1574 1097 1627 c 0,26,27
 1071 1663 1071 1663 1071 1710 c 0,28,29
 1071 1730 1071 1730 1076 1752 c 0,30,31
 1092 1823 1092 1823 1154 1876 c 0,32,33
 1217 1930 1217 1930 1290 1930 c 0,34,35
 1359 1930 1359 1930 1402 1877 c 0,36,37
 1429 1843 1429 1843 1429 1797 c 0,38,39
 1429 1776 1429 1776 1424 1753 c 0,20,21
858 -20 m 0,40,41
 507 -20 507 -20 335 188 c 0,42,43
 233 311 233 311 233 492 c 0,44,45
 233 578 233 578 256 676 c 0,46,47
 348 1066 348 1066 733 1328 c 0,48,49
 1032 1531 1032 1531 1399 1531 c 0,50,51
 1746 1531 1746 1531 1922 1323 c 0,52,53
 2025 1201 2025 1201 2025 1019 c 0,54,55
 2025 933 2025 933 2002 835 c 0,56,57
 1910 442 1910 442 1525 182 c 0,58,59
 1226 -20 1226 -20 858 -20 c 0,40,41
921 253 m 0,60,61
 1158 253 1158 253 1353 391 c 0,62,63
 1574 547 1574 547 1640 829 c 0,64,65
 1656 897 1656 897 1656 956 c 0,66,67
 1656 1063 1656 1063 1603 1138 c 0,68,69
 1518 1258 1518 1258 1336 1258 c 0,70,71
 1085 1258 1085 1258 905 1120 c 0,72,73
 677 945 677 945 617 682 c 0,74,75
 601 612 601 612 601 553 c 0,76,77
 601 445 601 445 654 373 c 0,78,79
 742 254 742 254 921 253 c 0,60,61
EndSplineSet
Validated: 1
EndChar

StartChar: multiply
Encoding: 215 215 153
Width: 1221
GlyphClass: 2
Flags: W
DStem2: 275 538 438 326 0.77737 0.629044<0 404.257 708.255 1112.51> 626 1242 394 1056 0.609501 -0.792785<6.05381 327.232 600.705 922.066>
LayerCount: 2
Fore
SplineSet
275 538 m 1,0,-1
 594 797 l 1,1,-1
 394 1056 l 1,2,-1
 626 1242 l 1,3,-1
 826 983 l 1,4,-1
 1145 1242 l 1,5,-1
 1308 1030 l 1,6,-1
 989 771 l 1,7,-1
 1188 511 l 1,8,-1
 956 325 l 1,9,-1
 757 585 l 1,10,-1
 438 326 l 1,11,-1
 275 538 l 1,0,-1
EndSplineSet
Validated: 1
EndChar

StartChar: Oslash
Encoding: 216 216 154
Width: 1909
GlyphClass: 2
Flags: W
HStem: -20 273<835.136 1170.56> 0 21G<260 603> 1258 273<1078.72 1422.35> 1491 20G<1655 1999>
VStem: 233 367<404.455 751.143> 1656 369<761.71 1105.61>
DStem2: 635 403 833 261 0.681991 0.731361<31.1809 1158.24>
LayerCount: 2
Fore
SplineSet
921 253 m 0,0,1
 1157 253 1157 253 1353 391 c 0,2,3
 1573 546 1573 546 1640 829 c 0,4,5
 1656 897 1656 897 1656 956 c 0,6,7
 1656 1042 1656 1042 1622 1107 c 1,8,-1
 833 261 l 1,9,10
 874 253 874 253 921 253 c 0,0,1
260 0 m 1,11,-1
 386 135 l 1,12,13
 357 162 357 162 335 188 c 0,14,15
 233 309 233 309 233 491 c 0,16,17
 233 577 233 577 256 676 c 0,18,19
 346 1065 346 1065 733 1328 c 0,20,21
 1032 1531 1032 1531 1399 1531 c 0,22,23
 1541 1531 1541 1531 1655 1497 c 1,24,-1
 1668 1511 l 1,25,-1
 1999 1511 l 1,26,-1
 1872 1375 l 1,27,28
 1896 1354 1896 1354 1922 1323 c 0,29,30
 2025 1201 2025 1201 2025 1019 c 0,31,32
 2025 933 2025 933 2002 835 c 0,33,34
 1911 446 1911 446 1525 183 c 0,35,36
 1227 -20 1227 -20 858 -20 c 0,37,38
 716 -20 716 -20 603 14 c 1,39,-1
 590 0 l 1,40,-1
 260 0 l 1,11,-1
635 403 m 1,41,-1
 1425 1250 l 1,42,43
 1383 1258 1383 1258 1336 1258 c 0,44,45
 1087 1258 1087 1258 905 1120 c 0,46,47
 679 949 679 949 616 681 c 0,48,49
 600 613 600 613 600 556 c 0,50,51
 600 470 600 470 635 403 c 1,41,-1
EndSplineSet
Validated: 1
EndChar

StartChar: Ugrave
Encoding: 217 217 155
Width: 1721
GlyphClass: 2
Flags: W
HStem: -20 274<691.391 1019.43> 0 21G<1171 1525.62> 1491 20G<544.376 899 1515.38 1870>
VStem: 291 358<297.603 506.122> 549 350<1161 1511> 1520 350<1161 1511>
DStem2: 195.185 -20 545.414 -20 0.224951 0.97437<513.12 1571.35> 1166.38 -20 1516.38 -20 0.224951 0.97437<99.2589 123.137 446.851 1571.31>
LayerCount: 2
Fore
SplineSet
1521 0 m 1,0,-1
 1171 0 l 1,1,-1
 1194 100 l 1,2,3
 1131 67 1131 67 1069 42 c 0,4,5
 912 -20 912 -20 753 -20 c 0,6,7
 495 -20 495 -20 374 123 c 16,8,9
 291 221 291 221 291 348 c 0,10,11
 291 396 291 396 303 447 c 2,12,-1
 549 1511 l 1,13,-1
 899 1511 l 1,14,-1
 656 459 l 2,15,16
 649 428 649 428 649 401 c 0,17,18
 649 347 649 347 679 311 c 0,19,20
 728 254 728 254 834 254 c 0,21,22
 994 254 994 254 1127 341 c 0,23,24
 1271 435 1271 435 1310 601 c 2,25,-1
 1520 1511 l 1,26,-1
 1870 1511 l 1,27,-1
 1521 0 l 1,0,-1
1273 1559 m 1,28,-1
 887 1696 l 1,29,-1
 1080 1966 l 1,30,-1
 1418 1760 l 1,31,-1
 1273 1559 l 1,28,-1
EndSplineSet
Validated: 1
EndChar

StartChar: Uacute
Encoding: 218 218 156
Width: 1721
GlyphClass: 2
Flags: W
HStem: -20 274<691.391 1019.43> 0 21G<1171 1525.62> 1491 20G<544.376 899 1515.38 1870>
VStem: 291 358<297.603 506.122> 549 350<1161 1511> 1520 350<1161 1511>
DStem2: 195.185 -20 545.414 -20 0.224951 0.97437<513.12 1571.35> 1166.38 -20 1516.38 -20 0.224951 0.97437<99.2589 123.137 446.851 1571.31>
LayerCount: 2
Fore
SplineSet
1521 0 m 1,0,-1
 1171 0 l 1,1,-1
 1194 100 l 1,2,3
 1131 67 1131 67 1069 42 c 0,4,5
 912 -20 912 -20 753 -20 c 0,6,7
 495 -20 495 -20 374 123 c 16,8,9
 291 221 291 221 291 348 c 0,10,11
 291 396 291 396 303 447 c 2,12,-1
 549 1511 l 1,13,-1
 899 1511 l 1,14,-1
 656 459 l 2,15,16
 649 428 649 428 649 401 c 0,17,18
 649 347 649 347 679 311 c 0,19,20
 728 254 728 254 834 254 c 0,21,22
 994 254 994 254 1127 341 c 0,23,24
 1271 435 1271 435 1310 601 c 2,25,-1
 1520 1511 l 1,26,-1
 1870 1511 l 1,27,-1
 1521 0 l 1,0,-1
1190 1559 m 1,28,-1
 1137 1760 l 1,29,-1
 1571 1966 l 1,30,-1
 1640 1696 l 1,31,-1
 1190 1559 l 1,28,-1
EndSplineSet
Validated: 1
EndChar

StartChar: Ucircumflex
Encoding: 219 219 157
Width: 1721
GlyphClass: 2
Flags: W
HStem: -20 274<691.391 1019.43> 0 21G<1171 1525.62> 1491 20G<544.376 899 1515.38 1870>
VStem: 291 358<297.603 506.122> 549 350<1161 1511> 1520 350<1161 1511>
DStem2: 195.185 -20 545.414 -20 0.224951 0.97437<513.12 1571.35> 1166.38 -20 1516.38 -20 0.224951 0.97437<99.2589 123.137 446.851 1571.31>
LayerCount: 2
Fore
SplineSet
1521 0 m 1,0,-1
 1171 0 l 1,1,-1
 1194 100 l 1,2,3
 1131 67 1131 67 1069 42 c 0,4,5
 912 -20 912 -20 753 -20 c 0,6,7
 495 -20 495 -20 374 123 c 16,8,9
 291 221 291 221 291 348 c 0,10,11
 291 396 291 396 303 447 c 2,12,-1
 549 1511 l 1,13,-1
 899 1511 l 1,14,-1
 656 459 l 2,15,16
 649 428 649 428 649 401 c 0,17,18
 649 347 649 347 679 311 c 0,19,20
 728 254 728 254 834 254 c 0,21,22
 994 254 994 254 1127 341 c 0,23,24
 1271 435 1271 435 1310 601 c 2,25,-1
 1520 1511 l 1,26,-1
 1870 1511 l 1,27,-1
 1521 0 l 1,0,-1
987 1559 m 1,28,-1
 934 1760 l 1,29,-1
 1312 1966 l 1,30,-1
 1594 1760 l 1,31,-1
 1449 1559 l 1,32,-1
 1247 1684 l 1,33,-1
 987 1559 l 1,28,-1
EndSplineSet
Validated: 1
EndChar

StartChar: Udieresis
Encoding: 220 220 158
Width: 1721
GlyphClass: 2
Flags: W
HStem: -20 274<691.391 1019.43> 0 21G<1171 1525.62> 1491 20G<544.376 899 1515.38 1870> 1574 356<974.9 1143.37 1368.9 1537.37>
VStem: 291 358<297.603 506.122> 549 350<1161 1511> 1520 350<1161 1511>
DStem2: 195.185 -20 545.414 -20 0.224951 0.97437<513.12 1571.35> 1166.38 -20 1516.38 -20 0.224951 0.97437<99.2589 123.137 446.851 1571.31>
LayerCount: 2
Fore
SplineSet
1521 0 m 1,0,-1
 1171 0 l 1,1,-1
 1194 100 l 1,2,3
 1131 67 1131 67 1069 42 c 0,4,5
 912 -20 912 -20 753 -20 c 0,6,7
 495 -20 495 -20 374 123 c 16,8,9
 291 221 291 221 291 348 c 0,10,11
 291 396 291 396 303 447 c 2,12,-1
 549 1511 l 1,13,-1
 899 1511 l 1,14,-1
 656 459 l 2,15,16
 649 428 649 428 649 401 c 0,17,18
 649 347 649 347 679 311 c 0,19,20
 728 254 728 254 834 254 c 0,21,22
 994 254 994 254 1127 341 c 0,23,24
 1271 435 1271 435 1310 601 c 2,25,-1
 1520 1511 l 1,26,-1
 1870 1511 l 1,27,-1
 1521 0 l 1,0,-1
1627 1753 m 0,28,29
 1609 1675 1609 1675 1546 1625 c 0,30,31
 1482 1574 1482 1574 1411 1574 c 0,32,33
 1338 1574 1338 1574 1300 1627 c 0,34,35
 1274 1663 1274 1663 1274 1710 c 0,36,37
 1274 1730 1274 1730 1279 1752 c 0,38,39
 1295 1823 1295 1823 1357 1876 c 0,40,41
 1420 1930 1420 1930 1493 1930 c 0,42,43
 1562 1930 1562 1930 1605 1877 c 0,44,45
 1632 1843 1632 1843 1632 1797 c 0,46,47
 1632 1776 1632 1776 1627 1753 c 0,28,29
1233 1753 m 0,48,49
 1215 1675 1215 1675 1152 1625 c 0,50,51
 1088 1574 1088 1574 1017 1574 c 0,52,53
 944 1574 944 1574 906 1627 c 0,54,55
 880 1663 880 1663 880 1710 c 0,56,57
 880 1730 880 1730 885 1752 c 0,58,59
 901 1823 901 1823 963 1876 c 0,60,61
 1026 1930 1026 1930 1099 1930 c 0,62,63
 1168 1930 1168 1930 1211 1877 c 0,64,65
 1238 1843 1238 1843 1238 1797 c 0,66,67
 1238 1776 1238 1776 1233 1753 c 0,48,49
EndSplineSet
Validated: 1
EndChar

StartChar: Yacute
Encoding: 221 221 159
Width: 1621
GlyphClass: 2
Flags: W
HStem: 0 21G<621 975.615> 1491 20G<354 721.71 1606.37 1965>
VStem: 354 361<1150 1511> 621 350<0 350> 1623 342<1169 1511>
DStem2: 715 1511 354 1511 0.320693 -0.947183<0 820.609> 976 733 1070 429 0.637378 0.770551<0 1011.87>
LayerCount: 2
Fore
SplineSet
621 0 m 1,0,-1
 720 430 l 1,1,-1
 354 1511 l 1,2,-1
 715 1511 l 1,3,-1
 976 733 l 1,4,-1
 1623 1511 l 1,5,-1
 1965 1511 l 1,6,-1
 1070 429 l 1,7,-1
 971 0 l 1,8,-1
 621 0 l 1,0,-1
1168 1559 m 1,9,-1
 1115 1760 l 1,10,-1
 1549 1966 l 1,11,-1
 1618 1696 l 1,12,-1
 1168 1559 l 1,9,-1
EndSplineSet
Validated: 1
EndChar

StartChar: Thorn
Encoding: 222 222 160
Width: 1600
GlyphClass: 2
Flags: W
HStem: 0 21G<200 554.604> 118 259<732.039 1031.1> 1057 274<982.828 1275.59> 1491 20G<544.381 899>
VStem: 200 350<0 350> 1329 373<707.145 1004.13>
DStem2: 200 0 550 0 0.224951 0.97437<78.7329 970.159 1328.73 1550.78>
LayerCount: 2
Fore
SplineSet
200 0 m 1,0,-1
 549 1511 l 1,1,-1
 899 1511 l 1,2,-1
 831 1218 l 1,3,4
 881 1246 881 1246 935 1268 c 0,5,6
 1086 1331 1086 1331 1235 1331 c 0,7,8
 1484 1331 1484 1331 1622 1166 c 0,9,10
 1702 1070 1702 1070 1702 934 c 0,11,12
 1702 876 1702 876 1687 809 c 0,13,14
 1612 474 1612 474 1288 264 c 0,15,16
 1063 118 1063 118 829 118 c 0,17,18
 722 118 722 118 698 201 c 0,19,20
 692 222 692 222 692 245 c 128,-1,21
 692 268 692 268 698 291 c 0,22,23
 711 342 711 342 746 396 c 1,24,25
 793 377 793 377 855 377 c 0,26,27
 993 377 993 377 1127 482 c 0,28,29
 1277 600 1277 600 1315 761 c 0,30,31
 1329 821 1329 821 1329 869 c 0,32,33
 1329 924 1329 924 1309 968 c 0,34,35
 1268 1057 1268 1057 1151 1057 c 0,36,37
 1019 1057 1019 1057 891 957 c 0,38,39
 745 843 745 843 704 669 c 2,40,-1
 550 0 l 1,41,-1
 200 0 l 1,0,-1
EndSplineSet
Validated: 1
EndChar

StartChar: germandbls
Encoding: 223 223 161
Width: 1476
GlyphClass: 2
Flags: W
HStem: -20 259<657.793 939.164> 0 21G<200 554.622> 800 234<859 1088.21> 1258 273<940.014 1254>
VStem: 200 350<0 350> 1154 366<475.652 747.582> 1156 340<1098.84 1313.5>
DStem2: 195.383 -20 545.383 -20 0.224951 0.97437<99.2589 1229.71>
LayerCount: 2
Fore
SplineSet
200 0 m 25,0,-1
 412 920 l 18,1,2
 482 1223 482 1223 749 1400 c 0,3,4
 947 1531 947 1531 1170 1531 c 0,5,6
 1338 1531 1338 1531 1431 1431 c 0,7,8
 1496 1361 1496 1361 1496 1266 c 0,9,10
 1496 1233 1496 1233 1488 1195 c 0,11,12
 1457 1064 1457 1064 1346 977 c 1,13,14
 1421 935 1421 935 1463 869 c 0,15,16
 1520 780 1520 780 1520 673 c 0,17,18
 1520 624 1520 624 1508 570 c 0,19,20
 1446 311 1446 311 1188 131 c 0,21,22
 972 -20 972 -20 754 -20 c 0,23,24
 647 -20 647 -20 624 63 c 0,25,26
 618 85 618 85 618 109 c 0,27,28
 618 130 618 130 623 153 c 0,29,30
 633 201 633 201 672 258 c 1,31,32
 718 239 718 239 780 239 c 0,33,34
 900 239 900 239 1011 334 c 0,35,36
 1115 423 1115 423 1145 559 c 0,37,38
 1154 600 1154 600 1154 634 c 0,39,40
 1154 714 1154 714 1100 756 c 0,41,42
 1042 800 1042 800 880 800 c 9,43,-1
 805 801 l 25,44,-1
 859 1034 l 25,45,-1
 934 1034 l 17,46,47
 1026 1034 1026 1034 1093 1081 c 0,48,49
 1139 1113 1139 1113 1152 1166 c 0,50,51
 1156 1182 1156 1182 1156 1196 c 0,52,53
 1156 1222 1156 1222 1141 1237 c 0,54,55
 1120 1258 1120 1258 1079 1258 c 0,56,57
 993 1258 993 1258 908 1192 c 0,58,59
 807 1114 807 1114 761 913 c 10,60,-1
 550 0 l 25,61,-1
 200 0 l 25,0,-1
EndSplineSet
Validated: 1
EndChar

StartChar: agrave
Encoding: 224 224 162
Width: 1447
GlyphClass: 2
Flags: W
HStem: -20 274<607.415 771.16> 0 21G<897 1251.62> 846 274<815.015 1160>
VStem: 200 363<296.87 586.652> 897 350<0 350> 918 15<341.253 358.32>
DStem2: 892.383 -20 1242.38 -20 0.224951 0.97437<99.2589 856.739>
LayerCount: 2
Fore
SplineSet
1247 0 m 1,0,-1
 897 0 l 1,1,-1
 1073 761 l 2,2,3
 1081 798 1081 798 1065 820 c 24,4,5
 1046 846 1046 846 1000 846 c 0,6,7
 868 846 868 846 761 771 c 0,8,9
 613 667 613 667 575 500 c 0,10,11
 563 447 563 447 563 407 c 0,12,13
 563 358 563 358 583 325 c 0,14,15
 629 254 629 254 717 254 c 0,16,17
 835 254 835 254 933 364 c 1,18,19
 928 328 928 328 918 283 c 0,20,21
 900 201 900 201 862 133 c 0,22,23
 777 -20 777 -20 641 -20 c 0,24,25
 386 -20 386 -20 277 136 c 0,26,27
 200 246 200 246 200 379 c 0,28,29
 200 436 200 436 214 495 c 0,30,31
 277 760 277 760 579 966 c 0,32,33
 805 1120 805 1120 1081 1120 c 0,34,35
 1239 1120 1239 1120 1337 1032 c 0,36,37
 1427 951 1427 951 1427 826 c 0,38,39
 1427 780 1427 780 1415 728 c 2,40,-1
 1247 0 l 1,0,-1
1196 1144 m 1,41,-1
 810 1281 l 1,42,-1
 1003 1551 l 1,43,-1
 1342 1345 l 1,44,-1
 1196 1144 l 1,41,-1
EndSplineSet
Validated: 1
EndChar

StartChar: aacute
Encoding: 225 225 163
Width: 1447
GlyphClass: 2
Flags: W
HStem: -20 274<607.415 771.16> 0 21G<897 1251.62> 846 274<815.015 1160>
VStem: 200 363<296.87 586.652> 897 350<0 350> 918 15<341.253 358.32>
DStem2: 892.383 -20 1242.38 -20 0.224951 0.97437<99.2589 856.739>
LayerCount: 2
Fore
SplineSet
1247 0 m 1,0,-1
 897 0 l 1,1,-1
 1073 761 l 2,2,3
 1081 798 1081 798 1065 820 c 24,4,5
 1046 846 1046 846 1000 846 c 0,6,7
 868 846 868 846 761 771 c 0,8,9
 613 667 613 667 575 500 c 0,10,11
 563 447 563 447 563 407 c 0,12,13
 563 358 563 358 583 325 c 0,14,15
 629 254 629 254 717 254 c 0,16,17
 835 254 835 254 933 364 c 1,18,19
 928 328 928 328 918 283 c 0,20,21
 900 201 900 201 862 133 c 0,22,23
 777 -20 777 -20 641 -20 c 0,24,25
 386 -20 386 -20 277 136 c 0,26,27
 200 246 200 246 200 379 c 0,28,29
 200 436 200 436 214 495 c 0,30,31
 277 760 277 760 579 966 c 0,32,33
 805 1120 805 1120 1081 1120 c 0,34,35
 1239 1120 1239 1120 1337 1032 c 0,36,37
 1427 951 1427 951 1427 826 c 0,38,39
 1427 780 1427 780 1415 728 c 2,40,-1
 1247 0 l 1,0,-1
984 1144 m 1,41,-1
 932 1345 l 1,42,-1
 1365 1551 l 1,43,-1
 1434 1281 l 1,44,-1
 984 1144 l 1,41,-1
EndSplineSet
Validated: 1
EndChar

StartChar: acircumflex
Encoding: 226 226 164
Width: 1447
GlyphClass: 2
Flags: W
HStem: -20 274<607.415 771.16> 0 21G<897 1251.62> 846 274<815.015 1160> 1511 20G<1140.4 1204.48>
VStem: 200 363<296.87 586.652> 897 350<0 350> 918 15<341.253 358.32>
DStem2: 892.383 -20 1242.38 -20 0.224951 0.97437<99.2589 856.739>
LayerCount: 2
Fore
SplineSet
1247 0 m 1,0,-1
 897 0 l 1,1,-1
 1073 761 l 2,2,3
 1081 798 1081 798 1065 820 c 24,4,5
 1046 846 1046 846 1000 846 c 0,6,7
 868 846 868 846 761 771 c 0,8,9
 613 667 613 667 575 500 c 0,10,11
 563 447 563 447 563 407 c 0,12,13
 563 358 563 358 583 325 c 0,14,15
 629 254 629 254 717 254 c 0,16,17
 835 254 835 254 933 364 c 1,18,19
 928 328 928 328 918 283 c 0,20,21
 900 201 900 201 862 133 c 0,22,23
 777 -20 777 -20 641 -20 c 0,24,25
 386 -20 386 -20 277 136 c 0,26,27
 200 246 200 246 200 379 c 0,28,29
 200 436 200 436 214 495 c 0,30,31
 277 760 277 760 579 966 c 0,32,33
 805 1120 805 1120 1081 1120 c 0,34,35
 1239 1120 1239 1120 1337 1032 c 0,36,37
 1427 951 1427 951 1427 826 c 0,38,39
 1427 780 1427 780 1415 728 c 2,40,-1
 1247 0 l 1,0,-1
852 1124 m 1,41,-1
 800 1325 l 1,42,-1
 1177 1531 l 1,43,-1
 1460 1325 l 1,44,-1
 1314 1124 l 1,45,-1
 1112 1249 l 1,46,-1
 852 1124 l 1,41,-1
EndSplineSet
Validated: 1
EndChar

StartChar: atilde
Encoding: 227 227 165
Width: 1447
GlyphClass: 2
Flags: W
HStem: -20 274<607.415 771.16> 0 21G<897 1251.62> 846 274<815.015 1160> 1189 230<1138.24 1386.27> 1251 230<898.615 1164.83>
VStem: 200 363<296.87 586.652> 897 350<0 350> 918 15<341.253 358.32>
DStem2: 892.383 -20 1242.38 -20 0.224951 0.97437<99.2589 856.739>
LayerCount: 2
Fore
SplineSet
1247 0 m 1,0,-1
 897 0 l 1,1,-1
 1073 761 l 2,2,3
 1081 798 1081 798 1065 820 c 24,4,5
 1046 846 1046 846 1000 846 c 0,6,7
 868 846 868 846 761 771 c 0,8,9
 613 667 613 667 575 500 c 0,10,11
 563 447 563 447 563 407 c 0,12,13
 563 358 563 358 583 325 c 0,14,15
 629 254 629 254 717 254 c 0,16,17
 835 254 835 254 933 364 c 1,18,19
 928 328 928 328 918 283 c 0,20,21
 900 201 900 201 862 133 c 0,22,23
 777 -20 777 -20 641 -20 c 0,24,25
 386 -20 386 -20 277 136 c 0,26,27
 200 246 200 246 200 379 c 0,28,29
 200 436 200 436 214 495 c 0,30,31
 277 760 277 760 579 966 c 0,32,33
 805 1120 805 1120 1081 1120 c 0,34,35
 1239 1120 1239 1120 1337 1032 c 0,36,37
 1427 951 1427 951 1427 826 c 0,38,39
 1427 780 1427 780 1415 728 c 2,40,-1
 1247 0 l 1,0,-1
1411 1251 m 1,41,42
 1332 1189 1332 1189 1262 1189 c 0,43,44
 1196 1189 1196 1189 1115 1226 c 0,45,46
 1060 1251 1060 1251 969 1251 c 0,47,48
 893 1251 893 1251 824 1188 c 1,49,-1
 877 1418 l 1,50,51
 943 1481 943 1481 1022 1481 c 0,52,53
 1103 1481 1103 1481 1172 1451 c 0,54,55
 1246 1419 1246 1419 1316 1419 c 0,56,57
 1382 1419 1382 1419 1464 1481 c 1,58,-1
 1411 1251 l 1,41,42
EndSplineSet
Validated: 1
EndChar

StartChar: adieresis
Encoding: 228 228 166
Width: 1447
GlyphClass: 2
Flags: W
HStem: -20 274<607.415 771.16> 0 21G<897 1251.62> 846 274<815.015 1160> 1150 356<845.9 1014.37 1239.9 1408.37>
VStem: 200 363<296.87 586.652> 897 350<0 350> 918 15<341.253 358.32>
DStem2: 892.383 -20 1242.38 -20 0.224951 0.97437<99.2589 856.739>
LayerCount: 2
Fore
SplineSet
1498 1329 m 0,0,1
 1480 1251 1480 1251 1417 1201 c 0,2,3
 1353 1150 1353 1150 1282 1150 c 0,4,5
 1209 1150 1209 1150 1171 1203 c 0,6,7
 1145 1239 1145 1239 1145 1286 c 0,8,9
 1145 1306 1145 1306 1150 1328 c 0,10,11
 1166 1399 1166 1399 1228 1452 c 0,12,13
 1291 1506 1291 1506 1364 1506 c 0,14,15
 1433 1506 1433 1506 1476 1453 c 0,16,17
 1503 1419 1503 1419 1503 1373 c 0,18,19
 1503 1352 1503 1352 1498 1329 c 0,0,1
1104 1329 m 0,20,21
 1086 1251 1086 1251 1023 1201 c 0,22,23
 959 1150 959 1150 888 1150 c 0,24,25
 815 1150 815 1150 777 1203 c 0,26,27
 751 1239 751 1239 751 1286 c 0,28,29
 751 1306 751 1306 756 1328 c 0,30,31
 772 1399 772 1399 834 1452 c 0,32,33
 897 1506 897 1506 970 1506 c 0,34,35
 1039 1506 1039 1506 1082 1453 c 0,36,37
 1109 1419 1109 1419 1109 1373 c 0,38,39
 1109 1352 1109 1352 1104 1329 c 0,20,21
1247 0 m 1,40,-1
 897 0 l 1,41,-1
 1073 761 l 2,42,43
 1081 798 1081 798 1065 820 c 24,44,45
 1046 846 1046 846 1000 846 c 0,46,47
 868 846 868 846 761 771 c 0,48,49
 613 667 613 667 575 500 c 0,50,51
 563 447 563 447 563 407 c 0,52,53
 563 358 563 358 583 325 c 0,54,55
 629 254 629 254 717 254 c 0,56,57
 835 254 835 254 933 364 c 1,58,59
 928 328 928 328 918 283 c 0,60,61
 900 201 900 201 862 133 c 0,62,63
 777 -20 777 -20 641 -20 c 0,64,65
 386 -20 386 -20 277 136 c 0,66,67
 200 246 200 246 200 379 c 0,68,69
 200 436 200 436 214 495 c 0,70,71
 277 760 277 760 579 966 c 0,72,73
 805 1120 805 1120 1081 1120 c 0,74,75
 1239 1120 1239 1120 1337 1032 c 0,76,77
 1427 951 1427 951 1427 826 c 0,78,79
 1427 780 1427 780 1415 728 c 2,80,-1
 1247 0 l 1,40,-1
EndSplineSet
Validated: 1
EndChar

StartChar: aring
Encoding: 229 229 167
Width: 1447
GlyphClass: 2
Flags: W
HStem: -20 274<607.415 771.16> 0 21G<897 1251.62> 846 274<815.015 1160> 1140 139<1064.92 1199> 1438 139<1074.16 1208.75>
VStem: 200 363<296.87 586.652> 897 350<0 350> 918 15<341.253 358.32>
DStem2: 892.383 -20 1242.38 -20 0.224951 0.97437<99.2589 856.739>
LayerCount: 2
Fore
SplineSet
1214 1356 m 0,0,1
 1222 1392 1222 1392 1205 1415 c 128,-1,2
 1188 1438 1188 1438 1156 1438 c 0,3,4
 1123 1438 1123 1438 1094 1414 c 0,5,6
 1066 1391 1066 1391 1059 1359 c 128,-1,7
 1052 1327 1052 1327 1069 1303 c 128,-1,8
 1086 1279 1086 1279 1119 1279 c 0,9,10
 1154 1279 1154 1279 1180 1302 c 0,11,12
 1208 1327 1208 1327 1214 1356 c 0,0,1
1355 1353 m 0,13,14
 1336 1270 1336 1270 1259 1205 c 128,-1,15
 1182 1140 1182 1140 1084 1140 c 128,-1,16
 986 1140 986 1140 940 1206 c 0,17,18
 906 1255 906 1255 906 1311 c 0,19,20
 906 1334 906 1334 912 1358 c 0,21,22
 934 1445 934 1445 1011 1511 c 128,-1,23
 1088 1577 1088 1577 1185 1577 c 0,24,25
 1278 1577 1278 1577 1329 1512 c 0,26,27
 1362 1469 1362 1469 1362 1412 c 0,28,29
 1362 1385 1362 1385 1355 1353 c 0,13,14
1247 0 m 1,30,-1
 897 0 l 1,31,-1
 1073 761 l 2,32,33
 1081 798 1081 798 1065 820 c 24,34,35
 1046 846 1046 846 1000 846 c 0,36,37
 868 846 868 846 761 771 c 0,38,39
 613 667 613 667 575 500 c 0,40,41
 563 447 563 447 563 407 c 0,42,43
 563 358 563 358 583 325 c 0,44,45
 629 254 629 254 717 254 c 0,46,47
 835 254 835 254 933 364 c 1,48,49
 928 328 928 328 918 283 c 0,50,51
 900 201 900 201 862 133 c 0,52,53
 777 -20 777 -20 641 -20 c 0,54,55
 386 -20 386 -20 277 136 c 0,56,57
 200 246 200 246 200 379 c 0,58,59
 200 436 200 436 214 495 c 0,60,61
 277 760 277 760 579 966 c 0,62,63
 805 1120 805 1120 1081 1120 c 0,64,65
 1239 1120 1239 1120 1337 1032 c 0,66,67
 1427 951 1427 951 1427 826 c 0,68,69
 1427 780 1427 780 1415 728 c 2,70,-1
 1247 0 l 1,30,-1
EndSplineSet
Validated: 1
EndChar

StartChar: ae
Encoding: 230 230 168
Width: 2147
GlyphClass: 2
Flags: W
HStem: -20 274<607.415 771.16 1410.1 1735.18> 0 21G<897 1251> 434 250<1469 1793> 846 274<815.015 1160 1608.44 2026.77>
VStem: 200 363<296.87 586.652> 918 15<341.253 358.464>
LayerCount: 2
Fore
SplineSet
1247 0 m 1,0,-1
 897 0 l 1,1,-1
 1073 761 l 2,2,3
 1081 797 1081 797 1065 820 c 0,4,5
 1046 846 1046 846 1000 846 c 0,6,7
 868 846 868 846 761 771 c 0,8,9
 613 667 613 667 575 500 c 0,10,11
 563 447 563 447 563 407 c 0,12,13
 563 358 563 358 583 325 c 1,14,15
 629 254 629 254 717 254 c 0,16,17
 835 254 835 254 933 364 c 1,18,19
 928 329 928 329 918 283 c 0,20,21
 900 201 900 201 862 133 c 0,22,23
 777 -20 777 -20 641 -20 c 0,24,25
 386 -20 386 -20 277 136 c 0,26,27
 200 246 200 246 200 379 c 0,28,29
 200 436 200 436 214 495 c 0,30,31
 277 760 277 760 579 966 c 0,32,33
 805 1120 805 1120 1081 1120 c 0,34,35
 1239 1120 1239 1120 1337 1032 c 0,36,37
 1367 1005 1367 1005 1387 974 c 1,38,39
 1613 1120 1613 1120 1880 1120 c 0,40,41
 2152 1120 2152 1120 2284 942 c 1,42,-1
 1973 742 l 1,43,44
 1938 847 1938 847 1798 847 c 0,45,46
 1655 847 1655 847 1551 763 c 0,47,48
 1505 726 1505 726 1469 684 c 1,49,-1
 1851 684 l 1,50,-1
 1793 434 l 1,51,-1
 1364 434 l 1,52,53
 1364 363 1364 363 1395 317 c 0,54,55
 1437 254 1437 254 1547 254 c 0,56,57
 1688 254 1688 254 1795 337 c 0,58,59
 1871 396 1871 396 1916 469 c 1,60,-1
 2116 249 l 1,61,62
 2048 186 2048 186 1969 134 c 0,63,64
 1736 -20 1736 -20 1466 -20 c 0,65,66
 1344 -20 1344 -20 1251 15 c 1,67,-1
 1247 0 l 1,0,-1
EndSplineSet
Validated: 1
EndChar

StartChar: ccedilla
Encoding: 231 231 169
Width: 1348
GlyphClass: 2
Flags: W
HStem: -410 21G<535.396 660.5> -10 264<817 936.757> 847 273<817.351 1226.64>
VStem: 199 366<302.18 586.22> 546 272<-139.388 -8.375>
LayerCount: 2
Fore
SplineSet
1317 249 m 1,0,1
 1246 184 1246 184 1170 134 c 0,2,3
 1003 24 1003 24 817 -8 c 1,4,5
 818 -20 818 -20 818 -32 c 0,6,7
 818 -84 818 -84 805 -135 c 0,8,9
 764 -306 764 -306 557 -410 c 1,10,-1
 355 -223 l 1,11,12
 512 -176 512 -176 540 -72 c 0,13,14
 549 -39 549 -39 546 -10 c 1,15,16
 378 19 378 19 279 136 c 0,17,18
 199 231 199 231 199 368 c 0,19,20
 199 433 199 433 216 503 c 0,21,22
 281 770 281 770 579 968 c 0,23,24
 809 1120 809 1120 1081 1120 c 128,-1,25
 1353 1120 1353 1120 1485 942 c 1,26,-1
 1174 742 l 1,27,28
 1139 847 1139 847 999 847 c 0,29,30
 860 847 860 847 752 763 c 0,31,32
 610 652 610 652 574 493 c 0,33,34
 565 453 565 453 565 420 c 0,35,36
 565 358 565 358 596 317 c 0,37,38
 644 254 644 254 748 254 c 0,39,40
 889 254 889 254 996 337 c 0,41,42
 1072 396 1072 396 1117 469 c 1,43,-1
 1317 249 l 1,0,1
EndSplineSet
Validated: 1
EndChar

StartChar: egrave
Encoding: 232 232 170
Width: 1348
GlyphClass: 2
Flags: W
HStem: -20 274<611.732 936.179> 434 250<670 994> 847 273<812.376 1226.64>
VStem: 199 366<301.75 433.364>
LayerCount: 2
Fore
SplineSet
1317 249 m 1,0,1
 1252 189 1252 189 1170 134 c 0,2,3
 937 -20 937 -20 667 -20 c 0,4,5
 412 -20 412 -20 279 136 c 0,6,7
 199 230 199 230 199 368 c 0,8,9
 199 427 199 427 216 503 c 0,10,11
 275 767 275 767 579 968 c 0,12,13
 808 1120 808 1120 1081 1120 c 0,14,15
 1353 1120 1353 1120 1485 942 c 1,16,-1
 1174 742 l 1,17,18
 1139 847 1139 847 999 847 c 0,19,20
 856 847 856 847 752 763 c 0,21,22
 706 726 706 726 670 684 c 1,23,-1
 1052 684 l 1,24,-1
 994 434 l 1,25,-1
 565 434 l 1,26,27
 565 363 565 363 596 317 c 0,28,29
 638 254 638 254 748 254 c 0,30,31
 889 254 889 254 996 337 c 0,32,33
 1072 396 1072 396 1117 469 c 1,34,-1
 1317 249 l 1,0,1
1196 1144 m 1,35,-1
 810 1281 l 1,36,-1
 1003 1551 l 1,37,-1
 1342 1345 l 1,38,-1
 1196 1144 l 1,35,-1
EndSplineSet
Validated: 1
EndChar

StartChar: eacute
Encoding: 233 233 171
Width: 1348
GlyphClass: 2
Flags: W
HStem: -20 274<611.732 936.179> 434 250<670 994> 847 273<812.376 1226.64>
VStem: 199 366<301.75 433.364>
LayerCount: 2
Fore
SplineSet
1317 249 m 1,0,1
 1252 189 1252 189 1170 134 c 0,2,3
 937 -20 937 -20 667 -20 c 0,4,5
 412 -20 412 -20 279 136 c 0,6,7
 199 230 199 230 199 368 c 0,8,9
 199 427 199 427 216 503 c 0,10,11
 275 767 275 767 579 968 c 0,12,13
 808 1120 808 1120 1081 1120 c 0,14,15
 1353 1120 1353 1120 1485 942 c 1,16,-1
 1174 742 l 1,17,18
 1139 847 1139 847 999 847 c 0,19,20
 856 847 856 847 752 763 c 0,21,22
 706 726 706 726 670 684 c 1,23,-1
 1052 684 l 1,24,-1
 994 434 l 1,25,-1
 565 434 l 1,26,27
 565 363 565 363 596 317 c 0,28,29
 638 254 638 254 748 254 c 0,30,31
 889 254 889 254 996 337 c 0,32,33
 1072 396 1072 396 1117 469 c 1,34,-1
 1317 249 l 1,0,1
984 1144 m 1,35,-1
 932 1345 l 1,36,-1
 1365 1551 l 1,37,-1
 1434 1281 l 1,38,-1
 984 1144 l 1,35,-1
EndSplineSet
Validated: 1
EndChar

StartChar: ecircumflex
Encoding: 234 234 172
Width: 1348
GlyphClass: 2
Flags: W
HStem: -20 274<611.732 936.179> 434 250<670 994> 847 273<812.376 1226.64> 1511 20G<1140.4 1204.48>
VStem: 199 366<301.75 433.364>
LayerCount: 2
Fore
SplineSet
1317 249 m 1,0,1
 1252 189 1252 189 1170 134 c 0,2,3
 937 -20 937 -20 667 -20 c 0,4,5
 412 -20 412 -20 279 136 c 0,6,7
 199 230 199 230 199 368 c 0,8,9
 199 427 199 427 216 503 c 0,10,11
 275 767 275 767 579 968 c 0,12,13
 808 1120 808 1120 1081 1120 c 0,14,15
 1353 1120 1353 1120 1485 942 c 1,16,-1
 1174 742 l 1,17,18
 1139 847 1139 847 999 847 c 0,19,20
 856 847 856 847 752 763 c 0,21,22
 706 726 706 726 670 684 c 1,23,-1
 1052 684 l 1,24,-1
 994 434 l 1,25,-1
 565 434 l 1,26,27
 565 363 565 363 596 317 c 0,28,29
 638 254 638 254 748 254 c 0,30,31
 889 254 889 254 996 337 c 0,32,33
 1072 396 1072 396 1117 469 c 1,34,-1
 1317 249 l 1,0,1
852 1124 m 1,35,-1
 800 1325 l 1,36,-1
 1177 1531 l 1,37,-1
 1460 1325 l 1,38,-1
 1314 1124 l 1,39,-1
 1112 1249 l 1,40,-1
 852 1124 l 1,35,-1
EndSplineSet
Validated: 1
EndChar

StartChar: edieresis
Encoding: 235 235 173
Width: 1348
GlyphClass: 2
Flags: W
HStem: -20 274<611.732 936.179> 434 250<670 994> 847 273<812.376 1226.64> 1150 356<845.9 1014.37 1239.9 1408.37>
VStem: 199 366<301.75 433.364>
LayerCount: 2
Fore
SplineSet
1498 1329 m 0,0,1
 1480 1251 1480 1251 1417 1201 c 0,2,3
 1353 1150 1353 1150 1282 1150 c 0,4,5
 1209 1150 1209 1150 1171 1203 c 0,6,7
 1145 1239 1145 1239 1145 1286 c 0,8,9
 1145 1306 1145 1306 1150 1328 c 0,10,11
 1166 1399 1166 1399 1228 1452 c 0,12,13
 1291 1506 1291 1506 1364 1506 c 0,14,15
 1433 1506 1433 1506 1476 1453 c 0,16,17
 1503 1419 1503 1419 1503 1373 c 0,18,19
 1503 1352 1503 1352 1498 1329 c 0,0,1
1104 1329 m 0,20,21
 1086 1251 1086 1251 1023 1201 c 0,22,23
 959 1150 959 1150 888 1150 c 0,24,25
 815 1150 815 1150 777 1203 c 0,26,27
 751 1239 751 1239 751 1286 c 0,28,29
 751 1306 751 1306 756 1328 c 0,30,31
 772 1399 772 1399 834 1452 c 0,32,33
 897 1506 897 1506 970 1506 c 0,34,35
 1039 1506 1039 1506 1082 1453 c 0,36,37
 1109 1419 1109 1419 1109 1373 c 0,38,39
 1109 1352 1109 1352 1104 1329 c 0,20,21
1317 249 m 1,40,41
 1252 189 1252 189 1170 134 c 0,42,43
 937 -20 937 -20 667 -20 c 0,44,45
 412 -20 412 -20 279 136 c 0,46,47
 199 230 199 230 199 368 c 0,48,49
 199 427 199 427 216 503 c 0,50,51
 275 767 275 767 579 968 c 0,52,53
 808 1120 808 1120 1081 1120 c 0,54,55
 1353 1120 1353 1120 1485 942 c 1,56,-1
 1174 742 l 1,57,58
 1139 847 1139 847 999 847 c 0,59,60
 856 847 856 847 752 763 c 0,61,62
 706 726 706 726 670 684 c 1,63,-1
 1052 684 l 1,64,-1
 994 434 l 1,65,-1
 565 434 l 1,66,67
 565 363 565 363 596 317 c 0,68,69
 638 254 638 254 748 254 c 0,70,71
 889 254 889 254 996 337 c 0,72,73
 1072 396 1072 396 1117 469 c 1,74,-1
 1317 249 l 1,40,41
EndSplineSet
Validated: 1
EndChar

StartChar: igrave
Encoding: 236 236 174
Width: 750
GlyphClass: 2
Flags: W
HStem: 0 21G<569 720.643> 1080 20G<449.373 804>
VStem: 454 350<750 1100>
DStem2: 199.664 0 550.047 0 0.224951 0.97437<378.031 1129.02>
LayerCount: 2
Fore
SplineSet
716 0 m 1,0,1
 422 0 422 0 336 63 c 0,2,3
 257 121 257 121 257 218 c 0,4,5
 257 248 257 248 265 283 c 2,6,-1
 454 1100 l 1,7,-1
 804 1100 l 1,8,-1
 620 303 l 2,9,10
 618 294 618 294 628 289 c 0,11,12
 645 280 645 280 781 280 c 1,13,-1
 716 0 l 1,0,1
687 1144 m 1,14,-1
 301 1281 l 1,15,-1
 494 1551 l 1,16,-1
 833 1345 l 1,17,-1
 687 1144 l 1,14,-1
EndSplineSet
Validated: 1
EndChar

StartChar: iacute
Encoding: 237 237 175
Width: 750
GlyphClass: 2
Flags: W
HStem: 0 21G<569 720.643> 1080 20G<449.373 804>
VStem: 454 350<750 1100>
DStem2: 199.664 0 550.047 0 0.224951 0.97437<378.031 1129.02>
LayerCount: 2
Fore
SplineSet
716 0 m 1,0,1
 422 0 422 0 336 63 c 0,2,3
 257 121 257 121 257 218 c 0,4,5
 257 248 257 248 265 283 c 2,6,-1
 454 1100 l 1,7,-1
 804 1100 l 1,8,-1
 620 303 l 2,9,10
 618 294 618 294 628 289 c 0,11,12
 645 280 645 280 781 280 c 1,13,-1
 716 0 l 1,0,1
591 1144 m 1,14,-1
 539 1345 l 1,15,-1
 972 1551 l 1,16,-1
 1041 1281 l 1,17,-1
 591 1144 l 1,14,-1
EndSplineSet
Validated: 1
EndChar

StartChar: icircumflex
Encoding: 238 238 176
Width: 750
GlyphClass: 2
Flags: W
HStem: 0 21G<569 720.643> 1080 20G<449.373 804> 1511 20G<691.398 755.476>
VStem: 454 350<750 1100>
DStem2: 199.664 0 550.047 0 0.224951 0.97437<378.031 1129.02>
LayerCount: 2
Fore
SplineSet
716 0 m 1,0,1
 422 0 422 0 336 63 c 0,2,3
 257 121 257 121 257 218 c 0,4,5
 257 248 257 248 265 283 c 2,6,-1
 454 1100 l 1,7,-1
 804 1100 l 1,8,-1
 620 303 l 2,9,10
 618 294 618 294 628 289 c 0,11,12
 645 280 645 280 781 280 c 1,13,-1
 716 0 l 1,0,1
403 1124 m 1,14,-1
 351 1325 l 1,15,-1
 728 1531 l 1,16,-1
 1011 1325 l 1,17,-1
 865 1124 l 1,18,-1
 663 1249 l 1,19,-1
 403 1124 l 1,14,-1
EndSplineSet
Validated: 1
EndChar

StartChar: idieresis
Encoding: 239 239 177
Width: 750
GlyphClass: 2
Flags: W
HStem: 0 21G<569 720.643> 1080 20G<449.373 804> 1150 356<400.9 569.365 794.9 963.365>
VStem: 454 350<750 1100>
DStem2: 199.664 0 550.047 0 0.224951 0.97437<378.031 1129.02>
LayerCount: 2
Fore
SplineSet
716 0 m 1,0,1
 422 0 422 0 336 63 c 0,2,3
 257 121 257 121 257 218 c 0,4,5
 257 248 257 248 265 283 c 2,6,-1
 454 1100 l 1,7,-1
 804 1100 l 1,8,-1
 620 303 l 2,9,10
 618 294 618 294 628 289 c 0,11,12
 645 280 645 280 781 280 c 1,13,-1
 716 0 l 1,0,1
1053 1329 m 0,14,15
 1035 1251 1035 1251 972 1201 c 0,16,17
 908 1150 908 1150 837 1150 c 0,18,19
 764 1150 764 1150 726 1203 c 0,20,21
 700 1239 700 1239 700 1286 c 0,22,23
 700 1306 700 1306 705 1328 c 0,24,25
 721 1399 721 1399 783 1452 c 0,26,27
 846 1506 846 1506 919 1506 c 0,28,29
 988 1506 988 1506 1031 1453 c 0,30,31
 1058 1419 1058 1419 1058 1373 c 0,32,33
 1058 1352 1058 1352 1053 1329 c 0,14,15
659 1329 m 0,34,35
 641 1251 641 1251 578 1201 c 0,36,37
 514 1150 514 1150 443 1150 c 0,38,39
 370 1150 370 1150 332 1203 c 0,40,41
 306 1239 306 1239 306 1286 c 0,42,43
 306 1306 306 1306 311 1328 c 0,44,45
 327 1399 327 1399 389 1452 c 0,46,47
 452 1506 452 1506 525 1506 c 0,48,49
 594 1506 594 1506 637 1453 c 0,50,51
 664 1419 664 1419 664 1373 c 0,52,53
 664 1352 664 1352 659 1329 c 0,34,35
EndSplineSet
Validated: 1
EndChar

StartChar: eth
Encoding: 240 240 178
Width: 1474
GlyphClass: 2
Flags: W
HStem: -20 273<592.437 860.92> 718 268<712.948 952.601> 1511 20G<930.422 1026.5 1509.39 1568.71>
VStem: 191 368<287.498 543.743> 1153 363<657.431 1096.38>
DStem2: 754 1235 803 1027 0.939251 0.343232<0 132.599 626.932 837.021>
LayerCount: 2
Fore
SplineSet
935 1531 m 1,0,1
 1118 1505 1118 1505 1250 1416 c 1,2,-1
 1564 1531 l 1,3,-1
 1613 1323 l 1,4,-1
 1416 1250 l 1,5,6
 1437 1218 1437 1218 1452 1190 c 0,7,8
 1516 1071 1516 1071 1516 922 c 0,9,10
 1516 831 1516 831 1492 728 c 0,11,12
 1404 351 1404 351 1100 136 c 0,13,14
 880 -20 880 -20 617 -20 c 0,15,16
 369 -20 369 -20 263 118 c 0,17,18
 191 212 191 212 191 337 c 0,19,20
 191 392 191 392 205 454 c 0,21,22
 256 681 256 681 493 848 c 0,23,24
 689 986 689 986 872 986 c 0,25,26
 995 986 995 986 995 873 c 0,27,28
 995 842 995 842 986 804 c 0,29,30
 970 735 970 735 933 702 c 1,31,32
 904 718 904 718 877 718 c 0,33,34
 778 718 778 718 698 665 c 0,35,36
 600 600 600 600 569 470 c 0,37,38
 559 428 559 428 559 394 c 0,39,40
 559 352 559 352 574 323 c 0,41,42
 610 253 610 253 699 253 c 0,43,44
 815 253 815 253 927 342 c 0,45,46
 1069 455 1069 455 1130 720 c 0,47,48
 1153 820 1153 820 1153 902 c 0,49,50
 1153 1007 1153 1007 1115 1084 c 0,51,52
 1103 1107 1103 1107 1086 1130 c 1,53,-1
 803 1027 l 1,54,-1
 754 1235 l 1,55,-1
 878 1282 l 1,56,-1
 935 1531 l 1,0,1
EndSplineSet
Validated: 1
EndChar

StartChar: ntilde
Encoding: 241 241 179
Width: 1532
GlyphClass: 2
Flags: W
HStem: 0 21G<200 554.61 982 1336.62> 832 288<909.841 1240.5> 1080 20G<449.382 804> 1189 230<1138.24 1386.27> 1251 230<898.615 1164.83>
VStem: 200 350<0 350> 982 350<0 350> 1151 361<591.062 888>
DStem2: 200 0 550 0 0.224951 0.97437<78.7329 814.715 1123.51 1128.94> 982 0 1332 0 0.224951 0.97437<78.7329 771.045>
LayerCount: 2
Fore
SplineSet
200 0 m 1,0,-1
 454 1100 l 1,1,-1
 804 1100 l 1,2,-1
 785 1018 l 1,3,4
 816 1034 816 1034 861 1055 c 0,5,6
 1003 1120 1003 1120 1166 1120 c 0,7,8
 1315 1120 1315 1120 1418 1032 c 0,9,10
 1512 952 1512 952 1512 824 c 0,11,12
 1512 779 1512 779 1500 728 c 2,13,-1
 1332 0 l 1,14,-1
 982 0 l 1,15,-1
 1144 700 l 2,16,17
 1151 731 1151 731 1151 753 c 0,18,19
 1151 788 1151 788 1134 805 c 0,20,21
 1107 832 1107 832 1066 832 c 0,22,23
 952 832 952 832 838 767 c 0,24,25
 710 694 710 694 680 564 c 2,26,-1
 550 0 l 1,27,-1
 200 0 l 1,0,-1
1411 1251 m 1,28,29
 1332 1189 1332 1189 1262 1189 c 0,30,31
 1196 1189 1196 1189 1115 1226 c 0,32,33
 1060 1251 1060 1251 969 1251 c 0,34,35
 893 1251 893 1251 824 1188 c 1,36,-1
 877 1418 l 1,37,38
 943 1481 943 1481 1022 1481 c 0,39,40
 1103 1481 1103 1481 1172 1451 c 0,41,42
 1246 1419 1246 1419 1316 1419 c 0,43,44
 1382 1419 1382 1419 1464 1481 c 1,45,-1
 1411 1251 l 1,28,29
EndSplineSet
Validated: 1
EndChar

StartChar: ograve
Encoding: 242 242 180
Width: 1494
GlyphClass: 2
Flags: W
HStem: -20 274<612.655 936.811> 847 273<817.553 1135.86>
VStem: 199 366<301.992 586.518> 1183 366<508.061 799.731>
LayerCount: 2
Fore
SplineSet
667 -20 m 0,0,1
 412 -20 412 -20 279 136 c 0,2,3
 199 230 199 230 199 368 c 0,4,5
 199 430 199 430 216 503 c 0,6,7
 278 769 278 769 579 968 c 0,8,9
 809 1120 809 1120 1081 1120 c 0,10,11
 1336 1120 1336 1120 1469 964 c 0,12,13
 1549 870 1549 870 1549 732 c 0,14,15
 1549 669 1549 669 1532 597 c 0,16,17
 1473 335 1473 335 1171 134 c 0,18,19
 939 -20 939 -20 667 -20 c 0,0,1
748 254 m 0,20,21
 889 254 889 254 996 337 c 0,22,23
 1138 447 1138 447 1174 607 c 0,24,25
 1183 647 1183 647 1183 680 c 0,26,27
 1183 742 1183 742 1152 785 c 0,28,29
 1107 847 1107 847 999 847 c 0,30,31
 861 847 861 847 752 763 c 0,32,33
 611 654 611 654 574 493 c 0,34,35
 565 454 565 454 565 420 c 0,36,37
 565 358 565 358 596 317 c 0,38,39
 645 254 645 254 748 254 c 0,20,21
1196 1144 m 1,40,-1
 810 1281 l 1,41,-1
 1003 1551 l 1,42,-1
 1342 1345 l 1,43,-1
 1196 1144 l 1,40,-1
EndSplineSet
Validated: 1
EndChar

StartChar: oacute
Encoding: 243 243 181
Width: 1494
GlyphClass: 2
Flags: W
HStem: -20 274<612.655 936.811> 847 273<817.553 1135.86>
VStem: 199 366<301.992 586.518> 1183 366<508.061 799.731>
LayerCount: 2
Fore
SplineSet
667 -20 m 0,0,1
 412 -20 412 -20 279 136 c 0,2,3
 199 230 199 230 199 368 c 0,4,5
 199 430 199 430 216 503 c 0,6,7
 278 769 278 769 579 968 c 0,8,9
 809 1120 809 1120 1081 1120 c 0,10,11
 1336 1120 1336 1120 1469 964 c 0,12,13
 1549 870 1549 870 1549 732 c 0,14,15
 1549 669 1549 669 1532 597 c 0,16,17
 1473 335 1473 335 1171 134 c 0,18,19
 939 -20 939 -20 667 -20 c 0,0,1
748 254 m 0,20,21
 889 254 889 254 996 337 c 0,22,23
 1138 447 1138 447 1174 607 c 0,24,25
 1183 647 1183 647 1183 680 c 0,26,27
 1183 742 1183 742 1152 785 c 0,28,29
 1107 847 1107 847 999 847 c 0,30,31
 861 847 861 847 752 763 c 0,32,33
 611 654 611 654 574 493 c 0,34,35
 565 454 565 454 565 420 c 0,36,37
 565 358 565 358 596 317 c 0,38,39
 645 254 645 254 748 254 c 0,20,21
984 1144 m 1,40,-1
 932 1345 l 1,41,-1
 1365 1551 l 1,42,-1
 1434 1281 l 1,43,-1
 984 1144 l 1,40,-1
EndSplineSet
Validated: 1
EndChar

StartChar: ocircumflex
Encoding: 244 244 182
Width: 1494
GlyphClass: 2
Flags: W
HStem: -20 274<612.655 936.811> 847 273<817.553 1135.86> 1511 20G<1140.4 1204.48>
VStem: 199 366<301.992 586.518> 1183 366<508.061 799.731>
LayerCount: 2
Fore
SplineSet
667 -20 m 0,0,1
 412 -20 412 -20 279 136 c 0,2,3
 199 230 199 230 199 368 c 0,4,5
 199 430 199 430 216 503 c 0,6,7
 278 769 278 769 579 968 c 0,8,9
 809 1120 809 1120 1081 1120 c 0,10,11
 1336 1120 1336 1120 1469 964 c 0,12,13
 1549 870 1549 870 1549 732 c 0,14,15
 1549 669 1549 669 1532 597 c 0,16,17
 1473 335 1473 335 1171 134 c 0,18,19
 939 -20 939 -20 667 -20 c 0,0,1
748 254 m 0,20,21
 889 254 889 254 996 337 c 0,22,23
 1138 447 1138 447 1174 607 c 0,24,25
 1183 647 1183 647 1183 680 c 0,26,27
 1183 742 1183 742 1152 785 c 0,28,29
 1107 847 1107 847 999 847 c 0,30,31
 861 847 861 847 752 763 c 0,32,33
 611 654 611 654 574 493 c 0,34,35
 565 454 565 454 565 420 c 0,36,37
 565 358 565 358 596 317 c 0,38,39
 645 254 645 254 748 254 c 0,20,21
852 1124 m 1,40,-1
 800 1325 l 1,41,-1
 1177 1531 l 1,42,-1
 1460 1325 l 1,43,-1
 1314 1124 l 1,44,-1
 1112 1249 l 1,45,-1
 852 1124 l 1,40,-1
EndSplineSet
Validated: 1
EndChar

StartChar: otilde
Encoding: 245 245 183
Width: 1494
GlyphClass: 2
Flags: W
HStem: -20 274<612.655 936.811> 847 273<817.553 1135.86> 1189 230<1138.24 1386.27> 1251 230<898.615 1164.83>
VStem: 199 366<301.992 586.518> 1183 366<508.061 799.731>
LayerCount: 2
Fore
SplineSet
667 -20 m 0,0,1
 412 -20 412 -20 279 136 c 0,2,3
 199 230 199 230 199 368 c 0,4,5
 199 430 199 430 216 503 c 0,6,7
 278 769 278 769 579 968 c 0,8,9
 809 1120 809 1120 1081 1120 c 0,10,11
 1336 1120 1336 1120 1469 964 c 0,12,13
 1549 870 1549 870 1549 732 c 0,14,15
 1549 669 1549 669 1532 597 c 0,16,17
 1473 335 1473 335 1171 134 c 0,18,19
 939 -20 939 -20 667 -20 c 0,0,1
748 254 m 0,20,21
 889 254 889 254 996 337 c 0,22,23
 1138 447 1138 447 1174 607 c 0,24,25
 1183 647 1183 647 1183 680 c 0,26,27
 1183 742 1183 742 1152 785 c 0,28,29
 1107 847 1107 847 999 847 c 0,30,31
 861 847 861 847 752 763 c 0,32,33
 611 654 611 654 574 493 c 0,34,35
 565 454 565 454 565 420 c 0,36,37
 565 358 565 358 596 317 c 0,38,39
 645 254 645 254 748 254 c 0,20,21
1411 1251 m 1,40,41
 1332 1189 1332 1189 1262 1189 c 0,42,43
 1196 1189 1196 1189 1115 1226 c 0,44,45
 1060 1251 1060 1251 969 1251 c 0,46,47
 893 1251 893 1251 824 1188 c 1,48,-1
 877 1418 l 1,49,50
 943 1481 943 1481 1022 1481 c 0,51,52
 1103 1481 1103 1481 1172 1451 c 0,53,54
 1246 1419 1246 1419 1316 1419 c 0,55,56
 1382 1419 1382 1419 1464 1481 c 1,57,-1
 1411 1251 l 1,40,41
EndSplineSet
Validated: 1
EndChar

StartChar: odieresis
Encoding: 246 246 184
Width: 1494
GlyphClass: 2
Flags: W
HStem: -20 274<612.655 936.811> 847 273<817.553 1135.86> 1150 356<845.9 1014.37 1239.9 1408.37>
VStem: 199 366<301.992 586.518> 1183 366<508.061 799.731>
LayerCount: 2
Fore
SplineSet
1498 1329 m 0,0,1
 1480 1251 1480 1251 1417 1201 c 0,2,3
 1353 1150 1353 1150 1282 1150 c 0,4,5
 1209 1150 1209 1150 1171 1203 c 0,6,7
 1145 1239 1145 1239 1145 1286 c 0,8,9
 1145 1306 1145 1306 1150 1328 c 0,10,11
 1166 1399 1166 1399 1228 1452 c 0,12,13
 1291 1506 1291 1506 1364 1506 c 0,14,15
 1433 1506 1433 1506 1476 1453 c 0,16,17
 1503 1419 1503 1419 1503 1373 c 0,18,19
 1503 1352 1503 1352 1498 1329 c 0,0,1
1104 1329 m 0,20,21
 1086 1251 1086 1251 1023 1201 c 0,22,23
 959 1150 959 1150 888 1150 c 0,24,25
 815 1150 815 1150 777 1203 c 0,26,27
 751 1239 751 1239 751 1286 c 0,28,29
 751 1306 751 1306 756 1328 c 0,30,31
 772 1399 772 1399 834 1452 c 0,32,33
 897 1506 897 1506 970 1506 c 0,34,35
 1039 1506 1039 1506 1082 1453 c 0,36,37
 1109 1419 1109 1419 1109 1373 c 0,38,39
 1109 1352 1109 1352 1104 1329 c 0,20,21
667 -20 m 0,40,41
 412 -20 412 -20 279 136 c 0,42,43
 199 230 199 230 199 368 c 0,44,45
 199 430 199 430 216 503 c 0,46,47
 278 769 278 769 579 968 c 0,48,49
 809 1120 809 1120 1081 1120 c 0,50,51
 1336 1120 1336 1120 1469 964 c 0,52,53
 1549 870 1549 870 1549 732 c 0,54,55
 1549 669 1549 669 1532 597 c 0,56,57
 1473 335 1473 335 1171 134 c 0,58,59
 939 -20 939 -20 667 -20 c 0,40,41
748 254 m 0,60,61
 889 254 889 254 996 337 c 0,62,63
 1138 447 1138 447 1174 607 c 0,64,65
 1183 647 1183 647 1183 680 c 0,66,67
 1183 742 1183 742 1152 785 c 0,68,69
 1107 847 1107 847 999 847 c 0,70,71
 861 847 861 847 752 763 c 0,72,73
 611 654 611 654 574 493 c 0,74,75
 565 454 565 454 565 420 c 0,76,77
 565 358 565 358 596 317 c 0,78,79
 645 254 645 254 748 254 c 0,60,61
EndSplineSet
Validated: 1
EndChar

StartChar: divide
Encoding: 247 247 185
Width: 1333
GlyphClass: 2
Flags: W
HStem: 99 405<644.666 825.937> 621 300<363 1326> 1036 405<861.666 1042.94>
LayerCount: 2
Fore
SplineSet
1151 1233 m 0,0,1
 1133 1156 1133 1156 1063 1096 c 128,-1,2
 993 1036 993 1036 904 1036 c 0,3,4
 819 1036 819 1036 774 1097 c 0,5,6
 744 1138 744 1138 744 1190 c 0,7,8
 744 1213 744 1213 750 1238 c 0,9,10
 770 1322 770 1322 840 1380 c 0,11,12
 913 1441 913 1441 998 1441 c 0,13,14
 1085 1441 1085 1441 1127 1383 c 0,15,16
 1157 1342 1157 1342 1157 1289 c 0,17,18
 1157 1262 1157 1262 1151 1233 c 0,0,1
934 296 m 0,19,20
 916 219 916 219 846 159 c 128,-1,21
 776 99 776 99 687 99 c 0,22,23
 602 99 602 99 557 160 c 0,24,25
 527 201 527 201 527 253 c 0,26,27
 527 276 527 276 533 301 c 0,28,29
 553 385 553 385 623 443 c 0,30,31
 696 504 696 504 781 504 c 0,32,33
 868 504 868 504 910 446 c 0,34,35
 940 405 940 405 940 352 c 0,36,37
 940 325 940 325 934 296 c 0,19,20
293 621 m 1,38,-1
 363 921 l 1,39,-1
 1396 921 l 1,40,-1
 1326 621 l 1,41,-1
 293 621 l 1,38,-1
EndSplineSet
Validated: 1
EndChar

StartChar: oslash
Encoding: 248 248 186
Width: 1494
GlyphClass: 2
Flags: W
HStem: -20 274<737 936.1> 847 273<819 1013>
VStem: 200 364<302.891 591.876> 1184 365<513.257 804>
DStem2: 571 369 737 254 0.67882 0.734305<28.2391 651.036>
LayerCount: 2
Fore
SplineSet
748 254 m 0,0,1
 892 254 892 254 998 337 c 0,2,3
 1134 443 1134 443 1174 607 c 0,4,5
 1184 648 1184 648 1184 682 c 0,6,7
 1184 710 1184 710 1178 731 c 1,8,-1
 737 254 l 1,9,10
 742 254 742 254 748 254 c 0,0,1
230 0 m 1,11,-1
 318 96 l 1,12,13
 294 117 294 117 279 136 c 0,14,15
 200 236 200 236 200 373 c 0,16,17
 200 435 200 435 216 503 c 0,18,19
 279 769 279 769 579 968 c 0,20,21
 808 1120 808 1120 1081 1120 c 0,22,23
 1172 1120 1172 1120 1248 1100 c 1,24,-1
 1520 1100 l 1,25,-1
 1431 1003 l 1,26,27
 1454 981 1454 981 1469 964 c 0,28,29
 1549 873 1549 873 1549 735 c 0,30,31
 1549 671 1549 671 1532 597 c 0,32,33
 1472 334 1472 334 1170 134 c 0,34,35
 938 -20 938 -20 667 -20 c 0,36,37
 576 -20 576 -20 500 0 c 1,38,-1
 230 0 l 1,11,-1
571 369 m 1,39,-1
 1013 847 l 1,40,41
 1006 847 1006 847 999 847 c 0,42,43
 862 847 862 847 752 763 c 0,44,45
 603 650 603 650 572 493 c 0,46,47
 564 452 564 452 564 426 c 0,48,49
 564 394 564 394 571 369 c 1,39,-1
EndSplineSet
Validated: 1
EndChar

StartChar: ugrave
Encoding: 249 249 187
Width: 1532
GlyphClass: 2
Flags: W
HStem: -20 288<545.5 876.159> 0 21G<982 1336.62> 1080 20G<449.385 804 1231.39 1586>
VStem: 274 361<212 508.938> 454 350<750 1100> 1236 350<750 1100>
DStem2: 195.5 -20 545.035 -20 0.224951 0.97437<457.162 1149.44> 977.383 -20 1327.38 -20 0.224951 0.97437<99.2589 104.698 413.488 1149.47>
LayerCount: 2
Fore
SplineSet
1332 0 m 1,0,-1
 982 0 l 1,1,-1
 1001 82 l 1,2,3
 970 66 970 66 925 45 c 0,4,5
 783 -20 783 -20 620 -20 c 0,6,7
 471 -20 471 -20 368 68 c 0,8,9
 274 148 274 148 274 276 c 0,10,11
 274 320 274 320 286 372 c 2,12,-1
 454 1100 l 1,13,-1
 804 1100 l 1,14,-1
 642 400 l 2,15,16
 635 370 635 370 635 347 c 0,17,18
 635 314 635 314 654 292 c 0,19,20
 675 268 675 268 720 268 c 0,21,22
 834 268 834 268 948 333 c 0,23,24
 1076 406 1076 406 1106 536 c 2,25,-1
 1236 1100 l 1,26,-1
 1586 1100 l 1,27,-1
 1332 0 l 1,0,-1
1073 1144 m 1,28,-1
 687 1281 l 1,29,-1
 880 1551 l 1,30,-1
 1219 1345 l 1,31,-1
 1073 1144 l 1,28,-1
EndSplineSet
Validated: 1
EndChar

StartChar: uacute
Encoding: 250 250 188
Width: 1532
GlyphClass: 2
Flags: W
HStem: -20 288<545.5 876.159> 0 21G<982 1336.62> 1080 20G<449.385 804 1231.39 1586>
VStem: 274 361<212 508.938> 454 350<750 1100> 1236 350<750 1100>
DStem2: 195.5 -20 545.035 -20 0.224951 0.97437<457.162 1149.44> 977.383 -20 1327.38 -20 0.224951 0.97437<99.2589 104.698 413.488 1149.47>
LayerCount: 2
Fore
SplineSet
1332 0 m 1,0,-1
 982 0 l 1,1,-1
 1001 82 l 1,2,3
 970 66 970 66 925 45 c 0,4,5
 783 -20 783 -20 620 -20 c 0,6,7
 471 -20 471 -20 368 68 c 0,8,9
 274 148 274 148 274 276 c 0,10,11
 274 320 274 320 286 372 c 2,12,-1
 454 1100 l 1,13,-1
 804 1100 l 1,14,-1
 642 400 l 2,15,16
 635 370 635 370 635 347 c 0,17,18
 635 314 635 314 654 292 c 0,19,20
 675 268 675 268 720 268 c 0,21,22
 834 268 834 268 948 333 c 0,23,24
 1076 406 1076 406 1106 536 c 2,25,-1
 1236 1100 l 1,26,-1
 1586 1100 l 1,27,-1
 1332 0 l 1,0,-1
984 1144 m 1,28,-1
 932 1345 l 1,29,-1
 1365 1551 l 1,30,-1
 1434 1281 l 1,31,-1
 984 1144 l 1,28,-1
EndSplineSet
Validated: 1
EndChar

StartChar: ucircumflex
Encoding: 251 251 189
Width: 1532
GlyphClass: 2
Flags: W
HStem: -20 288<545.5 876.159> 0 21G<982 1336.62> 1080 20G<449.385 804 1231.39 1586> 1511 20G<1082.4 1146.48>
VStem: 274 361<212 508.938> 454 350<750 1100> 1236 350<750 1100>
DStem2: 195.5 -20 545.035 -20 0.224951 0.97437<457.162 1149.44> 977.383 -20 1327.38 -20 0.224951 0.97437<99.2589 104.698 413.488 1149.47>
LayerCount: 2
Fore
SplineSet
1332 0 m 1,0,-1
 982 0 l 1,1,-1
 1001 82 l 1,2,3
 970 66 970 66 925 45 c 0,4,5
 783 -20 783 -20 620 -20 c 0,6,7
 471 -20 471 -20 368 68 c 0,8,9
 274 148 274 148 274 276 c 0,10,11
 274 320 274 320 286 372 c 2,12,-1
 454 1100 l 1,13,-1
 804 1100 l 1,14,-1
 642 400 l 2,15,16
 635 370 635 370 635 347 c 0,17,18
 635 314 635 314 654 292 c 0,19,20
 675 268 675 268 720 268 c 0,21,22
 834 268 834 268 948 333 c 0,23,24
 1076 406 1076 406 1106 536 c 2,25,-1
 1236 1100 l 1,26,-1
 1586 1100 l 1,27,-1
 1332 0 l 1,0,-1
794 1124 m 1,28,-1
 742 1325 l 1,29,-1
 1119 1531 l 1,30,-1
 1402 1325 l 1,31,-1
 1256 1124 l 1,32,-1
 1054 1249 l 1,33,-1
 794 1124 l 1,28,-1
EndSplineSet
Validated: 1
EndChar

StartChar: udieresis
Encoding: 252 252 190
Width: 1532
GlyphClass: 2
Flags: W
HStem: -20 288<545.5 876.159> 0 21G<982 1336.62> 1080 20G<449.385 804 1231.39 1586> 1150 356<796.9 965.365 1190.9 1359.37>
VStem: 274 361<212 508.938> 454 350<750 1100> 1236 350<750 1100>
DStem2: 195.5 -20 545.035 -20 0.224951 0.97437<457.162 1149.44> 977.383 -20 1327.38 -20 0.224951 0.97437<99.2589 104.698 413.488 1149.47>
LayerCount: 2
Fore
SplineSet
1332 0 m 1,0,-1
 982 0 l 1,1,-1
 1001 82 l 1,2,3
 970 66 970 66 925 45 c 0,4,5
 783 -20 783 -20 620 -20 c 0,6,7
 471 -20 471 -20 368 68 c 0,8,9
 274 148 274 148 274 276 c 0,10,11
 274 320 274 320 286 372 c 2,12,-1
 454 1100 l 1,13,-1
 804 1100 l 1,14,-1
 642 400 l 2,15,16
 635 370 635 370 635 347 c 0,17,18
 635 314 635 314 654 292 c 0,19,20
 675 268 675 268 720 268 c 0,21,22
 834 268 834 268 948 333 c 0,23,24
 1076 406 1076 406 1106 536 c 2,25,-1
 1236 1100 l 1,26,-1
 1586 1100 l 1,27,-1
 1332 0 l 1,0,-1
1449 1329 m 0,28,29
 1431 1251 1431 1251 1368 1201 c 0,30,31
 1304 1150 1304 1150 1233 1150 c 0,32,33
 1160 1150 1160 1150 1122 1203 c 0,34,35
 1096 1239 1096 1239 1096 1286 c 0,36,37
 1096 1306 1096 1306 1101 1328 c 0,38,39
 1117 1399 1117 1399 1179 1452 c 0,40,41
 1242 1506 1242 1506 1315 1506 c 0,42,43
 1384 1506 1384 1506 1427 1453 c 0,44,45
 1454 1419 1454 1419 1454 1373 c 0,46,47
 1454 1352 1454 1352 1449 1329 c 0,28,29
1055 1329 m 0,48,49
 1037 1251 1037 1251 974 1201 c 0,50,51
 910 1150 910 1150 839 1150 c 0,52,53
 766 1150 766 1150 728 1203 c 0,54,55
 702 1239 702 1239 702 1286 c 0,56,57
 702 1306 702 1306 707 1328 c 0,58,59
 723 1399 723 1399 785 1452 c 0,60,61
 848 1506 848 1506 921 1506 c 0,62,63
 990 1506 990 1506 1033 1453 c 0,64,65
 1060 1419 1060 1419 1060 1373 c 0,66,67
 1060 1352 1060 1352 1055 1329 c 0,48,49
EndSplineSet
Validated: 1
EndChar

StartChar: yacute
Encoding: 253 253 191
Width: 1532
GlyphClass: 2
Flags: W
HStem: -410 273<386.883 769.839> -20 288<545.5 821.935> 1080 20G<449.385 804 1231.39 1586>
VStem: 274 361<212 508.938> 454 350<750 1100> 1236 350<750 1100>
DStem2: 105.461 -410 454.997 -410 0.224951 0.97437<857.421 1549.7> 887.599 -410 1237.08 -410 0.224951 0.97437<813.69 1549.67>
LayerCount: 2
Fore
SplineSet
127 -236 m 1,0,-1
 421 -27 l 1,1,2
 488 -137 488 -137 596 -137 c 0,3,4
 751 -137 751 -137 867 -35 c 0,5,6
 940 29 940 29 989 124 c 1,7,8
 802 -20 802 -20 620 -20 c 0,9,10
 471 -20 471 -20 368 68 c 0,11,12
 274 148 274 148 274 276 c 0,13,14
 274 320 274 320 286 372 c 2,15,-1
 454 1100 l 1,16,-1
 804 1100 l 1,17,-1
 642 400 l 2,18,19
 635 370 635 370 635 347 c 0,20,21
 635 312 635 312 654 293 c 0,22,23
 677 268 677 268 720 268 c 0,24,25
 834 268 834 268 948 333 c 0,26,27
 1076 406 1076 406 1106 536 c 2,28,-1
 1236 1100 l 1,29,-1
 1586 1100 l 1,30,-1
 1401 300 l 2,31,32
 1331 -2 1331 -2 1076 -196 c 0,33,34
 795 -410 795 -410 516 -410 c 0,35,36
 272 -410 272 -410 127 -236 c 1,0,-1
984 1144 m 1,37,-1
 932 1345 l 1,38,-1
 1365 1551 l 1,39,-1
 1434 1281 l 1,40,-1
 984 1144 l 1,37,-1
EndSplineSet
Validated: 1
EndChar

StartChar: thorn
Encoding: 254 254 192
Width: 1447
GlyphClass: 2
Flags: W
HStem: -410 21G<105 459.632> -20 274<667.24 908.662> 846 274<832.489 1092.83> 1491 20G<544.377 899>
VStem: 105 350<-410 -60> 549 350<1161 1511> 1137 366<515.445 805.583>
DStem2: 105 -410 455 -410 0.224951 0.97437<78.7329 1269.24 1582.44 1971.64>
LayerCount: 2
Fore
SplineSet
549 1511 m 1,0,-1
 899 1511 l 1,1,-1
 794 1055 l 1,2,3
 906 1120 906 1120 1034 1120 c 0,4,5
 1297 1120 1297 1120 1424 964 c 0,6,7
 1503 867 1503 867 1503 733 c 0,8,9
 1503 672 1503 672 1487 605 c 0,10,11
 1417 313 1417 313 1130 124 c 0,12,13
 911 -20 911 -20 747 -20 c 0,14,15
 624 -20 624 -20 624 95 c 0,16,17
 624 127 624 127 634 168 c 0,18,19
 651 238 651 238 686 270 c 1,20,21
 716 254 716 254 743 254 c 0,22,23
 856 254 856 254 954 326 c 0,24,25
 1083 421 1083 421 1125 598 c 0,26,27
 1137 649 1137 649 1137 689 c 0,28,29
 1137 746 1137 746 1114 780 c 0,30,31
 1071 846 1071 846 968 846 c 0,32,33
 870 846 870 846 796 773 c 0,34,35
 709 687 709 687 685 583 c 2,36,-1
 455 -410 l 1,37,-1
 105 -410 l 1,38,-1
 549 1511 l 1,0,-1
EndSplineSet
Validated: 1
EndChar

StartChar: ydieresis
Encoding: 255 255 193
Width: 1532
GlyphClass: 2
Flags: W
HStem: -410 273<386.883 769.839> -20 288<545.5 821.935> 1080 20G<449.385 804 1231.39 1586> 1150 356<796.9 965.365 1190.9 1359.37>
VStem: 274 361<212 508.938> 454 350<750 1100> 1236 350<750 1100>
DStem2: 105.461 -410 454.997 -410 0.224951 0.97437<857.421 1549.7> 887.599 -410 1237.08 -410 0.224951 0.97437<813.69 1549.67>
LayerCount: 2
Fore
SplineSet
127 -236 m 1,0,-1
 421 -27 l 1,1,2
 488 -137 488 -137 596 -137 c 0,3,4
 751 -137 751 -137 867 -35 c 0,5,6
 940 29 940 29 989 124 c 1,7,8
 802 -20 802 -20 620 -20 c 0,9,10
 471 -20 471 -20 368 68 c 0,11,12
 274 148 274 148 274 276 c 0,13,14
 274 320 274 320 286 372 c 2,15,-1
 454 1100 l 1,16,-1
 804 1100 l 1,17,-1
 642 400 l 2,18,19
 635 370 635 370 635 347 c 0,20,21
 635 312 635 312 654 293 c 0,22,23
 677 268 677 268 720 268 c 0,24,25
 834 268 834 268 948 333 c 0,26,27
 1076 406 1076 406 1106 536 c 2,28,-1
 1236 1100 l 1,29,-1
 1586 1100 l 1,30,-1
 1401 300 l 2,31,32
 1331 -2 1331 -2 1076 -196 c 0,33,34
 795 -410 795 -410 516 -410 c 0,35,36
 272 -410 272 -410 127 -236 c 1,0,-1
1449 1329 m 0,37,38
 1431 1251 1431 1251 1368 1201 c 0,39,40
 1304 1150 1304 1150 1233 1150 c 0,41,42
 1160 1150 1160 1150 1122 1203 c 0,43,44
 1096 1239 1096 1239 1096 1286 c 0,45,46
 1096 1306 1096 1306 1101 1328 c 0,47,48
 1117 1399 1117 1399 1179 1452 c 0,49,50
 1242 1506 1242 1506 1315 1506 c 0,51,52
 1384 1506 1384 1506 1427 1453 c 0,53,54
 1454 1419 1454 1419 1454 1373 c 0,55,56
 1454 1352 1454 1352 1449 1329 c 0,37,38
1055 1329 m 0,57,58
 1037 1251 1037 1251 974 1201 c 0,59,60
 910 1150 910 1150 839 1150 c 0,61,62
 766 1150 766 1150 728 1203 c 0,63,64
 702 1239 702 1239 702 1286 c 0,65,66
 702 1306 702 1306 707 1328 c 0,67,68
 723 1399 723 1399 785 1452 c 0,69,70
 848 1506 848 1506 921 1506 c 0,71,72
 990 1506 990 1506 1033 1453 c 0,73,74
 1060 1419 1060 1419 1060 1373 c 0,75,76
 1060 1352 1060 1352 1055 1329 c 0,57,58
EndSplineSet
Validated: 1
EndChar

StartChar: Amacron
Encoding: 256 256 194
Width: 1767
GlyphClass: 2
Flags: W
HStem: 0 21G<5 354.074 1401.94 1762> 621 300<974 1180> 1491 20G<1071.69 1384.07> 1638 230<1041 1550>
VStem: 5 335<0 335> 1407 355<0 355>
DStem2: 5 0 340 0 0.581849 0.813297<194.919 954.245 1312.86 1312.86> 1379 1511 1127 1136 0.245704 -0.969345<301.587 523.018 831.021 1471.56>
LayerCount: 2
Fore
SplineSet
5 0 m 1,0,-1
 1086 1511 l 1,1,-1
 1379 1511 l 1,2,-1
 1762 0 l 1,3,-1
 1407 0 l 1,4,-1
 1250 621 l 1,5,-1
 777 621 l 1,6,-1
 340 0 l 1,7,-1
 5 0 l 1,0,-1
1127 1136 m 1,8,-1
 974 921 l 1,9,-1
 1180 921 l 1,10,-1
 1127 1136 l 1,8,-1
988 1638 m 1,11,-1
 1041 1868 l 1,12,-1
 1603 1868 l 1,13,-1
 1550 1638 l 1,14,-1
 988 1638 l 1,11,-1
EndSplineSet
Validated: 1
EndChar

StartChar: amacron
Encoding: 257 257 195
Width: 1447
GlyphClass: 2
Flags: W
HStem: -20 274<607.415 771.16> 0 21G<897 1251.62> 846 274<815.015 1160> 1219 230<873 1381>
VStem: 200 363<296.87 586.652> 897 350<0 350> 918 15<341.253 358.32>
DStem2: 892.383 -20 1242.38 -20 0.224951 0.97437<99.2589 856.739>
LayerCount: 2
Fore
SplineSet
1247 0 m 1,0,-1
 897 0 l 1,1,-1
 1073 761 l 2,2,3
 1081 798 1081 798 1065 820 c 24,4,5
 1046 846 1046 846 1000 846 c 0,6,7
 868 846 868 846 761 771 c 0,8,9
 613 667 613 667 575 500 c 0,10,11
 563 447 563 447 563 407 c 0,12,13
 563 358 563 358 583 325 c 0,14,15
 629 254 629 254 717 254 c 0,16,17
 835 254 835 254 933 364 c 1,18,19
 928 328 928 328 918 283 c 0,20,21
 900 201 900 201 862 133 c 0,22,23
 777 -20 777 -20 641 -20 c 0,24,25
 386 -20 386 -20 277 136 c 0,26,27
 200 246 200 246 200 379 c 0,28,29
 200 436 200 436 214 495 c 0,30,31
 277 760 277 760 579 966 c 0,32,33
 805 1120 805 1120 1081 1120 c 0,34,35
 1239 1120 1239 1120 1337 1032 c 0,36,37
 1427 951 1427 951 1427 826 c 0,38,39
 1427 780 1427 780 1415 728 c 2,40,-1
 1247 0 l 1,0,-1
819 1219 m 1,41,-1
 873 1449 l 1,42,-1
 1435 1449 l 1,43,-1
 1381 1219 l 1,44,-1
 819 1219 l 1,41,-1
EndSplineSet
Validated: 1
EndChar

StartChar: Abreve
Encoding: 258 258 196
Width: 1767
GlyphClass: 2
Flags: W
HStem: 0 21G<5 354.074 1401.94 1762> 621 300<974 1180> 1491 20G<1071.69 1384.07> 1603 230<1085.58 1501.37>
VStem: 5 335<0 335> 1407 355<0 355>
DStem2: 5 0 340 0 0.581849 0.813297<194.919 954.245 1312.86 1312.86> 1379 1511 1127 1136 0.245704 -0.969345<301.587 523.018 831.021 1471.56>
LayerCount: 2
Fore
SplineSet
5 0 m 1,0,-1
 1086 1511 l 1,1,-1
 1379 1511 l 1,2,-1
 1762 0 l 1,3,-1
 1407 0 l 1,4,-1
 1250 621 l 1,5,-1
 777 621 l 1,6,-1
 340 0 l 1,7,-1
 5 0 l 1,0,-1
1127 1136 m 1,8,-1
 974 921 l 1,9,-1
 1180 921 l 1,10,-1
 1127 1136 l 1,8,-1
1044 1901 m 1,11,12
 1144 1833 1144 1833 1311 1833 c 0,13,14
 1471 1833 1471 1833 1606 1901 c 1,15,-1
 1553 1671 l 1,16,17
 1418 1603 1418 1603 1258 1603 c 0,18,19
 1091 1603 1091 1603 991 1671 c 1,20,-1
 1044 1901 l 1,11,12
EndSplineSet
Validated: 1
EndChar

StartChar: abreve
Encoding: 259 259 197
Width: 1447
GlyphClass: 2
Flags: W
HStem: -20 274<607.415 771.16> 0 21G<897 1251.62> 846 274<815.015 1160> 1213 230<932.578 1348.37> 1491 20G<886.391 941 1385.5 1448.39>
VStem: 200 363<296.87 586.652> 897 350<0 350> 918 15<341.253 358.32>
DStem2: 892.383 -20 1242.38 -20 0.224951 0.97437<99.2589 856.739>
LayerCount: 2
Fore
SplineSet
1247 0 m 1,0,-1
 897 0 l 1,1,-1
 1073 761 l 2,2,3
 1081 798 1081 798 1065 820 c 24,4,5
 1046 846 1046 846 1000 846 c 0,6,7
 868 846 868 846 761 771 c 0,8,9
 613 667 613 667 575 500 c 0,10,11
 563 447 563 447 563 407 c 0,12,13
 563 358 563 358 583 325 c 0,14,15
 629 254 629 254 717 254 c 0,16,17
 835 254 835 254 933 364 c 1,18,19
 928 328 928 328 918 283 c 0,20,21
 900 201 900 201 862 133 c 0,22,23
 777 -20 777 -20 641 -20 c 0,24,25
 386 -20 386 -20 277 136 c 0,26,27
 200 246 200 246 200 379 c 0,28,29
 200 436 200 436 214 495 c 0,30,31
 277 760 277 760 579 966 c 0,32,33
 805 1120 805 1120 1081 1120 c 0,34,35
 1239 1120 1239 1120 1337 1032 c 0,36,37
 1427 951 1427 951 1427 826 c 0,38,39
 1427 780 1427 780 1415 728 c 2,40,-1
 1247 0 l 1,0,-1
891 1511 m 1,41,42
 991 1443 991 1443 1158 1443 c 0,43,44
 1318 1443 1318 1443 1453 1511 c 1,45,-1
 1400 1281 l 1,46,47
 1265 1213 1265 1213 1105 1213 c 0,48,49
 938 1213 938 1213 838 1281 c 1,50,-1
 891 1511 l 1,41,42
EndSplineSet
Validated: 1
EndChar

StartChar: Aogonek
Encoding: 260 260 198
Width: 1767
GlyphClass: 2
Flags: W
HStem: -410 21G<1140 1235.02> 0 21G<5 354.074> 621 300<974 1180> 1491 20G<1071.69 1384.07>
VStem: 5 335<0 335> 1076 298<-201 -31.625>
DStem2: 5 0 340 0 0.581849 0.813297<194.919 954.245 1312.86 1384.87 1502.37 1576.74> 1379 1511 1127 1136 0.245704 -0.969345<301.587 523.018 831.021 1260.55>
LayerCount: 2
Fore
SplineSet
1127 1136 m 1,0,-1
 974 921 l 1,1,-1
 1180 921 l 1,2,-1
 1127 1136 l 1,0,-1
5 0 m 1,3,-1
 1086 1511 l 1,4,-1
 1379 1511 l 1,5,-1
 1762 0 l 1,6,-1
 1407 0 l 1,7,8
 1385 -35 1385 -35 1377 -72 c 0,9,10
 1374 -86 1374 -86 1374 -100 c 0,11,12
 1374 -179 1374 -179 1494 -223 c 1,13,-1
 1204 -410 l 1,14,15
 1076 -327 1076 -327 1076 -201 c 0,16,17
 1076 -169 1076 -169 1084 -135 c 0,18,19
 1135 82 1135 82 1352 217 c 1,20,-1
 1250 621 l 1,21,-1
 777 621 l 1,22,-1
 340 0 l 1,23,-1
 5 0 l 1,3,-1
EndSplineSet
Validated: 1
EndChar

StartChar: aogonek
Encoding: 261 261 199
Width: 1447
GlyphClass: 2
Flags: W
HStem: -410 21G<901 996.016> -20 274<607.415 771.16> 846 274<815.015 1160>
VStem: 200 363<296.87 586.652> 837 298<-200 -28.949> 918 15<341.253 358.464>
DStem2: 802.344 -410 1152.34 -410 0.224951 0.97437<499.518 1257>
LayerCount: 2
Fore
SplineSet
1247 0 m 1,0,-1
 1168 0 l 1,1,2
 1146 -35 1146 -35 1138 -72 c 0,3,4
 1135 -86 1135 -86 1135 -100 c 0,5,6
 1135 -181 1135 -181 1255 -223 c 1,7,-1
 965 -410 l 1,8,9
 837 -327 837 -327 837 -200 c 0,10,11
 837 -169 837 -169 845 -135 c 0,12,13
 863 -60 863 -60 897 0 c 1,14,-1
 1073 761 l 2,15,16
 1081 798 1081 798 1065 820 c 0,17,18
 1046 846 1046 846 1000 846 c 0,19,20
 868 846 868 846 761 771 c 0,21,22
 613 667 613 667 575 500 c 0,23,24
 563 447 563 447 563 407 c 0,25,26
 563 358 563 358 583 325 c 1,27,28
 629 254 629 254 717 254 c 0,29,30
 835 254 835 254 933 364 c 1,31,32
 928 329 928 329 918 283 c 0,33,34
 900 201 900 201 862 133 c 0,35,36
 777 -20 777 -20 641 -20 c 0,37,38
 386 -20 386 -20 277 136 c 0,39,40
 200 246 200 246 200 379 c 0,41,42
 200 436 200 436 214 495 c 0,43,44
 277 760 277 760 579 966 c 0,45,46
 805 1120 805 1120 1081 1120 c 0,47,48
 1239 1120 1239 1120 1337 1032 c 0,49,50
 1427 951 1427 951 1427 826 c 0,51,52
 1427 780 1427 780 1415 728 c 2,53,-1
 1247 0 l 1,0,-1
EndSplineSet
Validated: 1
EndChar

StartChar: Cacute
Encoding: 262 262 200
Width: 1781
GlyphClass: 2
Flags: W
HStem: -20 273<739.581 1176.08> 1258 273<1078.23 1517.51>
VStem: 233 368<387.823 751.235>
LayerCount: 2
Fore
SplineSet
1785 411 m 1,0,1
 1678 288 1678 288 1525 183 c 0,2,3
 1227 -20 1227 -20 858 -20 c 0,4,5
 507 -20 507 -20 335 188 c 0,6,7
 233 311 233 311 233 492 c 0,8,9
 233 578 233 578 256 676 c 0,10,11
 348 1066 348 1066 733 1328 c 0,12,13
 1032 1531 1032 1531 1399 1531 c 0,14,15
 1746 1531 1746 1531 1922 1323 c 0,16,17
 1960 1278 1960 1278 1984 1225 c 9,18,-1
 1645 1048 l 17,19,20
 1631 1099 1631 1099 1603 1138 c 0,21,22
 1518 1258 1518 1258 1336 1258 c 0,23,24
 1085 1258 1085 1258 905 1120 c 0,25,26
 678 946 678 946 617 682 c 0,27,28
 601 613 601 613 601 554 c 0,29,30
 601 445 601 445 655 372 c 0,31,32
 741 253 741 253 921 253 c 0,33,34
 1158 253 1158 253 1353 391 c 0,35,36
 1479 480 1479 480 1554 608 c 1,37,-1
 1785 411 l 1,0,1
1289 1559 m 1,38,-1
 1236 1760 l 1,39,-1
 1670 1966 l 1,40,-1
 1739 1696 l 1,41,-1
 1289 1559 l 1,38,-1
EndSplineSet
Validated: 1
EndChar

StartChar: cacute
Encoding: 263 263 201
Width: 1348
GlyphClass: 2
Flags: W
HStem: -20 274<612.523 936.179> 847 273<817.351 1226.64>
VStem: 199 366<301.992 586.22>
LayerCount: 2
Fore
SplineSet
1317 249 m 17,0,1
 1252 189 1252 189 1170 134 c 0,2,3
 937 -20 937 -20 667 -20 c 0,4,5
 412 -20 412 -20 279 136 c 0,6,7
 199 230 199 230 199 368 c 0,8,9
 199 433 199 433 216 503 c 0,10,11
 280 770 280 770 579 968 c 0,12,13
 809 1120 809 1120 1081 1120 c 128,-1,14
 1353 1120 1353 1120 1485 942 c 1,15,-1
 1174 742 l 1,16,17
 1139 847 1139 847 999 847 c 0,18,19
 860 847 860 847 752 763 c 0,20,21
 610 652 610 652 574 493 c 0,22,23
 565 453 565 453 565 420 c 0,24,25
 565 358 565 358 596 317 c 0,26,27
 644 254 644 254 748 254 c 0,28,29
 889 254 889 254 996 337 c 0,30,31
 1072 396 1072 396 1117 469 c 9,32,-1
 1317 249 l 17,0,1
984 1144 m 1,33,-1
 932 1345 l 1,34,-1
 1365 1551 l 1,35,-1
 1434 1281 l 1,36,-1
 984 1144 l 1,33,-1
EndSplineSet
Validated: 1
EndChar

StartChar: Ccircumflex
Encoding: 264 264 202
Width: 1781
GlyphClass: 2
Flags: W
HStem: -20 273<739.581 1176.08> 1258 273<1078.23 1517.51>
VStem: 233 368<387.823 751.235>
LayerCount: 2
Fore
SplineSet
1785 411 m 1,0,1
 1678 288 1678 288 1525 183 c 0,2,3
 1227 -20 1227 -20 858 -20 c 0,4,5
 507 -20 507 -20 335 188 c 0,6,7
 233 311 233 311 233 492 c 0,8,9
 233 578 233 578 256 676 c 0,10,11
 348 1066 348 1066 733 1328 c 0,12,13
 1032 1531 1032 1531 1399 1531 c 0,14,15
 1746 1531 1746 1531 1922 1323 c 0,16,17
 1960 1278 1960 1278 1984 1225 c 9,18,-1
 1645 1048 l 17,19,20
 1631 1099 1631 1099 1603 1138 c 0,21,22
 1518 1258 1518 1258 1336 1258 c 0,23,24
 1085 1258 1085 1258 905 1120 c 0,25,26
 678 946 678 946 617 682 c 0,27,28
 601 613 601 613 601 554 c 0,29,30
 601 445 601 445 655 372 c 0,31,32
 741 253 741 253 921 253 c 0,33,34
 1158 253 1158 253 1353 391 c 0,35,36
 1479 480 1479 480 1554 608 c 1,37,-1
 1785 411 l 1,0,1
1177 1559 m 1,38,-1
 1124 1760 l 1,39,-1
 1502 1966 l 1,40,-1
 1784 1760 l 1,41,-1
 1639 1559 l 1,42,-1
 1437 1684 l 1,43,-1
 1177 1559 l 1,38,-1
EndSplineSet
Validated: 1
EndChar

StartChar: ccircumflex
Encoding: 265 265 203
Width: 1348
GlyphClass: 2
Flags: W
HStem: -20 274<612.523 936.179> 847 273<817.351 1226.64> 1511 20G<1140.4 1204.48>
VStem: 199 366<301.992 586.22>
LayerCount: 2
Fore
SplineSet
1317 249 m 17,0,1
 1252 189 1252 189 1170 134 c 0,2,3
 937 -20 937 -20 667 -20 c 0,4,5
 412 -20 412 -20 279 136 c 0,6,7
 199 230 199 230 199 368 c 0,8,9
 199 433 199 433 216 503 c 0,10,11
 280 770 280 770 579 968 c 0,12,13
 809 1120 809 1120 1081 1120 c 128,-1,14
 1353 1120 1353 1120 1485 942 c 1,15,-1
 1174 742 l 1,16,17
 1139 847 1139 847 999 847 c 0,18,19
 860 847 860 847 752 763 c 0,20,21
 610 652 610 652 574 493 c 0,22,23
 565 453 565 453 565 420 c 0,24,25
 565 358 565 358 596 317 c 0,26,27
 644 254 644 254 748 254 c 0,28,29
 889 254 889 254 996 337 c 0,30,31
 1072 396 1072 396 1117 469 c 9,32,-1
 1317 249 l 17,0,1
852 1124 m 1,33,-1
 800 1325 l 1,34,-1
 1177 1531 l 1,35,-1
 1460 1325 l 1,36,-1
 1314 1124 l 1,37,-1
 1112 1249 l 1,38,-1
 852 1124 l 1,33,-1
EndSplineSet
Validated: 1
EndChar

